<?xml version="1.0" encoding="UTF-8" standalone="no"?>
<svg
   width="16"
   height="16"
   viewBox="0 0 4.2333332 4.2333335"
   version="1.1"
   id="svg8"
   inkscape:version="1.1.1 (3bf5ae0d25, 2021-09-20, custom)"
   sodipodi:docname="airplane-mode-symbolic.svg"
   xmlns:inkscape="http://www.inkscape.org/namespaces/inkscape"
   xmlns:sodipodi="http://sodipodi.sourceforge.net/DTD/sodipodi-0.dtd"
   xmlns="http://www.w3.org/2000/svg"
   xmlns:svg="http://www.w3.org/2000/svg"
   xmlns:rdf="http://www.w3.org/1999/02/22-rdf-syntax-ns#"
   xmlns:cc="http://creativecommons.org/ns#"
   xmlns:dc="http://purl.org/dc/elements/1.1/">
  <defs
     id="defs2" />
  <sodipodi:namedview
     id="base"
     pagecolor="#ffffff"
     bordercolor="#666666"
     borderopacity="1.0"
     inkscape:pageopacity="0.0"
     inkscape:pageshadow="2"
     inkscape:zoom="31.678384"
     inkscape:cx="6.976366"
     inkscape:cy="8.0496531"
     inkscape:document-units="mm"
     inkscape:current-layer="layer1"
     inkscape:document-rotation="0"
     showgrid="false"
     units="px"
     inkscape:window-width="1366"
     inkscape:window-height="707"
     inkscape:window-x="0"
     inkscape:window-y="0"
     inkscape:window-maximized="1"
     inkscape:pagecheckerboard="0">
    <inkscape:grid
       type="xygrid"
       id="grid833" />
  </sodipodi:namedview>
  <metadata
     id="metadata5">
    <rdf:RDF>
      <cc:Work
         rdf:about="">
        <dc:format>image/svg+xml</dc:format>
        <dc:type
           rdf:resource="http://purl.org/dc/dcmitype/StillImage" />
      </cc:Work>
    </rdf:RDF>
  </metadata>
  <g
     inkscape:label="Capa 1"
     inkscape:groupmode="layer"
     id="layer1">
    <path
       id="rect5542"
       style="fill-opacity:1;stroke:none;stroke-width:0.999999"
       d="M 8 0 C 6.8920001 0 6 0.89200007 6 2 L 6 6 L 7 6 L 7 2 C 7 1.4460005 7.4460005 1 8 1 C 8.5539995 1 9 1.4460005 9 2 L 9 6 L 10 6 L 10 2 C 10 0.89200007 9.1079999 0 8 0 z M 6 9 L 6 14 C 6 15.108 6.8920001 16 8 16 C 9.1079999 16 10 15.108 10 14 L 10 9 L 9 9 L 9 14 C 9 14.554 8.5539995 15 8 15 C 7.4460005 15 7 14.554 7 14 L 7 9 L 6 9 z "
       transform="scale(0.26458333)" />
    <path
       id="rect4579"
       style="fill-opacity:1;stroke:none;stroke-width:0.999999"
       d="M 3 5 L 3 6 L 13.800781 6 C 14.465581 6 15 6.5344188 15 7.1992188 L 15 7.8007812 C 15 8.4655812 14.465581 9 13.800781 9 L 9 9 L 9 10 L 14 10 C 15.108 10 16 9.1079999 16 8 L 16 7 C 16 5.8920001 15.108 5 14 5 L 3 5 z M 1 5.2695312 C 0.40219258 5.6145446 -1.4802974e-16 6.2574488 0 7 L 0 8 C 0 9.1079999 0.89200009 10 2 10 L 7 10 L 7 9 L 2.1992188 9 C 1.5344188 9 1 8.4655812 1 7.8007812 L 1 7.1992188 C 1 7.1310798 1.0067847 7.0649645 1.0175781 7 L 1 7 L 1 5.2695312 z "
       transform="scale(0.26458333)" />
    <rect
       style="fill-opacity:1;stroke:none;stroke-width:0.264583"
       id="rect4810"
       width="0.26458332"
       height="0.26458332"
       x="3.175"
       y="1.8520833"
       ry="0.13069279" />
    <rect
       style="fill-opacity:1;stroke:none;stroke-width:0.264583"
       id="rect4810-7"
       width="0.26458332"
       height="0.26458332"
       x="1.5875"
       y="1.8520834"
       ry="0.13069279" />
    <rect
       style="fill-opacity:1;stroke:none;stroke-width:0.264583"
       id="rect4810-0"
       width="0.26458332"
       height="0.26458332"
       x="2.1166666"
       y="1.8520833"
       ry="0.13069279" />
    <path
       id="rect4967"
       style="fill-opacity:1;stroke:none;stroke-width:1.33333"
       d="M 1.9472656 3 C 0.86338529 3.027277 -1.4802974e-16 3.9093124 0 5 L 0 7 L 1 7 L 1 6.734375 L 1 5 C 1 4.4546561 1.4326692 4.0136385 1.9746094 4 C 1.9832116 3.9997835 1.9913438 4 2 4 C 2.5539999 4 3 4.4459998 3 5 L 3 6 L 3.734375 6 C 3.9034969 5.7062424 4 5.3646402 4 5 C 4 3.8919999 3.1079999 3 2 3 C 1.9826875 3 1.9644701 2.999567 1.9472656 3 z "
       transform="scale(0.26458333)" />
  </g>
</svg>
