<?xml version="1.0" encoding="UTF-8" standalone="no"?>
<svg
   width="16"
   height="16"
   viewBox="0 0 4.2333332 4.2333335"
   version="1.1"
   id="svg8"
   inkscape:version="1.1.1 (3bf5ae0d25, 2021-09-20, custom)"
   sodipodi:docname="network-wireless-error-symbolic.svg"
   xmlns:inkscape="http://www.inkscape.org/namespaces/inkscape"
   xmlns:sodipodi="http://sodipodi.sourceforge.net/DTD/sodipodi-0.dtd"
   xmlns="http://www.w3.org/2000/svg"
   xmlns:svg="http://www.w3.org/2000/svg"
   xmlns:rdf="http://www.w3.org/1999/02/22-rdf-syntax-ns#"
   xmlns:cc="http://creativecommons.org/ns#"
   xmlns:dc="http://purl.org/dc/elements/1.1/">
  <defs
     id="defs2" />
  <sodipodi:namedview
     id="base"
     pagecolor="#ffffff"
     bordercolor="#666666"
     borderopacity="1.0"
     inkscape:pageopacity="0.0"
     inkscape:pageshadow="2"
     inkscape:zoom="15.839192"
     inkscape:cx="7.1342023"
     inkscape:cy="15.499528"
     inkscape:document-units="mm"
     inkscape:current-layer="layer1"
     inkscape:document-rotation="0"
     showgrid="false"
     units="px"
     inkscape:window-width="1366"
     inkscape:window-height="707"
     inkscape:window-x="0"
     inkscape:window-y="0"
     inkscape:window-maximized="1"
     inkscape:pagecheckerboard="0">
    <inkscape:grid
       type="xygrid"
       id="grid833" />
  </sodipodi:namedview>
  <metadata
     id="metadata5">
    <rdf:RDF>
      <cc:Work
         rdf:about="">
        <dc:format>image/svg+xml</dc:format>
        <dc:type
           rdf:resource="http://purl.org/dc/dcmitype/StillImage" />
      </cc:Work>
    </rdf:RDF>
  </metadata>
  <g
     inkscape:label="Capa 1"
     inkscape:groupmode="layer"
     id="layer1">
    <path
       id="rect15427"
       style="fill:#000000;fill-opacity:1;stroke:none;stroke-width:1.5;opacity:0.7"
       d="M 2 2 C 1.9835938 2 1.9675577 2.0018693 1.9511719 2.0019531 C 1.983348 2.162592 2 2.3296154 2 2.5 L 2 3 C 5.7442358 3 9.038517 4.8536096 11.023438 7.6953125 C 11.083189 7.3020897 11.255026 6.9462603 11.507812 6.6640625 C 9.3170784 3.8241152 5.8801587 2 2 2 z M 12.183594 9.828125 C 12.708376 11.114006 13 12.521024 13 14 L 14 14 C 14 12.587081 13.755111 11.233462 13.310547 9.9765625 C 13.20925 9.9922479 13.105826 10 13 10 C 12.70877 10 12.432703 9.9390997 12.183594 9.828125 z "
       transform="scale(0.26458333)" />
    <rect
       style="opacity:1;fill:#000000;fill-opacity:1;stroke:none;stroke-width:0.264583"
       id="rect17248"
       width="0.52916664"
       height="0.52916664"
       x="3.175"
       y="1.8520834"
       ry="0.26458332" />
    <path
       id="rect15427-6"
       style="fill:#000000;fill-opacity:1;stroke:none;stroke-width:1.125;opacity:0.7"
       d="M 2 5 L 2 6 C 6.4319996 6 10 9.5680004 10 14 L 11 14 C 11 9.0140004 6.9859996 5 2 5 z "
       transform="scale(0.26458333)" />
    <path
       id="rect15427-6-1"
       style="fill:#000000;fill-opacity:1;stroke:none;stroke-width:0.750002;opacity:0.7"
       d="M 2 8 L 2 9 C 4.7699999 9 7 11.23 7 14 L 8 14 C 8 10.676 5.3239997 8 2 8 z "
       transform="scale(0.26458333)" />
    <path
       id="rect15427-6-1-9"
       style="fill:#000000;fill-opacity:1;stroke:none;stroke-width:0.374998;opacity:0.7"
       d="M 2 11 L 2 14 L 5 14 C 5 12.338 3.6620001 11 2 11 z "
       transform="scale(0.26458333)" />
    <rect
       style="opacity:1;fill:#000000;fill-opacity:1;stroke:none;stroke-width:0.229136"
       id="rect17246"
       width="0.52916664"
       height="0.79374993"
       x="3.175"
       y="0.79374999"
       ry="0.26458332" />
  </g>
</svg>
