<?xml version="1.0" encoding="UTF-8" standalone="no"?>
<svg
   width="16"
   height="16"
   viewBox="0 0 4.2333332 4.2333335"
   version="1.1"
   id="svg8"
   inkscape:version="1.1.2 (0a00cf5339, 2022-02-04)"
   sodipodi:docname="network-wireless-signal-excellent-symbolic.svg"
   xmlns:inkscape="http://www.inkscape.org/namespaces/inkscape"
   xmlns:sodipodi="http://sodipodi.sourceforge.net/DTD/sodipodi-0.dtd"
   xmlns="http://www.w3.org/2000/svg"
   xmlns:svg="http://www.w3.org/2000/svg"
   xmlns:rdf="http://www.w3.org/1999/02/22-rdf-syntax-ns#"
   xmlns:cc="http://creativecommons.org/ns#"
   xmlns:dc="http://purl.org/dc/elements/1.1/">
  <defs
     id="defs2" />
  <sodipodi:namedview
     id="base"
     pagecolor="#ffffff"
     bordercolor="#666666"
     borderopacity="1.0"
     inkscape:pageopacity="0.0"
     inkscape:pageshadow="2"
     inkscape:zoom="7.919596"
     inkscape:cx="7.1342023"
     inkscape:cy="15.467961"
     inkscape:document-units="mm"
     inkscape:current-layer="layer1"
     inkscape:document-rotation="0"
     showgrid="false"
     units="px"
     inkscape:window-width="1366"
     inkscape:window-height="699"
     inkscape:window-x="0"
     inkscape:window-y="33"
     inkscape:window-maximized="1"
     inkscape:pagecheckerboard="0">
    <inkscape:grid
       type="xygrid"
       id="grid833" />
  </sodipodi:namedview>
  <metadata
     id="metadata5">
    <rdf:RDF>
      <cc:Work
         rdf:about="">
        <dc:format>image/svg+xml</dc:format>
        <dc:type
           rdf:resource="http://purl.org/dc/dcmitype/StillImage" />
      </cc:Work>
    </rdf:RDF>
  </metadata>
  <g
     inkscape:label="Capa 1"
     inkscape:groupmode="layer"
     id="layer1">
    <path
       id="rect15427"
       style="fill:#000000;fill-opacity:1;stroke:none;stroke-width:1.5"
       d="M 2 2 C 1.9835938 2 1.9675577 2.0018693 1.9511719 2.0019531 C 1.983348 2.162592 2 2.3296154 2 2.5 L 2 3 C 8.0939997 3 13 7.9060003 13 14 L 14 14 C 14 7.3520003 8.6479997 2 2 2 z "
       transform="scale(0.26458333)" />
    <path
       id="rect15427-6"
       style="fill:#000000;fill-opacity:1;stroke:none;stroke-width:1.125"
       d="M 2 5 L 2 6 C 6.4319996 6 10 9.5680004 10 14 L 11 14 C 11 9.0140004 6.9859996 5 2 5 z "
       transform="scale(0.26458333)" />
    <path
       id="rect15427-6-1"
       style="fill:#000000;fill-opacity:1;stroke:none;stroke-width:0.750002"
       d="M 2 8 L 2 9 C 4.7699999 9 7 11.23 7 14 L 8 14 C 8 10.676 5.3239997 8 2 8 z "
       transform="scale(0.26458333)" />
    <rect
       style="stroke-width:0.432063"
       id="rect849"
       width="0.52916664"
       height="0.52916658"
       x="0.52916664"
       y="3.1750002"
       ry="0.26458329" />
  </g>
</svg>
