<?xml version="1.0" encoding="UTF-8" standalone="no"?>
<svg
   width="16"
   height="16"
   viewBox="0 0 4.2333332 4.2333335"
   version="1.1"
   id="svg8"
   inkscape:version="1.1.1 (3bf5ae0d25, 2021-09-20, custom)"
   sodipodi:docname="pamac-tray-update-symbolic.svg"
   xmlns:inkscape="http://www.inkscape.org/namespaces/inkscape"
   xmlns:sodipodi="http://sodipodi.sourceforge.net/DTD/sodipodi-0.dtd"
   xmlns="http://www.w3.org/2000/svg"
   xmlns:svg="http://www.w3.org/2000/svg"
   xmlns:rdf="http://www.w3.org/1999/02/22-rdf-syntax-ns#"
   xmlns:cc="http://creativecommons.org/ns#"
   xmlns:dc="http://purl.org/dc/elements/1.1/">
  <defs
     id="defs2">
    <linearGradient
       id="linearGradient3775"
       inkscape:swatch="solid">
      <stop
         style="stop-color:#000000;stop-opacity:1;"
         offset="0"
         id="stop3773" />
    </linearGradient>
  </defs>
  <sodipodi:namedview
     id="base"
     pagecolor="#ffffff"
     bordercolor="#666666"
     borderopacity="1.0"
     inkscape:pageopacity="0.0"
     inkscape:pageshadow="2"
     inkscape:zoom="11.2"
     inkscape:cx="14.107143"
     inkscape:cy="9.375"
     inkscape:document-units="mm"
     inkscape:current-layer="layer1"
     inkscape:document-rotation="0"
     showgrid="false"
     units="px"
     inkscape:window-width="1366"
     inkscape:window-height="707"
     inkscape:window-x="0"
     inkscape:window-y="0"
     inkscape:window-maximized="1"
     inkscape:pagecheckerboard="0">
    <inkscape:grid
       type="xygrid"
       id="grid833" />
  </sodipodi:namedview>
  <metadata
     id="metadata5">
    <rdf:RDF>
      <cc:Work
         rdf:about="">
        <dc:format>image/svg+xml</dc:format>
        <dc:type
           rdf:resource="http://purl.org/dc/dcmitype/StillImage" />
      </cc:Work>
    </rdf:RDF>
  </metadata>
  <g
     inkscape:label="Capa 1"
     inkscape:groupmode="layer"
     id="layer1">
    <path
       id="rect3672"
       style="fill-opacity:1;stroke:none;stroke-width:1.00157;stroke-linecap:square"
       d="M 8 1 C 4.122 1 1 4.122 1 8 C 1 8.3400382 1.0258539 8.6731818 1.0722656 9 L 2.0839844 9 C 2.0298321 8.6747808 2 8.3410533 2 8 C 2 4.6759998 4.6760003 2 8 2 C 10.621482 2 12.837575 3.6659753 13.658203 6 L 14.710938 6 C 13.854223 3.1027699 11.182301 1 8 1 z M 13.916016 7 C 13.970168 7.3252192 14 7.6589467 14 8 C 14 11.324 11.324 14 8 14 C 5.3785181 14 3.1624249 12.334025 2.3417969 10 L 1.2890625 10 C 2.145777 12.89723 4.8176986 15 8 15 C 11.878 15 15 11.878 15 8 C 15 7.6599618 14.974146 7.3268182 14.927734 7 L 13.916016 7 z "
       transform="scale(0.26458333)" />
    <rect
       style="fill-opacity:1;stroke:none;stroke-width:0.264999;stroke-linecap:square"
       id="rect3856"
       width="0.26458332"
       height="0.79374999"
       x="3.7041667"
       y="0.79374999"
       ry="0.13229166" />
    <rect
       style="fill-opacity:1;stroke:none;stroke-width:0.264999;stroke-linecap:square"
       id="rect3856-9"
       width="0.26458332"
       height="0.79374999"
       x="0.26458332"
       y="2.6458333"
       ry="0.13229166" />
    <rect
       style="fill-opacity:1;stroke:none;stroke-width:0.264999;stroke-linecap:square"
       id="rect3856-6"
       width="0.26458332"
       height="0.79374999"
       x="1.3229166"
       y="-3.96875"
       ry="0.13229166"
       transform="rotate(90)" />
    <rect
       style="fill-opacity:1;stroke:none;stroke-width:0.264999;stroke-linecap:square"
       id="rect3856-6-1"
       width="0.26458332"
       height="0.79374999"
       x="2.6458333"
       y="-1.0583334"
       ry="0.13229166"
       transform="rotate(90)" />
    <path
       id="rect2687"
       style="fill-opacity:1;stroke-width:0.980402"
       d="M 8 4 C 7.9800063 4 7.9610976 4.0027735 7.9414062 4.0039062 C 7.877177 4.0074662 7.814254 4.0146701 7.7539062 4.0292969 C 7.5431069 4.0732981 7.3418591 4.1674606 7.1738281 4.3125 L 5.3828125 5.859375 C 4.8864626 6.2877928 4.8708862 6.9914931 5.3476562 7.4375 C 5.7922364 7.853389 6.5035507 7.8945935 7 7.5507812 L 7 8.8066406 L 7 9 L 7 9.7675781 L 7 10 L 9 10 L 9 9 L 9 8.8066406 L 9 7.6113281 C 9.4795759 7.9441344 10.166486 7.9222337 10.617188 7.5332031 C 10.865359 7.3189908 10.993701 7.0354069 11 6.75 C 11.006312 6.4645928 10.89073 6.1780823 10.652344 5.9550781 L 8.9316406 4.34375 C 8.6834814 4.1116016 8.3520713 3.9985931 8.0214844 4.0019531 C 8.0141899 4.0018632 8.0072945 4 8 4 z M 7 11 L 7 12 L 9 12 L 9 11 L 7 11 z "
       transform="scale(0.26458333)" />
  </g>
</svg>
