<?xml version="1.0" encoding="UTF-8" standalone="no"?>
<svg
   width="16"
   height="16"
   viewBox="0 0 4.2333332 4.2333335"
   version="1.1"
   id="svg8"
   inkscape:version="1.1.1 (3bf5ae0d25, 2021-09-20, custom)"
   sodipodi:docname="system-shutdown-symbolic.svg"
   xmlns:inkscape="http://www.inkscape.org/namespaces/inkscape"
   xmlns:sodipodi="http://sodipodi.sourceforge.net/DTD/sodipodi-0.dtd"
   xmlns="http://www.w3.org/2000/svg"
   xmlns:svg="http://www.w3.org/2000/svg"
   xmlns:rdf="http://www.w3.org/1999/02/22-rdf-syntax-ns#"
   xmlns:cc="http://creativecommons.org/ns#"
   xmlns:dc="http://purl.org/dc/elements/1.1/">
  <defs
     id="defs2" />
  <sodipodi:namedview
     id="base"
     pagecolor="#ffffff"
     bordercolor="#666666"
     borderopacity="1.0"
     inkscape:pageopacity="0.0"
     inkscape:pageshadow="2"
     inkscape:zoom="22.4"
     inkscape:cx="12.946429"
     inkscape:cy="7.3660714"
     inkscape:document-units="mm"
     inkscape:current-layer="layer1"
     inkscape:document-rotation="0"
     showgrid="false"
     units="px"
     inkscape:window-width="1366"
     inkscape:window-height="707"
     inkscape:window-x="0"
     inkscape:window-y="0"
     inkscape:window-maximized="1"
     inkscape:pagecheckerboard="0">
    <inkscape:grid
       type="xygrid"
       id="grid833" />
  </sodipodi:namedview>
  <metadata
     id="metadata5">
    <rdf:RDF>
      <cc:Work
         rdf:about="">
        <dc:format>image/svg+xml</dc:format>
        <dc:type
           rdf:resource="http://purl.org/dc/dcmitype/StillImage" />
      </cc:Work>
    </rdf:RDF>
  </metadata>
  <g
     inkscape:label="Capa 1"
     inkscape:groupmode="layer"
     id="layer1">
    <rect
       style="opacity:1;fill:#000000;stroke-width:0.264583"
       id="rect1803"
       width="0.52916664"
       height="1.3229166"
       x="1.8520833"
       y="0.26458344"
       ry="0.26458332" />
    <path
       id="rect1087"
       style="opacity:1;fill:#000000;stroke-width:0.999999"
       d="M 6 2.3417969 C 3.6659754 3.1624248 2 5.3785179 2 8 C 2 11.324 4.676 14 8 14 C 11.324 14 14 11.324 14 8 C 14 5.3785179 12.334025 3.1624248 10 2.3417969 L 10 3.4160156 C 11.768316 4.1849905 13 5.9423467 13 8 C 13 10.77 10.77 13 8 13 C 5.2300001 13 3 10.77 3 8 C 3 5.9423467 4.231684 4.1849905 6 3.4160156 L 6 2.3417969 z "
       transform="scale(0.26458333)" />
  </g>
</svg>
