<?xml version="1.0" encoding="UTF-8" standalone="no"?>
<!-- Created with Inkscape (http://www.inkscape.org/) -->

<svg
   width="64"
   height="64"
   viewBox="0 0 64 64"
   version="1.1"
   id="svg5"
   inkscape:version="1.1.2 (0a00cf5339, 2022-02-04)"
   sodipodi:docname="org.xfce.settings.accessibility.svg"
   xmlns:inkscape="http://www.inkscape.org/namespaces/inkscape"
   xmlns:sodipodi="http://sodipodi.sourceforge.net/DTD/sodipodi-0.dtd"
   xmlns:xlink="http://www.w3.org/1999/xlink"
   xmlns="http://www.w3.org/2000/svg"
   xmlns:svg="http://www.w3.org/2000/svg">
  <sodipodi:namedview
     id="namedview7"
     pagecolor="#ffffff"
     bordercolor="#666666"
     borderopacity="1.0"
     inkscape:pageshadow="2"
     inkscape:pageopacity="0.0"
     inkscape:pagecheckerboard="0"
     inkscape:document-units="px"
     showgrid="false"
     width="72px"
     inkscape:zoom="7.7339804"
     inkscape:cx="33.294628"
     inkscape:cy="44.931585"
     inkscape:window-width="1366"
     inkscape:window-height="699"
     inkscape:window-x="0"
     inkscape:window-y="33"
     inkscape:window-maximized="1"
     inkscape:current-layer="layer1">
    <inkscape:grid
       type="xygrid"
       id="grid824" />
  </sodipodi:namedview>
  <defs
     id="defs2">
    <linearGradient
       inkscape:collect="always"
       id="linearGradient849">
      <stop
         style="stop-color:#00aade;stop-opacity:1"
         offset="0"
         id="stop845" />
      <stop
         style="stop-color:#1077da;stop-opacity:1"
         offset="1"
         id="stop847" />
    </linearGradient>
    <linearGradient
       inkscape:collect="always"
       xlink:href="#linearGradient849"
       id="linearGradient851"
       x1="35"
       y1="5"
       x2="40"
       y2="55"
       gradientUnits="userSpaceOnUse" />
    <linearGradient
       id="linearGradient974">
      <stop
         style="stop-color:#0636a2;stop-opacity:1"
         offset="0"
         id="stop962" />
      <stop
         id="stop964"
         offset="0.04166667"
         style="stop-color:#3e76f7;stop-opacity:1" />
      <stop
         style="stop-color:#073aae;stop-opacity:1"
         offset="0.08333334"
         id="stop966" />
      <stop
         id="stop968"
         offset="0.91666669"
         style="stop-color:#073aae;stop-opacity:1" />
      <stop
         style="stop-color:#4c81f8;stop-opacity:1"
         offset="0.95833331"
         id="stop970" />
      <stop
         style="stop-color:#0636a2;stop-opacity:1"
         offset="1"
         id="stop972" />
    </linearGradient>
    <linearGradient
       y2="44"
       x2="464"
       y1="44"
       x1="48"
       gradientTransform="matrix(0.09248421,0,0,0.09248421,-55.131249,10.742013)"
       gradientUnits="userSpaceOnUse"
       id="linearGradient1747"
       xlink:href="#linearGradient974" />
    <clipPath
       id="clipPath1784"
       clipPathUnits="userSpaceOnUse">
      <rect
         ry="14"
         rx="14"
         y="202"
         x="36"
         height="28"
         width="59.999996"
         id="rect1786"
         style="opacity:1;vector-effect:none;fill:#3584e4;fill-opacity:1;stroke:none;stroke-width:0.85391253;stroke-linecap:square;stroke-linejoin:round;stroke-miterlimit:4;stroke-dasharray:none;stroke-dashoffset:0;stroke-opacity:1" />
    </clipPath>
  </defs>
  <g
     inkscape:label="Capa 1"
     inkscape:groupmode="layer"
     id="layer1">
    <rect
       style="fill:url(#linearGradient851);stroke-width:0.989057;fill-opacity:1"
       id="rect848"
       width="58"
       height="58"
       x="3"
       y="3"
       ry="9" />
    <path
       id="rect848-9"
       style="fill:#ffffff;fill-opacity:1;stroke-width:0.920846"
       d="M 12 5 C 8.122 5 5 8.122 5 12 L 5 52 C 5 55.878 8.122 59 12 59 L 52 59 C 55.878 59 59 55.878 59 52 L 59 12 C 59 8.122 55.878 5 52 5 L 12 5 z M 12 7 L 52 7 C 54.77 7 57 9.23 57 12 L 57 52 C 57 54.77 54.77 57 52 57 L 12 57 C 9.23 57 7 54.77 7 52 L 7 12 C 7 9.23 9.23 7 12 7 z " />
    <rect
       style="fill:#ffffff;fill-opacity:1;stroke-width:1.11111"
       id="rect5282"
       width="10"
       height="10"
       x="27"
       y="13"
       ry="5" />
    <path
       id="rect5441"
       style="fill:#ffffff;fill-opacity:1;stroke-width:1.41422"
       d="m 22,25 c -1.108,0 -2,0.892 -2,2 0,1.108 0.892,2 2,2 h 5 v 7 1 12 c 0,1.108 0.892,2 2,2 1.108,0 2,-0.892 2,-2 v -9 h 2 v 9 c 0,1.108 0.892,2 2,2 1.108,0 2,-0.892 2,-2 V 37 29 h 5 c 1.108,0 2,-0.892 2,-2 0,-1.108 -0.892,-2 -2,-2 z" />
  </g>
</svg>
