<?xml version="1.0" encoding="UTF-8" standalone="no"?>
<!-- Created with Inkscape (http://www.inkscape.org/) -->

<svg
   width="8"
   height="8"
   viewBox="0 0 2.1166666 2.1166666"
   version="1.1"
   id="svg5"
   inkscape:version="1.1.1 (3bf5ae0d25, 2021-09-20, custom)"
   sodipodi:docname="emblem-shared.svg"
   xmlns:inkscape="http://www.inkscape.org/namespaces/inkscape"
   xmlns:sodipodi="http://sodipodi.sourceforge.net/DTD/sodipodi-0.dtd"
   xmlns="http://www.w3.org/2000/svg"
   xmlns:svg="http://www.w3.org/2000/svg">
  <sodipodi:namedview
     id="namedview7"
     pagecolor="#ffffff"
     bordercolor="#666666"
     borderopacity="1.0"
     inkscape:pageshadow="2"
     inkscape:pageopacity="0.0"
     inkscape:pagecheckerboard="0"
     inkscape:document-units="mm"
     showgrid="false"
     units="px"
     height="8px"
     inkscape:zoom="15.536476"
     inkscape:cx="3.9584266"
     inkscape:cy="3.9906089"
     inkscape:window-width="1366"
     inkscape:window-height="680"
     inkscape:window-x="0"
     inkscape:window-y="0"
     inkscape:window-maximized="1"
     inkscape:current-layer="layer1">
    <inkscape:grid
       type="xygrid"
       id="grid824" />
  </sodipodi:namedview>
  <defs
     id="defs2">
    <inkscape:path-effect
       effect="fillet_chamfer"
       id="path-effect4097"
       is_visible="true"
       lpeversion="1"
       satellites_param="F,0,0,1,0,0.95396876,0,1 @ F,0,0,1,0,0,0,1 @ F,0,1,1,0,0.95396876,0,1 @ F,0,0,1,0,0,0,1"
       unit="px"
       method="auto"
       mode="F"
       radius="0"
       chamfer_steps="1"
       flexible="false"
       use_knot_distance="true"
       apply_no_radius="true"
       apply_with_radius="true"
       only_selected="false"
       hide_knots="false" />
  </defs>
  <g
     inkscape:label="Capa 1"
     inkscape:groupmode="layer"
     id="layer1">
    <rect
       style="fill:#ffffff;fill-opacity:1;stroke-width:0.264604"
       id="rect848"
       width="2.1166666"
       height="2.1170001"
       x="0"
       y="-2.1170001"
       ry="1.0585001"
       transform="scale(1,-1)" />
    <path
       id="rect848-3"
       style="fill:#7ad11d;fill-opacity:1;stroke-width:0.749998"
       d="M 3.921875 1 C 2.2960543 1.0409155 1 2.3639688 1 4 C 1 5.662 2.338 7 4 7 C 5.662 7 7 5.662 7 4 C 7 2.338 5.662 1 4 1 C 3.9740313 1 3.9476817 0.99935055 3.921875 1 z M 3.9472656 2 C 3.9644701 1.999567 3.9826875 2 4 2 C 5.1080001 2 6 2.8919999 6 4 C 6 5.1080001 5.1080001 6 4 6 C 2.8919999 6 2 5.1080001 2 4 C 2 2.9093124 2.8633851 2.027277 3.9472656 2 z "
       transform="scale(0.26458333)" />
    <rect
       style="fill:#7ad11d;fill-opacity:1;fill-rule:evenodd;stroke-width:0.264583"
       id="rect1443"
       width="0.52916664"
       height="0.52916664"
       x="0.26458335"
       y="0.26458332"
       ry="0.26458332" />
    <rect
       style="fill:#7ad11d;fill-opacity:1;fill-rule:evenodd;stroke-width:0.264583"
       id="rect1443-3"
       width="0.52916664"
       height="0.52916664"
       x="0.79374999"
       y="0.79375005"
       ry="0.26458332" />
    <rect
       style="fill:#7ad11d;fill-opacity:1;fill-rule:evenodd;stroke-width:0.264583"
       id="rect1443-3-6"
       width="0.52916664"
       height="0.52916664"
       x="1.0583333"
       y="1.5875001"
       ry="0.26458332" />
  </g>
</svg>
