<?xml version="1.0" encoding="UTF-8" standalone="no"?>
<!-- Created with Inkscape (http://www.inkscape.org/) -->

<svg
   width="64"
   height="64"
   viewBox="0 0 64 64"
   version="1.1"
   id="svg5"
   inkscape:version="1.1.2 (0a00cf5339, 2022-02-04)"
   sodipodi:docname="application-x-sharedlib.svg"
   xmlns:inkscape="http://www.inkscape.org/namespaces/inkscape"
   xmlns:sodipodi="http://sodipodi.sourceforge.net/DTD/sodipodi-0.dtd"
   xmlns:xlink="http://www.w3.org/1999/xlink"
   xmlns="http://www.w3.org/2000/svg"
   xmlns:svg="http://www.w3.org/2000/svg">
  <sodipodi:namedview
     id="namedview7"
     pagecolor="#ffffff"
     bordercolor="#666666"
     borderopacity="1.0"
     inkscape:pageshadow="2"
     inkscape:pageopacity="0.0"
     inkscape:pagecheckerboard="0"
     inkscape:document-units="px"
     showgrid="false"
     inkscape:zoom="3.140625"
     inkscape:cx="34.228856"
     inkscape:cy="37.094527"
     inkscape:window-width="1366"
     inkscape:window-height="699"
     inkscape:window-x="0"
     inkscape:window-y="33"
     inkscape:window-maximized="1"
     inkscape:current-layer="layer1">
    <inkscape:grid
       type="xygrid"
       id="grid1039" />
  </sodipodi:namedview>
  <defs
     id="defs2">
    <linearGradient
       inkscape:collect="always"
       id="linearGradient967">
      <stop
         style="stop-color:#eeeeee;stop-opacity:1"
         offset="0"
         id="stop963" />
      <stop
         style="stop-color:#efefef;stop-opacity:1"
         offset="1"
         id="stop965" />
    </linearGradient>
    <linearGradient
       inkscape:collect="always"
       id="linearGradient848">
      <stop
         style="stop-color:#eeeeee;stop-opacity:1"
         offset="0"
         id="stop844" />
      <stop
         style="stop-color:#efefef;stop-opacity:0.98854536"
         offset="1"
         id="stop846" />
    </linearGradient>
    <filter
       inkscape:collect="always"
       style="color-interpolation-filters:sRGB"
       id="filter3825"
       x="-0.20356626"
       y="-0.20921815"
       width="1.4071325"
       height="1.4184363">
      <feGaussianBlur
         inkscape:collect="always"
         stdDeviation="1.76"
         id="feGaussianBlur3827" />
    </filter>
    <linearGradient
       inkscape:collect="always"
       xlink:href="#linearGradient1070"
       id="linearGradient4297"
       x1="7.9375"
       y1="6.6145835"
       x2="5.2916665"
       y2="3.96875"
       gradientUnits="userSpaceOnUse"
       gradientTransform="matrix(3.7795276,0,0,3.7795276,3.5883709e-4,3.6001103e-4)" />
    <linearGradient
       inkscape:collect="always"
       id="linearGradient1070">
      <stop
         style="stop-color:#ffffff;stop-opacity:1"
         offset="0"
         id="stop1066" />
      <stop
         style="stop-color:#ededed;stop-opacity:1"
         offset="1"
         id="stop1068" />
    </linearGradient>
    <linearGradient
       inkscape:collect="always"
       xlink:href="#linearGradient967"
       id="linearGradient850"
       x1="16"
       y1="12"
       x2="57"
       y2="60"
       gradientUnits="userSpaceOnUse" />
    <linearGradient
       inkscape:collect="always"
       xlink:href="#linearGradient3285"
       id="linearGradient10344"
       gradientUnits="userSpaceOnUse"
       x1="11.619618"
       y1="12.523611"
       x2="5.3137155"
       y2="7.8934035"
       gradientTransform="matrix(3.3434283,0,0,3.2395958,4.1923058,5.4285635)" />
    <linearGradient
       inkscape:collect="always"
       id="linearGradient3285">
      <stop
         style="stop-color:#232323;stop-opacity:1"
         offset="0"
         id="stop3281" />
      <stop
         style="stop-color:#444444;stop-opacity:1"
         offset="1"
         id="stop3283" />
    </linearGradient>
    <linearGradient
       inkscape:collect="always"
       xlink:href="#linearGradient9072"
       id="linearGradient9074"
       x1="5.5562501"
       y1="8.2020836"
       x2="11.1125"
       y2="12.170834"
       gradientUnits="userSpaceOnUse"
       gradientTransform="matrix(3.6341611,0,0,3.7795276,1.7307678,1.3220215e-7)" />
    <linearGradient
       inkscape:collect="always"
       id="linearGradient9072">
      <stop
         style="stop-color:#9c9c9c;stop-opacity:0.98637742"
         offset="0"
         id="stop9068" />
      <stop
         style="stop-color:#c4c4c4;stop-opacity:1"
         offset="1"
         id="stop9070" />
    </linearGradient>
    <linearGradient
       inkscape:collect="always"
       xlink:href="#linearGradient11112"
       id="linearGradient10947"
       gradientUnits="userSpaceOnUse"
       gradientTransform="matrix(3.0526956,0,0,2.6996632,6.6538438,10.857137)"
       x1="11.619618"
       y1="12.523611"
       x2="5.3137155"
       y2="7.8934035" />
    <linearGradient
       inkscape:collect="always"
       id="linearGradient11112">
      <stop
         style="stop-color:#477ee1;stop-opacity:1"
         offset="0"
         id="stop11108" />
      <stop
         style="stop-color:#6fbee3;stop-opacity:1"
         offset="1"
         id="stop11110" />
    </linearGradient>
    <linearGradient
       inkscape:collect="always"
       xlink:href="#linearGradient9445"
       id="linearGradient9345"
       x1="9.7895832"
       y1="5.2916665"
       x2="16.139584"
       y2="5.2916665"
       gradientUnits="userSpaceOnUse"
       gradientTransform="scale(3.7795276)" />
    <linearGradient
       inkscape:collect="always"
       id="linearGradient9445">
      <stop
         style="stop-color:#dfdfdf;stop-opacity:0.99607843"
         offset="0"
         id="stop9441" />
      <stop
         style="stop-color:#ffffff;stop-opacity:1"
         offset="1"
         id="stop9443" />
    </linearGradient>
    <linearGradient
       inkscape:collect="always"
       xlink:href="#linearGradient3285"
       id="linearGradient11749"
       x1="12.7"
       y1="5.8208332"
       x2="12.964582"
       y2="4.7624998"
       gradientUnits="userSpaceOnUse"
       gradientTransform="matrix(1.8897599,0,0,3.7795276,24.500052,6.9580078e-8)" />
    <linearGradient
       inkscape:collect="always"
       xlink:href="#linearGradient3285"
       id="linearGradient15787"
       gradientUnits="userSpaceOnUse"
       gradientTransform="matrix(0,1.8897599,-1.8897642,0,54.500003,-1.4999591)"
       x1="12.7"
       y1="5.8208332"
       x2="12.964582"
       y2="4.7624998" />
    <linearGradient
       inkscape:collect="always"
       xlink:href="#linearGradient3285"
       id="linearGradient12457"
       gradientUnits="userSpaceOnUse"
       gradientTransform="matrix(3.7795276,0,0,3.7795276,4.0000024,6.9580078e-8)"
       x1="12.7"
       y1="5.8208332"
       x2="12.964583"
       y2="4.7624998" />
    <linearGradient
       inkscape:collect="always"
       xlink:href="#linearGradient848"
       id="linearGradient4265"
       x1="20"
       y1="40.5"
       x2="45"
       y2="40.5"
       gradientUnits="userSpaceOnUse" />
    <linearGradient
       inkscape:collect="always"
       xlink:href="#linearGradient848"
       id="linearGradient4360"
       gradientUnits="userSpaceOnUse"
       x1="20"
       y1="40.5"
       x2="45"
       y2="40.5"
       gradientTransform="translate(3.8146973e-6)" />
    <linearGradient
       inkscape:collect="always"
       xlink:href="#linearGradient9072"
       id="linearGradient4362"
       gradientUnits="userSpaceOnUse"
       gradientTransform="matrix(3.6341611,0,0,3.7795276,1.7307718,0)"
       x1="5.5562501"
       y1="8.2020836"
       x2="11.1125"
       y2="12.170834" />
    <linearGradient
       inkscape:collect="always"
       xlink:href="#linearGradient3285"
       id="linearGradient4364"
       gradientUnits="userSpaceOnUse"
       gradientTransform="matrix(3.3434283,0,0,3.2395958,4.1923098,5.428563)"
       x1="11.619618"
       y1="12.523611"
       x2="5.3137155"
       y2="7.8934035" />
    <linearGradient
       inkscape:collect="always"
       xlink:href="#linearGradient11112"
       id="linearGradient4366"
       gradientUnits="userSpaceOnUse"
       gradientTransform="matrix(3.0526956,0,0,2.6996632,6.6538478,10.857137)"
       x1="11.619618"
       y1="12.523611"
       x2="5.3137155"
       y2="7.8934035" />
    <filter
       inkscape:collect="always"
       style="color-interpolation-filters:sRGB"
       id="filter4375"
       x="-0.20114284"
       y="-0.42239992"
       width="1.4022857"
       height="1.8447998">
      <feGaussianBlur
         inkscape:collect="always"
         stdDeviation="1.76"
         id="feGaussianBlur4377" />
    </filter>
    <filter
       inkscape:collect="always"
       style="color-interpolation-filters:sRGB"
       id="filter4379"
       x="-0.18365217"
       y="-0.35199994"
       width="1.3673043"
       height="1.7039999">
      <feGaussianBlur
         inkscape:collect="always"
         stdDeviation="1.76"
         id="feGaussianBlur4381" />
    </filter>
    <filter
       inkscape:collect="always"
       style="color-interpolation-filters:sRGB"
       id="filter4383"
       x="-0.16896"
       y="-0.3017143"
       width="1.33792"
       height="1.6034286">
      <feGaussianBlur
         inkscape:collect="always"
         stdDeviation="1.76"
         id="feGaussianBlur4385" />
    </filter>
    <filter
       inkscape:collect="always"
       style="color-interpolation-filters:sRGB"
       id="filter4387"
       x="-0.70399977"
       y="-2.1120001"
       width="2.4079995"
       height="5.2240002">
      <feGaussianBlur
         inkscape:collect="always"
         stdDeviation="1.76"
         id="feGaussianBlur4389" />
    </filter>
    <filter
       inkscape:collect="always"
       style="color-interpolation-filters:sRGB"
       id="filter4391"
       x="-0.70399988"
       y="-2.1120001"
       width="2.4079998"
       height="5.2240002">
      <feGaussianBlur
         inkscape:collect="always"
         stdDeviation="1.76"
         id="feGaussianBlur4393" />
    </filter>
    <filter
       inkscape:collect="always"
       style="color-interpolation-filters:sRGB"
       id="filter4395"
       x="-0.16896"
       y="-0.22231579"
       width="1.33792"
       height="1.4446316">
      <feGaussianBlur
         inkscape:collect="always"
         stdDeviation="1.76"
         id="feGaussianBlur4397" />
    </filter>
    <clipPath
       clipPathUnits="userSpaceOnUse"
       id="clipPath4399">
      <rect
         style="fill:#ffffff;fill-opacity:1;stroke-width:0.723563"
         id="rect4401"
         width="17.000002"
         height="17.000002"
         x="24.000004"
         y="31"
         ry="3" />
    </clipPath>
    <clipPath
       clipPathUnits="userSpaceOnUse"
       id="clipPath4403">
      <rect
         style="fill:#ffffff;fill-opacity:1;stroke-width:0.723563"
         id="rect4405"
         width="17.000002"
         height="17.000002"
         x="24.000004"
         y="31"
         ry="3" />
    </clipPath>
    <clipPath
       clipPathUnits="userSpaceOnUse"
       id="clipPath4407">
      <rect
         style="fill:#ffffff;fill-opacity:1;stroke-width:0.723563"
         id="rect4409"
         width="17.000002"
         height="17.000002"
         x="24.000004"
         y="31"
         ry="3" />
    </clipPath>
    <clipPath
       clipPathUnits="userSpaceOnUse"
       id="clipPath4411">
      <rect
         style="fill:#ffffff;fill-opacity:1;stroke-width:0.723563"
         id="rect4413"
         width="17.000002"
         height="17.000002"
         x="24.000004"
         y="31"
         ry="3"
         transform="scale(-1)" />
    </clipPath>
    <clipPath
       clipPathUnits="userSpaceOnUse"
       id="clipPath4415">
      <rect
         style="fill:#ffffff;fill-opacity:1;stroke-width:0.723563"
         id="rect4417"
         width="17.000002"
         height="17.000002"
         x="24.000004"
         y="31"
         ry="3"
         transform="rotate(-90)" />
    </clipPath>
    <clipPath
       clipPathUnits="userSpaceOnUse"
       id="clipPath4419">
      <rect
         style="fill:#ffffff;fill-opacity:1;stroke-width:0.723563"
         id="rect4421"
         width="17.000002"
         height="17.000002"
         x="24.000004"
         y="31"
         ry="3" />
    </clipPath>
    <filter
       inkscape:collect="always"
       style="color-interpolation-filters:sRGB"
       id="filter4583"
       x="-0.19200001"
       y="-0.19200001"
       width="1.384"
       height="1.384">
      <feGaussianBlur
         inkscape:collect="always"
         stdDeviation="1.3600002"
         id="feGaussianBlur4585" />
    </filter>
  </defs>
  <g
     inkscape:label="Capa 1"
     inkscape:groupmode="layer"
     id="layer1">
    <path
       id="rect1084"
       style="fill:url(#linearGradient850);fill-opacity:1;stroke-width:1.53393"
       d="m 30.000359,4.00036 -23.0000002,23 v 24 c 0,4.986 4.0140002,9 9.0000002,9 h 32 c 4.986,0 9,-4.014 9,-9 V 13.000361 c 0,-4.9860015 -4.014,-9.000001 -9,-9.000001 z" />
    <rect
       style="opacity:1;fill:url(#linearGradient4265);fill-opacity:1.0;stroke-width:2"
       id="rect4177"
       width="25"
       height="19"
       x="20"
       y="31"
       ry="0.5" />
    <path
       id="rect1791-5"
       style="fill:#232323;fill-opacity:0.5;stroke-width:0.999999;filter:url(#filter3825)"
       d="m 30.000359,6.8109069 -2,1.9453126 v 2.2441415 1 3.999999 c 0,4.985999 -4.014002,9 -9,9 h -4 -1 -2.695312 l -2.0546882,2 h 6.7500002 1 4 c 4.985998,0 9,-4.014001 9,-9 v -4 -0.999999 z" />
    <path
       id="rect1791"
       style="fill:url(#linearGradient4297);fill-opacity:1;stroke-width:0.999999"
       d="M 30.000359,4.0003599 7.0003588,27.000361 h 8.9999992 1.000002 3.999999 c 4.985998,0 9,-4.014002 9,-9 v -4.000003 -0.999999 z" />
    <rect
       style="fill:#777777;fill-opacity:1;stroke-width:0.577349;stroke-linecap:round;stroke-linejoin:round"
       id="rect968-3-6"
       width="6.000001"
       height="1.9999999"
       x="44"
       y="-32.999996"
       ry="0.99999928"
       transform="rotate(90)" />
    <rect
       style="fill:#959595;fill-opacity:1;stroke-width:0.577349;stroke-linecap:round;stroke-linejoin:round"
       id="rect968-3-6-7"
       width="6.0000019"
       height="1.9999999"
       x="-34.999996"
       y="-50"
       ry="0.99999928"
       transform="scale(-1)" />
    <rect
       style="fill:url(#linearGradient9074);fill-opacity:1;stroke-width:0.853909;stroke-linecap:round;stroke-linejoin:round"
       id="rect8487"
       width="25"
       height="13.999999"
       x="20"
       y="31"
       ry="3.999999" />
    <rect
       style="fill:url(#linearGradient10344);fill-opacity:1;stroke-width:0.758283;stroke-linecap:round;stroke-linejoin:round"
       id="rect8487-9"
       width="23"
       height="12.000002"
       x="21"
       y="31.999996"
       ry="3.0000019" />
    <rect
       style="fill:url(#linearGradient10947);fill-opacity:1;stroke-width:0.661436;stroke-linecap:round;stroke-linejoin:round"
       id="rect8487-9-2"
       width="21.000002"
       height="10.000002"
       x="21.999998"
       y="33"
       ry="2.0000007" />
    <rect
       style="fill:url(#linearGradient9345);fill-opacity:1;stroke-width:0.659376"
       id="rect874-9-3-9-0-2-7-2"
       width="24.000002"
       height="10.000001"
       x="37"
       y="15"
       ry="3" />
    <rect
       style="opacity:0.4;fill:#ffffff;fill-opacity:1;stroke-width:0.659376"
       id="rect874-9-3-9-0-2-7"
       width="24.000002"
       height="10.000001"
       x="37"
       y="15"
       ry="3" />
    <rect
       style="fill:url(#linearGradient11749);fill-opacity:1;stroke-width:0.707104;stroke-linecap:round;stroke-linejoin:round"
       id="rect11722"
       width="0.99999791"
       height="6"
       x="48.000004"
       y="17"
       ry="0.49999896" />
    <path
       id="rect11722-0"
       style="fill:url(#linearGradient15787);fill-opacity:1;stroke-width:0.499997;stroke-linecap:round;stroke-linejoin:round"
       d="m 43.47461,16.999993 c -0.264907,0.01334 -0.474606,0.231655 -0.474606,0.5 v 3.5 1.474609 c -4.31e-4,0.0085 0,0.01674 0,0.0254 v 0.5 h 0.499997 0.500001 1.5 c 0.277002,0 0.500002,-0.223 0.500002,-0.5 0,-0.276998 -0.222992,-0.5 -0.500002,-0.5 h -1.5 v -1.000008 -3.5 c 0,-0.276998 -0.222992,-0.5 -0.500001,-0.5 -0.0087,0 -0.01701,-4.3e-4 -0.02532,0 z" />
    <path
       id="rect11722-8"
       style="fill:url(#linearGradient12457);fill-opacity:1;stroke-width:0.999999;stroke-linecap:round;stroke-linejoin:round"
       d="m 52,17.000001 v 6 h 2.000001 c 1.107999,0 2.000002,-0.892 2.000002,-2 0,-0.809239 -0.475798,-1.502925 -1.164065,-1.818359 0.104164,-0.204503 0.16407,-0.435563 0.16407,-0.681641 0,-0.831 -0.668999,-1.5 -1.5,-1.5 z m 1.000003,1 H 53.5 c 0.277002,0 0.500001,0.222999 0.500001,0.5 0,0.277001 -0.222992,0.5 -0.500001,0.5 h -0.499997 z m 0,2 H 53.5 54.000001 c 0.554,0 0.999999,0.446 0.999999,1 0,0.554 -0.445999,1 -0.999999,1 h -0.999998 z" />
    <rect
       style="fill:#000000;fill-opacity:0.2;stroke-width:0.723563;filter:url(#filter4583)"
       id="rect874-9-9"
       width="17.000002"
       height="17.000002"
       x="24"
       y="31"
       ry="3" />
    <g
       id="g4429">
      <rect
         style="fill:url(#linearGradient4360);fill-opacity:1;stroke-width:2;filter:url(#filter4395)"
         id="rect4177-9"
         width="25"
         height="19"
         x="20.000004"
         y="31"
         ry="0.5"
         clip-path="url(#clipPath4419)" />
      <rect
         style="fill:#777777;fill-opacity:1;stroke-width:0.577349;stroke-linecap:round;stroke-linejoin:round;filter:url(#filter4391)"
         id="rect968-3-6-2"
         width="6.000001"
         height="1.9999999"
         x="44"
         y="-33"
         ry="0.99999928"
         transform="rotate(90)"
         clip-path="url(#clipPath4415)" />
      <rect
         style="fill:#959595;fill-opacity:1;stroke-width:0.577349;stroke-linecap:round;stroke-linejoin:round;filter:url(#filter4387)"
         id="rect968-3-6-7-0"
         width="6.0000019"
         height="1.9999999"
         x="-35"
         y="-50"
         ry="0.99999928"
         transform="scale(-1)"
         clip-path="url(#clipPath4411)" />
      <rect
         style="fill:url(#linearGradient4362);fill-opacity:1;stroke-width:0.853909;stroke-linecap:round;stroke-linejoin:round;filter:url(#filter4383)"
         id="rect8487-2"
         width="25"
         height="13.999999"
         x="20.000004"
         y="31"
         ry="3.999999"
         clip-path="url(#clipPath4407)" />
      <rect
         style="fill:url(#linearGradient4364);fill-opacity:1;stroke-width:0.758283;stroke-linecap:round;stroke-linejoin:round;filter:url(#filter4379)"
         id="rect8487-9-3"
         width="23"
         height="12.000002"
         x="21.000004"
         y="31.999996"
         ry="3.0000019"
         clip-path="url(#clipPath4403)" />
      <rect
         style="fill:url(#linearGradient4366);fill-opacity:1;stroke-width:0.661436;stroke-linecap:round;stroke-linejoin:round;filter:url(#filter4375)"
         id="rect8487-9-2-7"
         width="21.000002"
         height="10.000002"
         x="22.000002"
         y="33"
         ry="2.0000007"
         clip-path="url(#clipPath4399)" />
    </g>
    <rect
       style="opacity:1;fill:#ffffff;fill-opacity:0.40000001;stroke-width:0.723563"
       id="rect874-9"
       width="17.000002"
       height="17.000002"
       x="23.999998"
       y="31"
       ry="3" />
    <path
       id="rect4619"
       style="opacity:1;fill:#000000;fill-opacity:0.982923;stroke-width:2"
       d="M 32 34 C 30.892 34 30 34.892 30 36 C 30 36.444096 30.14365 36.852424 30.386719 37.183594 L 28.794922 41.164062 C 28.551286 41.058859 28.283121 41 28 41 C 26.892 41 26 41.892 26 43 C 26 44.108 26.892 45 28 45 C 29.108 45 30 44.108 30 43 C 30 42.555904 29.85635 42.147576 29.613281 41.816406 L 31.205078 37.835938 C 31.448714 37.941141 31.716879 38 32 38 C 32.283121 38 32.551286 37.941141 32.794922 37.835938 L 34.386719 41.816406 C 34.14365 42.147576 34 42.555904 34 43 C 34 44.108 34.892 45 36 45 C 37.108 45 38 44.108 38 43 C 38 41.892 37.108 41 36 41 C 35.716879 41 35.448714 41.058859 35.205078 41.164062 L 33.613281 37.183594 C 33.85635 36.852424 34 36.444096 34 36 C 34 34.892 33.108 34 32 34 z M 32 35 C 32.554 35 33 35.446 33 36 C 33 36.554 32.554 37 32 37 C 31.446 37 31 36.554 31 36 C 31 35.446 31.446 35 32 35 z M 28 42 C 28.554 42 29 42.446 29 43 C 29 43.554 28.554 44 28 44 C 27.446 44 27 43.554 27 43 C 27 42.446 27.446 42 28 42 z M 36 42 C 36.554 42 37 42.446 37 43 C 37 43.554 36.554 44 36 44 C 35.446 44 35 43.554 35 43 C 35 42.446 35.446 42 36 42 z " />
  </g>
</svg>
