<?xml version="1.0" encoding="UTF-8" standalone="no"?>
<!-- Created with Inkscape (http://www.inkscape.org/) -->

<svg
   width="64"
   height="64"
   viewBox="0 0 64 64"
   version="1.1"
   id="svg5"
   inkscape:version="1.1.2 (0a00cf5339, 2022-02-04)"
   sodipodi:docname="font-x-generic.svg"
   xmlns:inkscape="http://www.inkscape.org/namespaces/inkscape"
   xmlns:sodipodi="http://sodipodi.sourceforge.net/DTD/sodipodi-0.dtd"
   xmlns:xlink="http://www.w3.org/1999/xlink"
   xmlns="http://www.w3.org/2000/svg"
   xmlns:svg="http://www.w3.org/2000/svg">
  <sodipodi:namedview
     id="namedview7"
     pagecolor="#ffffff"
     bordercolor="#666666"
     borderopacity="1.0"
     inkscape:pageshadow="2"
     inkscape:pageopacity="0.0"
     inkscape:pagecheckerboard="0"
     inkscape:document-units="px"
     showgrid="false"
     inkscape:zoom="6.28125"
     inkscape:cx="33.99005"
     inkscape:cy="37.651741"
     inkscape:window-width="1366"
     inkscape:window-height="699"
     inkscape:window-x="0"
     inkscape:window-y="33"
     inkscape:window-maximized="1"
     inkscape:current-layer="layer1">
    <inkscape:grid
       type="xygrid"
       id="grid1039" />
  </sodipodi:namedview>
  <defs
     id="defs2">
    <linearGradient
       inkscape:collect="always"
       id="linearGradient848">
      <stop
         style="stop-color:#eeeeee;stop-opacity:1"
         offset="0"
         id="stop844" />
      <stop
         style="stop-color:#efefef;stop-opacity:1"
         offset="1"
         id="stop846" />
    </linearGradient>
    <filter
       inkscape:collect="always"
       style="color-interpolation-filters:sRGB"
       id="filter3825"
       x="-0.20356626"
       y="-0.20921815"
       width="1.4071325"
       height="1.4184363">
      <feGaussianBlur
         inkscape:collect="always"
         stdDeviation="1.76"
         id="feGaussianBlur3827" />
    </filter>
    <linearGradient
       inkscape:collect="always"
       xlink:href="#linearGradient1070"
       id="linearGradient4297"
       x1="7.9375"
       y1="6.6145835"
       x2="5.2916665"
       y2="3.96875"
       gradientUnits="userSpaceOnUse"
       gradientTransform="matrix(3.7795276,0,0,3.7795276,3.5883709e-4,3.6001103e-4)" />
    <linearGradient
       inkscape:collect="always"
       id="linearGradient1070">
      <stop
         style="stop-color:#ffffff;stop-opacity:1"
         offset="0"
         id="stop1066" />
      <stop
         style="stop-color:#ededed;stop-opacity:1"
         offset="1"
         id="stop1068" />
    </linearGradient>
    <linearGradient
       inkscape:collect="always"
       xlink:href="#linearGradient848"
       id="linearGradient850"
       x1="16"
       y1="12"
       x2="57"
       y2="60"
       gradientUnits="userSpaceOnUse" />
    <linearGradient
       inkscape:collect="always"
       xlink:href="#linearGradient3285"
       id="linearGradient2367"
       x1="5.2916665"
       y1="12.832292"
       x2="8.4666662"
       y2="12.435416"
       gradientUnits="userSpaceOnUse"
       gradientTransform="matrix(3.7795276,0,0,3.7795276,4.0000013,8.4956055e-7)" />
    <linearGradient
       inkscape:collect="always"
       id="linearGradient3285">
      <stop
         style="stop-color:#232323;stop-opacity:1"
         offset="0"
         id="stop3281" />
      <stop
         style="stop-color:#444444;stop-opacity:1"
         offset="1"
         id="stop3283" />
    </linearGradient>
    <linearGradient
       inkscape:collect="always"
       xlink:href="#linearGradient3285"
       id="linearGradient2201"
       x1="25"
       y1="43"
       x2="29"
       y2="35"
       gradientUnits="userSpaceOnUse"
       gradientTransform="translate(4.0000013)" />
    <linearGradient
       inkscape:collect="always"
       xlink:href="#linearGradient3285"
       id="linearGradient3287"
       x1="3.96875"
       y1="8.598958"
       x2="13.229167"
       y2="8.598958"
       gradientUnits="userSpaceOnUse"
       gradientTransform="matrix(1.6197979,0,0,3.7795276,25.57143,-71.000002)" />
  </defs>
  <g
     inkscape:label="Capa 1"
     inkscape:groupmode="layer"
     id="layer1">
    <path
       id="rect1084"
       style="fill:url(#linearGradient850);fill-opacity:1;stroke-width:1.53393"
       d="m 30.000359,4.00036 -23.0000002,23 v 24 c 0,4.986 4.0140002,9 9.0000002,9 h 32 c 4.986,0 9,-4.014 9,-9 V 13.000361 c 0,-4.9860015 -4.014,-9.000001 -9,-9.000001 z" />
    <path
       id="rect1791-5"
       style="fill:#232323;fill-opacity:0.5;stroke-width:0.999999;filter:url(#filter3825)"
       d="m 30.000359,6.8109069 -2,1.9453126 v 2.2441415 1 3.999999 c 0,4.985999 -4.014002,9 -9,9 h -4 -1 -2.695312 l -2.0546882,2 h 6.7500002 1 4 c 4.985998,0 9,-4.014001 9,-9 v -4 -0.999999 z" />
    <path
       id="rect1791"
       style="fill:url(#linearGradient4297);fill-opacity:1;stroke-width:0.999999"
       d="M 30.000359,4.0003599 7.0003588,27.000361 h 8.9999992 1.000002 3.999999 c 4.985998,0 9,-4.014002 9,-9 v -4.000003 -0.999999 z" />
    <rect
       style="fill:url(#linearGradient3287);fill-opacity:1;stroke:none;stroke-width:0.654652"
       id="rect3279"
       width="15.000004"
       height="0.99999994"
       x="32"
       y="-39.000004"
       ry="0.49999997"
       transform="rotate(90)" />
    <path
       id="rect874"
       style="fill:url(#linearGradient2201);fill-opacity:1;stroke-width:0.999999;stroke-linecap:round;stroke-linejoin:round"
       d="m 29.500001,33.000001 c -1.938999,0 -3.499999,1.561 -3.499999,3.5 v 2.974607 c -4.3e-4,0.0087 0,0.01663 0,0.02532 0,0.0087 -4.3e-4,0.01701 0,0.02532 v 6.474606 h 1.003906 c -6.68e-4,-0.02948 -0.0039,-0.05817 -0.0039,-0.08787 v -5.912111 h 5 v 5.912111 c 0,0.02986 -0.0033,0.05839 -0.0039,0.08787 h 1.003879 v -6.474467 c 4.31e-4,-0.0087 0,-0.01663 0,-0.02532 0,-0.0087 4.31e-4,-0.01701 0,-0.02532 V 36.5 c 0,-1.939 -1.561,-3.5 -3.5,-3.5 z m 0,1 c 1.385001,0 2.500001,1.377008 2.500001,3.087891 v 1.912109 h -5 v -1.912109 c 0,-1.710883 1.114999,-3.087891 2.499999,-3.087891 z" />
    <rect
       style="fill:url(#linearGradient2367);fill-opacity:1;stroke-width:0.411375;stroke-linecap:round;stroke-linejoin:round"
       id="rect1929"
       width="11.000002"
       height="1.0000004"
       x="24"
       y="48"
       ry="0.50000018" />
  </g>
</svg>
