<?xml version="1.0" encoding="UTF-8" standalone="no"?>
<!-- Created with Inkscape (http://www.inkscape.org/) -->

<svg
   width="64"
   height="64"
   viewBox="0 0 64 64"
   version="1.1"
   id="svg5"
   inkscape:version="1.1.1 (3bf5ae0d25, 2021-09-20, custom)"
   sodipodi:docname="package-x-generic.svg"
   xmlns:inkscape="http://www.inkscape.org/namespaces/inkscape"
   xmlns:sodipodi="http://sodipodi.sourceforge.net/DTD/sodipodi-0.dtd"
   xmlns:xlink="http://www.w3.org/1999/xlink"
   xmlns="http://www.w3.org/2000/svg"
   xmlns:svg="http://www.w3.org/2000/svg">
  <sodipodi:namedview
     id="namedview7"
     pagecolor="#ffffff"
     bordercolor="#666666"
     borderopacity="1.0"
     inkscape:pageshadow="2"
     inkscape:pageopacity="0.0"
     inkscape:pagecheckerboard="0"
     inkscape:document-units="px"
     showgrid="false"
     inkscape:zoom="6.28125"
     inkscape:cx="24.835821"
     inkscape:cy="37.572139"
     inkscape:window-width="1366"
     inkscape:window-height="692"
     inkscape:window-x="0"
     inkscape:window-y="40"
     inkscape:window-maximized="1"
     inkscape:current-layer="layer1">
    <inkscape:grid
       type="xygrid"
       id="grid1039" />
  </sodipodi:namedview>
  <defs
     id="defs2">
    <linearGradient
       inkscape:collect="always"
       id="linearGradient848">
      <stop
         style="stop-color:#ea9b17;stop-opacity:1"
         offset="0"
         id="stop844" />
      <stop
         style="stop-color:#e6d42d;stop-opacity:1"
         offset="1"
         id="stop846" />
    </linearGradient>
    <filter
       inkscape:collect="always"
       style="color-interpolation-filters:sRGB"
       id="filter3825"
       x="-0.20356626"
       y="-0.20921815"
       width="1.4071325"
       height="1.4184363">
      <feGaussianBlur
         inkscape:collect="always"
         stdDeviation="1.76"
         id="feGaussianBlur3827" />
    </filter>
    <linearGradient
       inkscape:collect="always"
       xlink:href="#linearGradient1070"
       id="linearGradient4297"
       x1="7.9375"
       y1="6.6145835"
       x2="5.2916665"
       y2="3.96875"
       gradientUnits="userSpaceOnUse"
       gradientTransform="matrix(3.7795276,0,0,3.7795276,3.5883709e-4,3.6001103e-4)" />
    <linearGradient
       inkscape:collect="always"
       id="linearGradient1070">
      <stop
         style="stop-color:#edd60d;stop-opacity:1"
         offset="0"
         id="stop1066" />
      <stop
         style="stop-color:#e3ae15;stop-opacity:1"
         offset="1"
         id="stop1068" />
    </linearGradient>
    <linearGradient
       inkscape:collect="always"
       xlink:href="#linearGradient848"
       id="linearGradient850"
       x1="16"
       y1="12"
       x2="57"
       y2="60"
       gradientUnits="userSpaceOnUse" />
    <linearGradient
       inkscape:collect="always"
       xlink:href="#linearGradient1652"
       id="linearGradient1654"
       x1="7.9375"
       y1="8.9958334"
       x2="9.5249996"
       y2="11.90625"
       gradientUnits="userSpaceOnUse"
       gradientTransform="matrix(3.7795275,0,0,3.7795275,9.5561523e-7,1.9673584e-6)" />
    <linearGradient
       inkscape:collect="always"
       id="linearGradient1652">
      <stop
         style="stop-color:#ffffff;stop-opacity:1"
         offset="0"
         id="stop1648" />
      <stop
         style="stop-color:#ebebeb;stop-opacity:1"
         offset="1"
         id="stop1650" />
    </linearGradient>
    <linearGradient
       inkscape:collect="always"
       xlink:href="#linearGradient1652"
       id="linearGradient3554"
       x1="7.9375"
       y1="11.377084"
       x2="8.4666662"
       y2="11.90625"
       gradientUnits="userSpaceOnUse"
       gradientTransform="matrix(3.7795276,0,0,3.7795276,9.5561523e-7,1.9673584e-6)" />
    <linearGradient
       inkscape:collect="always"
       xlink:href="#linearGradient1652"
       id="linearGradient3964"
       gradientUnits="userSpaceOnUse"
       x1="7.9375"
       y1="11.377084"
       x2="8.4666662"
       y2="11.90625"
       gradientTransform="matrix(3.7795276,0,0,3.7795276,3.0000031,3.0000049)" />
    <linearGradient
       inkscape:collect="always"
       xlink:href="#linearGradient1652"
       id="linearGradient4009"
       gradientUnits="userSpaceOnUse"
       gradientTransform="matrix(3.7795276,0,0,3.7795276,2.7556152e-6,6.0000066)"
       x1="7.9375"
       y1="11.377084"
       x2="8.4666662"
       y2="11.90625" />
    <linearGradient
       inkscape:collect="always"
       xlink:href="#linearGradient3285"
       id="linearGradient1061"
       x1="8.2020836"
       y1="9.5249996"
       x2="9.260417"
       y2="8.7312498"
       gradientUnits="userSpaceOnUse"
       gradientTransform="matrix(3.7795276,0,0,3.7795276,9.5561523e-7,1.9673584e-6)" />
    <linearGradient
       inkscape:collect="always"
       id="linearGradient3285">
      <stop
         style="stop-color:#232323;stop-opacity:1"
         offset="0"
         id="stop3281" />
      <stop
         style="stop-color:#444444;stop-opacity:1"
         offset="1"
         id="stop3283" />
    </linearGradient>
  </defs>
  <g
     inkscape:label="Capa 1"
     inkscape:groupmode="layer"
     id="layer1">
    <path
       id="rect1084"
       style="fill:url(#linearGradient850);fill-opacity:1;stroke-width:1.53393"
       d="m 30.000359,4.00036 -23.0000002,23 v 24 c 0,4.986 4.0140002,9 9.0000002,9 h 32 c 4.986,0 9,-4.014 9,-9 V 13.000361 c 0,-4.9860015 -4.014,-9.000001 -9,-9.000001 z" />
    <path
       id="rect1791-5"
       style="fill:#732121;fill-opacity:0.5;stroke-width:0.999999;filter:url(#filter3825)"
       d="m 30.000359,6.8109069 -2,1.9453126 v 2.2441415 1 3.999999 c 0,4.985999 -4.014002,9 -9,9 h -4 -1 -2.695312 l -2.0546882,2 h 6.7500002 1 4 c 4.985998,0 9,-4.014001 9,-9 v -4 -0.999999 z" />
    <path
       id="rect1791"
       style="fill:url(#linearGradient4297);fill-opacity:1;stroke-width:0.999999"
       d="M 30.000359,4.0003599 7.0003588,27.000361 h 8.9999992 1.000002 3.999999 c 4.985998,0 9,-4.014002 9,-9 v -4.000003 -0.999999 z" />
    <rect
       style="fill:url(#linearGradient1061);fill-opacity:1;stroke-width:0.999999;stroke-linecap:round;stroke-linejoin:round"
       id="rect874"
       width="3.9999998"
       height="5"
       x="30.000002"
       y="32"
       ry="1.0000017" />
    <path
       id="rect1547"
       style="fill:url(#linearGradient1654);fill-opacity:1;stroke-width:0.999999;stroke-linecap:round;stroke-linejoin:round"
       d="m 31.406251,34.000002 c -0.227069,0.01144 -0.40625,0.197726 -0.40625,0.427734 v 0.572266 h -1 c -0.553999,0 -1,0.446001 -1,1 v 5 c 0,0.553999 0.446001,1 1,1 h 4 c 0.553999,0 1,-0.446001 1,-1 v -5 c 0,-0.553999 -0.446001,-1 -1,-1 h -1 v -0.572266 c 0,-0.237428 -0.190306,-0.427734 -0.427734,-0.427734 h -1.144532 c -0.0074,0 -0.01416,-3.69e-4 -0.02148,0 z m -1,4 c 0.0073,-3.69e-4 0.01406,0 0.02148,0 h 3.144532 c 0.237432,0 0.427738,0.190306 0.427738,0.427734 v 2.144532 c 0,0.237428 -0.190306,0.427734 -0.427734,0.427734 h -3.144532 c -0.237428,0 -0.427734,-0.190306 -0.427734,-0.427734 v -2.144532 c 0,-0.230008 0.179181,-0.416298 0.40625,-0.427734 z" />
    <rect
       style="fill:url(#linearGradient3554);fill-opacity:1;stroke-width:0.999999;stroke-linecap:round;stroke-linejoin:round"
       id="rect3466"
       width="3"
       height="1.9999999"
       x="29"
       y="43"
       ry="0.49999997" />
    <rect
       style="fill:url(#linearGradient3964);fill-opacity:1;stroke-width:0.999999;stroke-linecap:round;stroke-linejoin:round"
       id="rect3466-3"
       width="3"
       height="1.9999999"
       x="32.000004"
       y="46"
       ry="0.49999997" />
    <rect
       style="fill:url(#linearGradient4009);fill-opacity:1;stroke-width:0.999999;stroke-linecap:round;stroke-linejoin:round"
       id="rect3466-3-6"
       width="3"
       height="1.9999999"
       x="29.000002"
       y="49"
       ry="0.49999997" />
  </g>
</svg>
