<?xml version="1.0" encoding="UTF-8" standalone="no"?>
<!-- Created with Inkscape (http://www.inkscape.org/) -->

<svg
   width="64"
   height="64"
   viewBox="0 0 64 64"
   version="1.1"
   id="svg5"
   inkscape:version="1.1.2 (0a00cf5339, 2022-02-04)"
   sodipodi:docname="x-office-drawing-template.svg"
   xmlns:inkscape="http://www.inkscape.org/namespaces/inkscape"
   xmlns:sodipodi="http://sodipodi.sourceforge.net/DTD/sodipodi-0.dtd"
   xmlns:xlink="http://www.w3.org/1999/xlink"
   xmlns="http://www.w3.org/2000/svg"
   xmlns:svg="http://www.w3.org/2000/svg">
  <sodipodi:namedview
     id="namedview7"
     pagecolor="#ffffff"
     bordercolor="#666666"
     borderopacity="1.0"
     inkscape:pageshadow="2"
     inkscape:pageopacity="0.0"
     inkscape:pagecheckerboard="0"
     inkscape:document-units="px"
     showgrid="false"
     inkscape:zoom="6.28125"
     inkscape:cx="41.791045"
     inkscape:cy="37.492537"
     inkscape:window-width="1366"
     inkscape:window-height="699"
     inkscape:window-x="0"
     inkscape:window-y="33"
     inkscape:window-maximized="1"
     inkscape:current-layer="layer1">
    <inkscape:grid
       type="xygrid"
       id="grid1039" />
  </sodipodi:namedview>
  <defs
     id="defs2">
    <linearGradient
       inkscape:collect="always"
       id="linearGradient925">
      <stop
         style="stop-color:#eeeeee;stop-opacity:1"
         offset="0"
         id="stop921" />
      <stop
         style="stop-color:#efefef;stop-opacity:1"
         offset="1"
         id="stop923" />
    </linearGradient>
    <linearGradient
       inkscape:collect="always"
       id="linearGradient848">
      <stop
         style="stop-color:#eeeeee;stop-opacity:1"
         offset="0"
         id="stop844" />
      <stop
         style="stop-color:#efefef;stop-opacity:0.98854536"
         offset="1"
         id="stop846" />
    </linearGradient>
    <filter
       inkscape:collect="always"
       style="color-interpolation-filters:sRGB"
       id="filter3825"
       x="-0.20356626"
       y="-0.20921815"
       width="1.4071325"
       height="1.4184363">
      <feGaussianBlur
         inkscape:collect="always"
         stdDeviation="1.76"
         id="feGaussianBlur3827" />
    </filter>
    <linearGradient
       inkscape:collect="always"
       xlink:href="#linearGradient1070"
       id="linearGradient4297"
       x1="7.9375"
       y1="6.6145835"
       x2="5.2916665"
       y2="3.96875"
       gradientUnits="userSpaceOnUse"
       gradientTransform="matrix(3.7795276,0,0,3.7795276,3.5883709e-4,3.6001103e-4)" />
    <linearGradient
       inkscape:collect="always"
       id="linearGradient1070">
      <stop
         style="stop-color:#ffffff;stop-opacity:1"
         offset="0"
         id="stop1066" />
      <stop
         style="stop-color:#ededed;stop-opacity:1"
         offset="1"
         id="stop1068" />
    </linearGradient>
    <linearGradient
       inkscape:collect="always"
       xlink:href="#linearGradient925"
       id="linearGradient850"
       x1="16"
       y1="12"
       x2="57"
       y2="60"
       gradientUnits="userSpaceOnUse" />
    <linearGradient
       inkscape:collect="always"
       xlink:href="#linearGradient3285"
       id="linearGradient3768"
       gradientUnits="userSpaceOnUse"
       gradientTransform="matrix(2.15973,0,0,3.7795276,9.4285706,16.000006)"
       x1="3.96875"
       y1="8.598958"
       x2="13.229167"
       y2="8.598958" />
    <linearGradient
       inkscape:collect="always"
       id="linearGradient3285">
      <stop
         style="stop-color:#232323;stop-opacity:1"
         offset="0"
         id="stop3281" />
      <stop
         style="stop-color:#444444;stop-opacity:1"
         offset="1"
         id="stop3283" />
    </linearGradient>
    <linearGradient
       inkscape:collect="always"
       xlink:href="#linearGradient3370"
       id="linearGradient4442"
       x1="10.318749"
       y1="10.847917"
       x2="11.906249"
       y2="10.847917"
       gradientUnits="userSpaceOnUse"
       gradientTransform="scale(3.7795276)" />
    <linearGradient
       inkscape:collect="always"
       id="linearGradient3370">
      <stop
         style="stop-color:#000000;stop-opacity:1"
         offset="0"
         id="stop3366" />
      <stop
         style="stop-color:#444444;stop-opacity:1"
         offset="1"
         id="stop3368" />
    </linearGradient>
    <linearGradient
       inkscape:collect="always"
       xlink:href="#linearGradient3285"
       id="linearGradient4219"
       x1="7.4083333"
       y1="9.921875"
       x2="11.90625"
       y2="9.921875"
       gradientUnits="userSpaceOnUse"
       gradientTransform="matrix(2.2232519,0,0,2.325863,1.5294094,13.923078)" />
    <linearGradient
       inkscape:collect="always"
       xlink:href="#linearGradient1925"
       id="linearGradient1927"
       x1="8.2020836"
       y1="9.5249996"
       x2="8.7312498"
       y2="8.4666662"
       gradientUnits="userSpaceOnUse"
       gradientTransform="scale(3.7795276)" />
    <linearGradient
       inkscape:collect="always"
       id="linearGradient1925">
      <stop
         style="stop-color:#834d1f;stop-opacity:1"
         offset="0"
         id="stop1921" />
      <stop
         style="stop-color:#a6730c;stop-opacity:1"
         offset="1"
         id="stop1923" />
    </linearGradient>
    <linearGradient
       inkscape:collect="always"
       xlink:href="#linearGradient3042"
       id="linearGradient1489"
       x1="8.2020836"
       y1="10.054167"
       x2="8.7312498"
       y2="10.847917"
       gradientUnits="userSpaceOnUse"
       gradientTransform="scale(3.7795276)" />
    <linearGradient
       inkscape:collect="always"
       id="linearGradient3042">
      <stop
         style="stop-color:#fefefe;stop-opacity:1"
         offset="0"
         id="stop3038" />
      <stop
         style="stop-color:#e5e5e5;stop-opacity:1"
         offset="1"
         id="stop3040" />
    </linearGradient>
    <linearGradient
       inkscape:collect="always"
       xlink:href="#linearGradient3370"
       id="linearGradient2481"
       x1="8.4666662"
       y1="10.583333"
       x2="8.4666662"
       y2="12.170834"
       gradientUnits="userSpaceOnUse"
       gradientTransform="scale(3.7795276)" />
    <linearGradient
       inkscape:collect="always"
       xlink:href="#linearGradient3285"
       id="linearGradient2209"
       gradientUnits="userSpaceOnUse"
       x1="8.2020836"
       y1="10.054167"
       x2="8.7312498"
       y2="10.847917"
       gradientTransform="matrix(3.7795276,0,0,3.7795276,3.4335785e-6,1.0000004)" />
    <linearGradient
       inkscape:collect="always"
       xlink:href="#linearGradient848"
       id="linearGradient1029"
       x1="14"
       y1="39.5"
       x2="54"
       y2="39.5"
       gradientUnits="userSpaceOnUse"
       gradientTransform="matrix(1,0,0,1.030303,0,-0.6969697)" />
    <linearGradient
       inkscape:collect="always"
       xlink:href="#linearGradient3285"
       id="linearGradient1487"
       gradientUnits="userSpaceOnUse"
       gradientTransform="matrix(2.15973,0,0,3.7795276,9.4285691,16.000006)"
       x1="3.96875"
       y1="8.598958"
       x2="13.229167"
       y2="8.598958" />
    <linearGradient
       inkscape:collect="always"
       xlink:href="#linearGradient1925"
       id="linearGradient1490"
       gradientUnits="userSpaceOnUse"
       gradientTransform="matrix(3.7795276,0,0,3.7795276,-1.9073486e-6,0)"
       x1="8.2020836"
       y1="9.5249996"
       x2="8.7312498"
       y2="8.4666662" />
    <linearGradient
       inkscape:collect="always"
       xlink:href="#linearGradient3042"
       id="linearGradient1492"
       gradientUnits="userSpaceOnUse"
       gradientTransform="matrix(3.7795276,0,0,3.7795276,-1.9073486e-6,0)"
       x1="8.2020836"
       y1="10.054167"
       x2="8.7312498"
       y2="10.847917" />
    <linearGradient
       inkscape:collect="always"
       xlink:href="#linearGradient3370"
       id="linearGradient1494"
       gradientUnits="userSpaceOnUse"
       gradientTransform="matrix(3.7795276,0,0,3.7795276,-1.9073486e-6,0)"
       x1="8.4666662"
       y1="10.583333"
       x2="8.4666662"
       y2="12.170834" />
    <linearGradient
       inkscape:collect="always"
       xlink:href="#linearGradient3370"
       id="linearGradient1496"
       gradientUnits="userSpaceOnUse"
       gradientTransform="matrix(3.7795276,0,0,3.7795276,-1.9073486e-6,0)"
       x1="10.318749"
       y1="10.847917"
       x2="11.906249"
       y2="10.847917" />
    <filter
       inkscape:collect="always"
       style="color-interpolation-filters:sRGB"
       id="filter1605"
       x="-3.5520013"
       y="-0.8879998"
       width="8.1040026"
       height="2.7759996">
      <feGaussianBlur
         inkscape:collect="always"
         stdDeviation="2.96"
         id="feGaussianBlur1607" />
    </filter>
    <filter
       inkscape:collect="always"
       style="color-interpolation-filters:sRGB"
       id="filter1609"
       x="-1.184"
       y="-0.78933334"
       width="3.368"
       height="2.5786667">
      <feGaussianBlur
         inkscape:collect="always"
         stdDeviation="2.96"
         id="feGaussianBlur1611" />
    </filter>
    <filter
       inkscape:collect="always"
       style="color-interpolation-filters:sRGB"
       id="filter1613"
       x="-3.5520013"
       y="-1.7760001"
       width="8.1040026"
       height="4.5520003">
      <feGaussianBlur
         inkscape:collect="always"
         stdDeviation="2.96"
         id="feGaussianBlur1615" />
    </filter>
    <filter
       inkscape:collect="always"
       style="color-interpolation-filters:sRGB"
       id="filter1617"
       x="-1.184"
       y="-1.184"
       width="3.368"
       height="3.368">
      <feGaussianBlur
         inkscape:collect="always"
         stdDeviation="2.96"
         id="feGaussianBlur1619" />
    </filter>
    <filter
       inkscape:collect="always"
       style="color-interpolation-filters:sRGB"
       id="filter1621"
       x="-0.35519997"
       y="-7.1040005"
       width="1.7103999"
       height="15.208001">
      <feGaussianBlur
         inkscape:collect="always"
         stdDeviation="2.96"
         id="feGaussianBlur1623" />
    </filter>
    <filter
       inkscape:collect="always"
       style="color-interpolation-filters:sRGB"
       id="filter1625"
       x="-0.1776"
       y="-0.20894118"
       width="1.3552"
       height="1.4178824">
      <feGaussianBlur
         inkscape:collect="always"
         stdDeviation="2.96"
         id="feGaussianBlur1627" />
    </filter>
    <clipPath
       clipPathUnits="userSpaceOnUse"
       id="clipPath1629">
      <path
         id="path1631"
         style="fill:#000000;fill-opacity:1;stroke:none;stroke-width:0.999999px;stroke-linecap:butt;stroke-linejoin:miter;stroke-opacity:1"
         d="M 54,23.000001 14,56.999999 H 54 Z M 50,32 V 53.000001 H 26 Z"
         sodipodi:nodetypes="cccccccc" />
    </clipPath>
    <clipPath
       clipPathUnits="userSpaceOnUse"
       id="clipPath1633">
      <path
         id="path1635"
         style="fill:#000000;fill-opacity:1;stroke:none;stroke-width:0.999999px;stroke-linecap:butt;stroke-linejoin:miter;stroke-opacity:1"
         d="M 54,23.000001 14,56.999999 H 54 Z M 50,32 V 53.000001 H 26 Z"
         sodipodi:nodetypes="cccccccc" />
    </clipPath>
    <clipPath
       clipPathUnits="userSpaceOnUse"
       id="clipPath1637">
      <path
         id="path1639"
         style="fill:#000000;fill-opacity:1;stroke:none;stroke-width:0.999999px;stroke-linecap:butt;stroke-linejoin:miter;stroke-opacity:1"
         d="M 54,23.000001 14,56.999999 H 54 Z M 50,32 V 53.000001 H 26 Z"
         sodipodi:nodetypes="cccccccc" />
    </clipPath>
    <clipPath
       clipPathUnits="userSpaceOnUse"
       id="clipPath1641">
      <path
         id="path1643"
         style="fill:#000000;fill-opacity:1;stroke:none;stroke-width:0.999999px;stroke-linecap:butt;stroke-linejoin:miter;stroke-opacity:1"
         d="M 54,23.000001 14,56.999999 H 54 Z M 50,32 V 53.000001 H 26 Z"
         sodipodi:nodetypes="cccccccc" />
    </clipPath>
    <clipPath
       clipPathUnits="userSpaceOnUse"
       id="clipPath1645">
      <path
         id="path1647"
         style="fill:#000000;fill-opacity:1;stroke:none;stroke-width:0.999999px;stroke-linecap:butt;stroke-linejoin:miter;stroke-opacity:1"
         d="M 54,23.000001 14,56.999999 H 54 Z M 50,32 V 53.000001 H 26 Z"
         sodipodi:nodetypes="cccccccc" />
    </clipPath>
    <clipPath
       clipPathUnits="userSpaceOnUse"
       id="clipPath1649">
      <path
         id="path1651"
         style="fill:#000000;fill-opacity:1;stroke:none;stroke-width:0.999999px;stroke-linecap:butt;stroke-linejoin:miter;stroke-opacity:1"
         d="M 54,23.000001 14,56.999999 H 54 Z M 50,32 V 53.000001 H 26 Z"
         sodipodi:nodetypes="cccccccc" />
    </clipPath>
    <filter
       inkscape:collect="always"
       style="color-interpolation-filters:sRGB"
       id="filter1966"
       x="-0.044400001"
       y="-0.052235298"
       width="1.0888"
       height="1.1044706">
      <feGaussianBlur
         inkscape:collect="always"
         stdDeviation="0.73999998"
         id="feGaussianBlur1968" />
    </filter>
  </defs>
  <g
     inkscape:label="Capa 1"
     inkscape:groupmode="layer"
     id="layer1">
    <path
       id="rect1084"
       style="fill:url(#linearGradient850);fill-opacity:1;stroke-width:1.53393"
       d="m 30.000359,4.00036 -23.0000002,23 v 24 c 0,4.986 4.0140002,9 9.0000002,9 h 32 c 4.986,0 9,-4.014 9,-9 V 13.000361 c 0,-4.9860015 -4.014,-9.000001 -9,-9.000001 z" />
    <path
       id="rect1791-5"
       style="fill:#232323;fill-opacity:0.5;stroke-width:0.999999;filter:url(#filter3825)"
       d="m 30.000359,6.8109069 -2,1.9453126 v 2.2441415 1 3.999999 c 0,4.985999 -4.014002,9 -9,9 h -4 -1 -2.695312 l -2.0546882,2 h 6.7500002 1 4 c 4.985998,0 9,-4.014001 9,-9 v -4 -0.999999 z" />
    <path
       id="rect1791"
       style="fill:url(#linearGradient4297);fill-opacity:1;stroke-width:0.999999"
       d="M 30.000359,4.0003599 7.0003588,27.000361 h 8.9999992 1.000002 3.999999 c 4.985998,0 9,-4.014002 9,-9 v -4.000003 -0.999999 z" />
    <rect
       style="fill:url(#linearGradient3768);fill-opacity:1;stroke:none;stroke-width:0.755928"
       id="rect3279-7-3-6-1"
       width="20.000002"
       height="0.99999994"
       x="18"
       y="48"
       ry="0.49999997" />
    <path
       id="rect4112"
       style="fill:url(#linearGradient4219);fill-opacity:1;stroke:none;stroke-width:0.601655;stroke-linecap:round;stroke-linejoin:round"
       d="M 19.845703,33.000001 C 18.822934,33.000001 18,33.822935 18,34.845704 v 4.308594 c 0,1.022769 0.822934,1.845703 1.845703,1.845703 h 6.308594 C 27.177066,41.000001 28,40.177067 28,39.154298 v -4.308594 c 0,-1.022769 -0.822934,-1.845703 -1.845703,-1.845703 z m 0.539063,1 h 5.230468 C 26.382311,34.000001 27,34.61769 27,35.384767 v 3.230468 c 0,0.767077 -0.617689,1.384766 -1.384766,1.384766 H 20.384766 C 19.617689,40.000001 19,39.382312 19,38.615235 v -3.230468 c 0,-0.767077 0.617689,-1.384766 1.384766,-1.384766 z" />
    <rect
       style="fill:url(#linearGradient1927);fill-opacity:1;stroke-width:0.195271;stroke-linecap:round;stroke-linejoin:round"
       id="rect874"
       width="1.9999993"
       height="8.0000019"
       x="31.000002"
       y="32"
       ry="0.99999964" />
    <rect
       style="fill:url(#linearGradient1489);fill-opacity:1;stroke-width:0.138077;stroke-linecap:round;stroke-linejoin:round"
       id="rect874-3"
       width="1.9999993"
       height="3.9999998"
       x="31.000002"
       y="38"
       ry="0.99999952" />
    <path
       id="rect874-3-5"
       style="fill:url(#linearGradient2209);fill-opacity:1;stroke-width:0.138077;stroke-linecap:round;stroke-linejoin:round"
       d="M 31.974609,39.000001 C 31.432669,39.013641 31,39.454658 31,40.000001 v 0.974609 c 0.01364,-0.54194 0.454657,-0.974609 1,-0.974609 0.545343,0 0.986362,0.432669 1,0.974609 v -0.974609 c 0,-0.554 -0.446,-1 -1,-1 -0.0087,0 -0.01679,-2.16e-4 -0.02539,0 z" />
    <path
       style="fill:url(#linearGradient2481);fill-opacity:1;stroke:none;stroke-width:0.999999px;stroke-linecap:butt;stroke-linejoin:miter;stroke-opacity:1"
       d="m 32,40 c -2,0 -3,2.000001 -3,3 0,2.000001 2,4.000003 2,6 2,-1.999997 4.000001,-3.999999 4,-6 10e-7,-0.999999 -1,-3 -3,-3 z"
       id="path2393"
       sodipodi:nodetypes="ccccc" />
    <path
       id="rect4415"
       style="fill:url(#linearGradient4442);fill-opacity:1;stroke:none;stroke-width:0.999999;stroke-linecap:round;stroke-linejoin:round"
       d="m 42,38.000001 c -1.662,0 -3,1.338 -3,3 0,1.662 1.338,3 3,3 1.662,0 3,-1.338 3,-3 0,-1.662 -1.338,-3 -3,-3 z m -0.05273,1 c 0.0172,-4.33e-4 0.03542,0 0.05273,0 1.108,0 2,0.892 2,2 0,1.108 -0.892,2 -2,2 -1.108,0 -2,-0.892 -2,-2 0,-1.090687 0.863385,-1.972723 1.947266,-2 z" />
    <path
       id="path885-6-0-3-0-3-0"
       style="fill:#000000;fill-opacity:0.2;stroke:none;stroke-width:0.999999px;stroke-linecap:butt;stroke-linejoin:miter;stroke-opacity:1;filter:url(#filter1966)"
       d="M 54,23.000001 14,56.999999 H 54 Z M 50,32 V 53.000001 H 26 Z"
       sodipodi:nodetypes="cccccccc" />
    <g
       id="g1659">
      <rect
         style="fill:url(#linearGradient1029);fill-opacity:1;stroke-width:2.03008;filter:url(#filter1625)"
         id="rect1021"
         width="40"
         height="34"
         x="14"
         y="23"
         clip-path="url(#clipPath1649)" />
      <rect
         style="fill:url(#linearGradient1487);fill-opacity:1;stroke:none;stroke-width:0.755928;filter:url(#filter1621)"
         id="rect3279-7-3-6-1-4"
         width="20.000002"
         height="0.99999994"
         x="17.999998"
         y="48"
         ry="0.49999997"
         clip-path="url(#clipPath1645)" />
      <rect
         style="fill:url(#linearGradient1490);fill-opacity:1;stroke-width:0.195271;stroke-linecap:round;stroke-linejoin:round;filter:url(#filter1605)"
         id="rect874-7"
         width="1.9999993"
         height="8.0000019"
         x="31"
         y="32"
         ry="0.99999964"
         clip-path="url(#clipPath1641)" />
      <rect
         style="fill:url(#linearGradient1492);fill-opacity:1;stroke-width:0.138077;stroke-linecap:round;stroke-linejoin:round;filter:url(#filter1613)"
         id="rect874-3-8"
         width="1.9999993"
         height="3.9999998"
         x="31"
         y="38"
         ry="0.99999952"
         clip-path="url(#clipPath1637)" />
      <path
         style="fill:url(#linearGradient1494);fill-opacity:1;stroke:none;stroke-width:0.999999px;stroke-linecap:butt;stroke-linejoin:miter;stroke-opacity:1;filter:url(#filter1609)"
         d="m 31.999998,40 c -2,0 -3,2.000001 -3,3 0,2.000001 2,4.000003 2,6 2,-1.999997 4.000001,-3.999999 4,-6 1e-6,-0.999999 -1,-3 -3,-3 z"
         id="path2393-4"
         sodipodi:nodetypes="ccccc"
         clip-path="url(#clipPath1633)" />
      <path
         id="rect4415-5"
         style="fill:url(#linearGradient1496);fill-opacity:1;stroke:none;stroke-width:0.999999;stroke-linecap:round;stroke-linejoin:round;filter:url(#filter1617)"
         d="m 41.999998,38.000001 c -1.662,0 -3,1.338 -3,3 0,1.662 1.338,3 3,3 1.662,0 3,-1.338 3,-3 0,-1.662 -1.338,-3 -3,-3 z m -0.05273,1 c 0.0172,-4.33e-4 0.03542,0 0.05273,0 1.108,0 2,0.892 2,2 0,1.108 -0.892,2 -2,2 -1.108,0 -2,-0.892 -2,-2 0,-1.090687 0.863385,-1.972723 1.947266,-2 z"
         clip-path="url(#clipPath1629)" />
    </g>
    <path
       id="path885-6-0-3-0-3"
       style="fill:#ffffff;fill-opacity:0.4;stroke:none;stroke-width:0.999999px;stroke-linecap:butt;stroke-linejoin:miter;stroke-opacity:1"
       d="M 54,23.000001 14,56.999999 H 54 Z M 50,32 V 53.000001 H 26 Z"
       sodipodi:nodetypes="cccccccc" />
  </g>
</svg>
