<?xml version="1.0" encoding="UTF-8" standalone="no"?>
<!-- Created with Inkscape (http://www.inkscape.org/) -->

<svg
   width="16"
   height="16"
   viewBox="0 0 16 16"
   version="1.1"
   id="svg5"
   inkscape:version="1.1.1 (3bf5ae0d25, 2021-09-20, custom)"
   sodipodi:docname="drive-harddisk-symbolic.svg"
   xmlns:inkscape="http://www.inkscape.org/namespaces/inkscape"
   xmlns:sodipodi="http://sodipodi.sourceforge.net/DTD/sodipodi-0.dtd"
   xmlns="http://www.w3.org/2000/svg"
   xmlns:svg="http://www.w3.org/2000/svg">
  <sodipodi:namedview
     id="namedview7"
     pagecolor="#ffffff"
     bordercolor="#666666"
     borderopacity="1.0"
     inkscape:pageshadow="2"
     inkscape:pageopacity="0.0"
     inkscape:pagecheckerboard="0"
     inkscape:document-units="px"
     showgrid="false"
     inkscape:zoom="12.219689"
     inkscape:cx="9.2064536"
     inkscape:cy="9.0018658"
     inkscape:window-width="1366"
     inkscape:window-height="680"
     inkscape:window-x="0"
     inkscape:window-y="0"
     inkscape:window-maximized="1"
     inkscape:current-layer="layer2">
    <inkscape:grid
       type="xygrid"
       id="grid824" />
  </sodipodi:namedview>
  <defs
     id="defs2" />
  <g
     inkscape:label="Base"
     inkscape:groupmode="layer"
     id="layer1" />
  <g
     inkscape:groupmode="layer"
     id="layer2"
     inkscape:label="ícono">
    <path
       id="rect951"
       style="fill:#000000;stroke-width:1.03775"
       d="M 4 0 C 2.338 0 1 1.338 1 3 L 1 13 C 1 14.662 2.338 16 4 16 L 12 16 C 13.662 16 15 14.662 15 13 L 15 3 C 15 1.338 13.662 0 12 0 L 4 0 z M 5 1 L 11 1 C 12.662 1 14 2.338 14 4 L 14 12 C 14 13.662 12.662 15 11 15 L 5 15 C 3.338 15 2 13.662 2 12 L 2 4 C 2 2.338 3.338 1 5 1 z " />
    <path
       id="rect1281"
       style="fill:#000000;stroke-width:1.33333"
       d="M 8 3 C 5.784 3 4 4.784 4 7 C 4 7.8511599 4.2650664 8.6380758 4.7148438 9.2851562 L 5.4375 8.5625 C 5.1607448 8.1079441 5 7.5732587 5 7 C 5 5.338 6.338 4 8 4 C 9.662 4 11 5.338 11 7 C 11 8.0887413 10.425799 9.0368826 9.5625 9.5625 L 10 10 L 10.285156 10.285156 C 11.322818 9.5642635 12 8.3647002 12 7 C 12 4.784 10.216 3 8 3 z " />
    <rect
       style="fill:#000000"
       id="rect1484"
       width="4"
       height="1"
       x="8"
       y="12" />
    <path
       id="rect1484-6-5"
       style="fill:#000000;stroke-width:0.707106"
       d="M 4 10 L 4 11 L 4 12 L 4 13 L 5 13 L 6 13 L 7 13 L 7 12 L 6 12 L 6 11 L 5 11 L 5 10 L 4 10 z " />
    <path
       style="stroke:none;stroke-width:1px;stroke-linecap:butt;stroke-linejoin:miter;stroke-opacity:1"
       d="M 5,11 8,8 9,9 6,12 Z"
       id="path1654"
       sodipodi:nodetypes="ccccc" />
    <rect
       style="fill:#000000;stroke-width:0.333332"
       id="rect1281-9"
       width="2"
       height="2"
       x="7"
       y="6"
       ry="1" />
  </g>
</svg>
