<?xml version="1.0" encoding="UTF-8" standalone="no"?>
<!-- Created with Inkscape (http://www.inkscape.org/) -->

<svg
   width="16"
   height="16"
   viewBox="0 0 16 16"
   version="1.1"
   id="svg5"
   inkscape:version="1.1.2 (0a00cf5339, 2022-02-04)"
   sodipodi:docname="org.xfce.settings.accessibility-symbolic.svg"
   xmlns:inkscape="http://www.inkscape.org/namespaces/inkscape"
   xmlns:sodipodi="http://sodipodi.sourceforge.net/DTD/sodipodi-0.dtd"
   xmlns="http://www.w3.org/2000/svg"
   xmlns:svg="http://www.w3.org/2000/svg">
  <sodipodi:namedview
     id="namedview7"
     pagecolor="#ffffff"
     bordercolor="#666666"
     borderopacity="1.0"
     inkscape:pageshadow="2"
     inkscape:pageopacity="0.0"
     inkscape:pagecheckerboard="0"
     inkscape:document-units="px"
     showgrid="false"
     inkscape:zoom="11.600971"
     inkscape:cx="5.990878"
     inkscape:cy="7.9734707"
     inkscape:window-width="1366"
     inkscape:window-height="699"
     inkscape:window-x="0"
     inkscape:window-y="33"
     inkscape:window-maximized="1"
     inkscape:current-layer="layer1">
    <inkscape:grid
       type="xygrid"
       id="grid824" />
  </sodipodi:namedview>
  <defs
     id="defs2" />
  <g
     inkscape:label="Capa 1"
     inkscape:groupmode="layer"
     id="layer1">
    <path
       id="rect848-3"
       style="fill-opacity:1;stroke-width:2"
       d="M 3 0 C 1.338 0 0 1.338 0 3 L 0 13 C 0 14.662 1.338 16 3 16 L 13 16 C 14.662 16 16 14.662 16 13 L 16 3 C 16 1.338 14.662 0 13 0 L 3 0 z M 3 1 L 13 1 C 14.108 1 15 1.892 15 3 L 15 13 C 15 14.108 14.108 15 13 15 L 3 15 C 1.892 15 1 14.108 1 13 L 1 3 C 1 1.892 1.892 1 3 1 z " />
    <rect
       style="fill-opacity:1;stroke-width:2"
       id="rect1728"
       width="2"
       height="2"
       x="7"
       y="4"
       ry="1" />
    <rect
       style="fill-opacity:1;stroke-width:2"
       id="rect1730"
       width="6"
       height="1"
       x="5"
       y="7"
       ry="0.5" />
    <rect
       style="fill-opacity:1;stroke-width:2.23607"
       id="rect1735"
       width="2"
       height="5"
       x="7"
       y="7"
       ry="0.625" />
  </g>
</svg>
