<?xml version="1.0" encoding="UTF-8" standalone="no"?>
<!-- Created with Inkscape (http://www.inkscape.org/) -->

<svg
   width="16"
   height="16"
   viewBox="0 0 16 16"
   version="1.1"
   id="svg5"
   inkscape:version="1.1.1 (3bf5ae0d25, 2021-09-20, custom)"
   sodipodi:docname="address-book-new-symbolic.svg"
   xmlns:inkscape="http://www.inkscape.org/namespaces/inkscape"
   xmlns:sodipodi="http://sodipodi.sourceforge.net/DTD/sodipodi-0.dtd"
   xmlns="http://www.w3.org/2000/svg"
   xmlns:svg="http://www.w3.org/2000/svg">
  <sodipodi:namedview
     id="namedview7"
     pagecolor="#ffffff"
     bordercolor="#666666"
     borderopacity="1.0"
     inkscape:pageshadow="2"
     inkscape:pageopacity="0.0"
     inkscape:pagecheckerboard="0"
     inkscape:document-units="px"
     showgrid="false"
     inkscape:lockguides="true"
     inkscape:zoom="53.25"
     inkscape:cx="8.0187794"
     inkscape:cy="7.9624413"
     inkscape:window-width="1366"
     inkscape:window-height="692"
     inkscape:window-x="0"
     inkscape:window-y="40"
     inkscape:window-maximized="1"
     inkscape:current-layer="layer1">
    <inkscape:grid
       type="xygrid"
       id="grid826" />
  </sodipodi:namedview>
  <defs
     id="defs2" />
  <g
     inkscape:label="Capa 1"
     inkscape:groupmode="layer"
     id="layer1">
    <rect
       id="rect1272"
       width="2"
       height="2"
       x="8"
       y="3.9999998"
       ry="1"
       style="stroke-width:0.666667" />
    <path
       id="rect929"
       d="M 4,0 C 2.338,0 1,1.338 1,3 v 3.9999998 3 V 13 c 0,1.662 1.338,3 3,3 h 6 V 15 H 4 C 2.892,15 2,14.108 2,13 V 12.234375 C 2.5303355,12.7091 3.2289334,13 4,13 h 6 V 12 H 4 V 1 h 8 c 1.108,0 2,0.892 2,2 v 3.9999998 3 h 1 v -3 V 3 C 15,1.338 13.662,0 12,0 Z" />
    <path
       id="rect1417"
       style="opacity:0.2;stroke-width:0.948683"
       d="m 2,12 v 3 h 8 v -3 z" />
    <path
       id="rect1714"
       style="stroke-width:0.205751"
       d="m 13,11 v 2 h -2.037109 v 0.962891 H 13 V 16 h 0.962891 v -2.037109 h 2 V 13 h -2 v -2 z" />
    <path
       id="rect2006"
       style="stroke-width:1.1547"
       d="m 9,6.9999998 c -1.108,0 -2,0.892 -2,2 h 4 c 0,-1.108 -0.892,-2 -2,-2 z" />
  </g>
</svg>
