<?xml version="1.0" encoding="UTF-8" standalone="no"?>
<!-- Created with Inkscape (http://www.inkscape.org/) -->

<svg
   width="16"
   height="16"
   viewBox="0 0 16 16"
   version="1.1"
   id="svg5"
   inkscape:version="1.1.1 (3bf5ae0d25, 2021-09-20, custom)"
   sodipodi:docname="appointment-new-symbolic.svg"
   xmlns:inkscape="http://www.inkscape.org/namespaces/inkscape"
   xmlns:sodipodi="http://sodipodi.sourceforge.net/DTD/sodipodi-0.dtd"
   xmlns="http://www.w3.org/2000/svg"
   xmlns:svg="http://www.w3.org/2000/svg">
  <sodipodi:namedview
     id="namedview7"
     pagecolor="#ffffff"
     bordercolor="#666666"
     borderopacity="1.0"
     inkscape:pageshadow="2"
     inkscape:pageopacity="0.0"
     inkscape:pagecheckerboard="0"
     inkscape:document-units="px"
     showgrid="false"
     inkscape:zoom="26.625"
     inkscape:cx="7.9812207"
     inkscape:cy="8"
     inkscape:window-width="1366"
     inkscape:window-height="680"
     inkscape:window-x="0"
     inkscape:window-y="0"
     inkscape:window-maximized="1"
     inkscape:current-layer="layer1" />
  <defs
     id="defs2" />
  <g
     inkscape:label="Capa 1"
     inkscape:groupmode="layer"
     id="layer1">
    <path
       id="rect881"
       d="m 13,11 v 2 h -2 v 1 h 2 v 2 h 1 v -2 h 2 v -1 h -2 v -2 z" />
    <path
       id="rect1216"
       d="M 8,0 C 3.568,0 0,3.568 0,8.0000003 0,12.432 3.568,16 8,16 8.6911727,16 9.361109,15.91134 10,15.748047 V 14.710938 C 9.3666223,14.898228 8.6956986,15 8,15 4.122,15 1,11.878 1,8.0000003 1,4.122 4.122,1 8,1 11.878,1 15,4.122 15,8.0000003 15,8.6956983 14.898228,9.3666223 14.710938,10 h 1.037109 C 15.911343,9.3611093 16,8.6911723 16,8.0000003 16,3.568 12.432,0 8,0 Z" />
    <path
       id="rect1678"
       style="stroke-width:0.894427"
       d="m 7,4 v 4.0000003 1 h 1 3 v -1 H 8 V 4 Z" />
  </g>
</svg>
