<?xml version="1.0" encoding="UTF-8" standalone="no"?>
<!-- Created with Inkscape (http://www.inkscape.org/) -->

<svg
   width="16"
   height="16"
   viewBox="0 0 16 16"
   version="1.1"
   id="svg5"
   inkscape:version="1.1.1 (3bf5ae0d25, 2021-09-20, custom)"
   sodipodi:docname="call-start-symbolic.svg"
   xmlns:inkscape="http://www.inkscape.org/namespaces/inkscape"
   xmlns:sodipodi="http://sodipodi.sourceforge.net/DTD/sodipodi-0.dtd"
   xmlns="http://www.w3.org/2000/svg"
   xmlns:svg="http://www.w3.org/2000/svg">
  <sodipodi:namedview
     id="namedview7"
     pagecolor="#ffffff"
     bordercolor="#666666"
     borderopacity="1.0"
     inkscape:pageshadow="2"
     inkscape:pageopacity="0.0"
     inkscape:pagecheckerboard="0"
     inkscape:document-units="px"
     showgrid="false"
     inkscape:zoom="26.625"
     inkscape:cx="8.4131455"
     inkscape:cy="10.178404"
     inkscape:window-width="1366"
     inkscape:window-height="692"
     inkscape:window-x="0"
     inkscape:window-y="40"
     inkscape:window-maximized="1"
     inkscape:current-layer="layer1"
     inkscape:object-paths="true"
     inkscape:snap-smooth-nodes="true">
    <inkscape:grid
       type="xygrid"
       id="grid838" />
  </sodipodi:namedview>
  <defs
     id="defs2" />
  <g
     inkscape:label="Capa 1"
     inkscape:groupmode="layer"
     id="layer1">
    <path
       id="rect2450"
       style="stroke-width:2;stroke-linecap:round;stroke-linejoin:round"
       d="M 11 1 C 9.892 1 9 1.892 9 3 L 9 4 C 9 5.108 9.892 6 11 6 L 13 6 C 13.330511 6 13.641886 5.9200949 13.916016 5.7792969 C 13.664682 8.2916633 12.85509 10.18788 11.521484 11.521484 C 10.18788 12.85509 8.2916633 13.664682 5.7792969 13.916016 C 5.9200949 13.641886 6 13.330511 6 13 L 6 11 C 6 9.892 5.108 9 4 9 L 3 9 C 1.892 9 1 9.892 1 11 L 1 13 C 1 14.108 1.892 15 3 15 L 4 15 C 4.034625 15 4.0693331 14.999768 4.1035156 14.998047 C 7.6362209 14.980553 10.378918 14.078112 12.228516 12.228516 C 14.078112 10.378918 14.980553 7.6362209 14.998047 4.1035156 C 14.999768 4.0693331 15 4.034625 15 4 L 15 3 C 15 1.892 14.108 1 13 1 L 11 1 z M 11 2 L 13 2 C 13.554 2 14 2.446 14 3 L 14 4 C 14 4.554 13.554 5 13 5 L 11 5 C 10.446 5 10 4.554 10 4 L 10 3 C 10 2.446 10.446 2 11 2 z M 3 10 L 4 10 C 4.554 10 5 10.446 5 11 L 5 13 C 5 13.554 4.554 14 4 14 L 3 14 C 2.446 14 2 13.554 2 13 L 2 11 C 2 10.446 2.446 10 3 10 z " />
  </g>
</svg>
