<?xml version="1.0" encoding="UTF-8" standalone="no"?>
<!-- Created with Inkscape (http://www.inkscape.org/) -->

<svg
   width="16"
   height="16"
   viewBox="0 0 16 16"
   version="1.1"
   id="svg5"
   sodipodi:docname="camera-switch-symbolic.svg"
   inkscape:version="1.1.1 (3bf5ae0d25, 2021-09-20, custom)"
   xmlns:inkscape="http://www.inkscape.org/namespaces/inkscape"
   xmlns:sodipodi="http://sodipodi.sourceforge.net/DTD/sodipodi-0.dtd"
   xmlns="http://www.w3.org/2000/svg"
   xmlns:svg="http://www.w3.org/2000/svg">
  <sodipodi:namedview
     id="namedview7"
     pagecolor="#ffffff"
     bordercolor="#666666"
     borderopacity="1.0"
     inkscape:pageshadow="2"
     inkscape:pageopacity="0.0"
     inkscape:pagecheckerboard="0"
     inkscape:document-units="px"
     showgrid="false"
     inkscape:zoom="9.413359"
     inkscape:cx="8.0205163"
     inkscape:cy="7.9674003"
     inkscape:window-width="1366"
     inkscape:window-height="680"
     inkscape:window-x="0"
     inkscape:window-y="0"
     inkscape:window-maximized="1"
     inkscape:current-layer="layer1" />
  <defs
     id="defs2" />
  <g
     inkscape:label="Capa 1"
     inkscape:groupmode="layer"
     id="layer1">
    <path
       style="stroke:none;stroke-width:1px;stroke-linecap:butt;stroke-linejoin:miter;stroke-opacity:1"
       d="m 9,11 v 2 h 3 v 1 H 9 v 2 L 6,13.5 Z"
       id="path4232"
       sodipodi:nodetypes="cccccccc" />
    <path
       style="stroke:none;stroke-width:1px;stroke-linecap:butt;stroke-linejoin:miter;stroke-opacity:1"
       d="M 13,8.9999996 V 11 H 9.9999998 v 1 H 13 v 2 l 3,-2.5 z"
       id="path4232-3"
       sodipodi:nodetypes="cccccccc" />
    <path
       id="rect1285"
       style="stroke-width:2;paint-order:fill markers stroke"
       d="M 3,0 C 1.338,0 0,1.338 0,3 v 8 c 0,1.662 1.338,3 3,3 H 5 V 13 H 3 C 1.892,13 0.99999997,12.108 0.99999997,11 V 3 C 0.99999997,1.892 1.892,1 3,1 h 10 c 1.108,0 2,0.892 2,2 v 5.9999996 h 1 V 3 C 16,1.338 14.662,0 13,0 Z" />
    <path
       id="rect1535"
       style="stroke-width:2;paint-order:fill markers stroke"
       d="M 8,4 C 6.338,4 5,5.3379996 5,6.9999996 c 0,1.662 1.338,3 3,3 1.6619998,0 3,-1.338 3,-3 C 11,5.3379996 9.6619998,4 8,4 Z m 0,1 c 1.108,0 1.9999998,0.8919996 1.9999998,1.9999996 0,1.108 -0.8919998,2 -1.9999998,2 -1.108,0 -2,-0.892 -2,-2 C 6,5.8919996 6.892,5 8,5 Z" />
    <rect
       style="stroke-width:2;paint-order:fill markers stroke"
       id="rect1686"
       width="2"
       height="2"
       x="11"
       y="2.9999998"
       ry="1" />
  </g>
</svg>
