<?xml version="1.0" encoding="UTF-8" standalone="no"?>
<!-- Created with Inkscape (http://www.inkscape.org/) -->

<svg
   width="16"
   height="16"
   viewBox="0 0 16 16"
   version="1.1"
   id="svg5"
   inkscape:version="1.1.1 (3bf5ae0d25, 2021-09-20, custom)"
   sodipodi:docname="chat-message-new-symbolic.svg"
   xmlns:inkscape="http://www.inkscape.org/namespaces/inkscape"
   xmlns:sodipodi="http://sodipodi.sourceforge.net/DTD/sodipodi-0.dtd"
   xmlns="http://www.w3.org/2000/svg"
   xmlns:svg="http://www.w3.org/2000/svg">
  <sodipodi:namedview
     id="namedview7"
     pagecolor="#ffffff"
     bordercolor="#666666"
     borderopacity="1.0"
     inkscape:pageshadow="2"
     inkscape:pageopacity="0.0"
     inkscape:pagecheckerboard="0"
     inkscape:document-units="px"
     showgrid="false"
     inkscape:zoom="26.625"
     inkscape:cx="7.9812207"
     inkscape:cy="8"
     inkscape:window-width="1366"
     inkscape:window-height="680"
     inkscape:window-x="0"
     inkscape:window-y="0"
     inkscape:window-maximized="1"
     inkscape:current-layer="layer1" />
  <defs
     id="defs2" />
  <g
     inkscape:label="Capa 1"
     inkscape:groupmode="layer"
     id="layer1">
    <path
       id="rect1293"
       style="stroke-width:1.85164;paint-order:fill markers stroke"
       d="M 3,1 C 1.338,1 0,2.338 0,4 V 8 8.4999996 15 l 4,-2 h 6 V 12 H 3 L 1,13 V 8 4 C 1,2.892 1.892,2 3,2 h 10 c 1.108,0 2,0.892 2,2 v 4.9999996 h 1 V 4 C 16,2.338 14.662,1 13,1 Z" />
    <path
       id="rect1642"
       style="stroke-width:2;paint-order:fill markers stroke"
       d="M 13,9.9999996 V 12 h -2 v 1 h 2 v 2 h 1 v -2 h 2 V 12 H 14 V 9.9999996 Z" />
    <rect
       style="stroke:none;stroke-width:1.88562;paint-order:fill markers stroke"
       id="rect2431"
       width="8"
       height="1"
       x="4"
       y="5"
       ry="0" />
    <rect
       style="stroke:none;stroke-width:1.88562;paint-order:fill markers stroke"
       id="rect2431-7"
       width="8"
       height="1"
       x="4"
       y="6.9999995"
       ry="0" />
    <rect
       style="stroke:none;stroke-width:1.33333;paint-order:fill markers stroke"
       id="rect2431-7-5"
       width="4"
       height="1"
       x="4"
       y="9"
       ry="0" />
  </g>
</svg>
