<?xml version="1.0" encoding="UTF-8" standalone="no"?>
<!-- Created with Inkscape (http://www.inkscape.org/) -->

<svg
   width="16"
   height="16"
   viewBox="0 0 16 16"
   version="1.1"
   id="svg5"
   inkscape:version="1.1.1 (3bf5ae0d25, 2021-09-20, custom)"
   sodipodi:docname="document-save-as-symbolic.svg"
   xmlns:inkscape="http://www.inkscape.org/namespaces/inkscape"
   xmlns:sodipodi="http://sodipodi.sourceforge.net/DTD/sodipodi-0.dtd"
   xmlns="http://www.w3.org/2000/svg"
   xmlns:svg="http://www.w3.org/2000/svg">
  <sodipodi:namedview
     id="namedview7"
     pagecolor="#ffffff"
     bordercolor="#666666"
     borderopacity="1.0"
     inkscape:pageshadow="2"
     inkscape:pageopacity="0.0"
     inkscape:pagecheckerboard="0"
     inkscape:document-units="px"
     showgrid="false"
     inkscape:zoom="26.625"
     inkscape:cx="7.9812207"
     inkscape:cy="8"
     inkscape:window-width="1366"
     inkscape:window-height="680"
     inkscape:window-x="0"
     inkscape:window-y="0"
     inkscape:window-maximized="1"
     inkscape:current-layer="layer1" />
  <defs
     id="defs2" />
  <g
     inkscape:label="Capa 1"
     inkscape:groupmode="layer"
     id="layer1">
    <path
       id="rect3643"
       style="stroke:none;stroke-width:2;stroke-linecap:butt;stroke-linejoin:round;paint-order:fill markers stroke"
       d="M 6.585937,0 1,5.5859375 V 6 7 H 2 8 V 6 1 h 4 c 1.108,0 2,0.892 2,2 v 6.0000002 h 1 V 3 C 15,1.338 13.662,0 12,0 H 8 7 Z M 7,1 V 6 H 3 2 Z" />
    <path
       style="stroke:none;stroke-width:1px;stroke-linecap:butt;stroke-linejoin:miter;stroke-opacity:1"
       d="m 16,13 h -2 v -3 h -1 v 3 h -2 l 2.5,3 z"
       id="path4232"
       sodipodi:nodetypes="cccccccc" />
    <rect
       style="opacity:0.4;stroke-width:0.894427;paint-order:fill markers stroke"
       id="rect897"
       width="4"
       height="2"
       x="2.9999998"
       y="11"
       ry="0" />
    <rect
       style="stroke-width:0.632456;paint-order:fill markers stroke"
       id="rect897-3"
       width="1"
       height="4"
       x="7"
       y="10"
       ry="0" />
    <path
       id="rect1128"
       style="paint-order:fill markers stroke"
       d="M 3,8 C 1.892,8 1,8.8920002 1,10 v 4 c 0,1.108 0.892,2 2,2 h 5 c 1.108,0 2,-0.892 2,-2 V 10 C 10,8.8920002 9.108,8 8,8 Z m 0,1.0000002 h 5 c 0.554,0 1,0.446 1,0.9999998 v 4 c 0,0.554 -0.446,1 -1,1 H 3 C 2.446,15 2,14.554 2,14 V 10 C 2,9.4460002 2.446,9.0000002 3,9.0000002 Z" />
  </g>
</svg>
