<?xml version="1.0" encoding="UTF-8" standalone="no"?>
<!-- Created with Inkscape (http://www.inkscape.org/) -->

<svg
   width="16"
   height="16"
   viewBox="0 0 16 16"
   version="1.1"
   id="svg5"
   inkscape:version="1.1.1 (3bf5ae0d25, 2021-09-20, custom)"
   sodipodi:docname="document-print-preview-symbolic.svg"
   xmlns:inkscape="http://www.inkscape.org/namespaces/inkscape"
   xmlns:sodipodi="http://sodipodi.sourceforge.net/DTD/sodipodi-0.dtd"
   xmlns="http://www.w3.org/2000/svg"
   xmlns:svg="http://www.w3.org/2000/svg">
  <sodipodi:namedview
     id="namedview7"
     pagecolor="#ffffff"
     bordercolor="#666666"
     borderopacity="1.0"
     inkscape:pageshadow="2"
     inkscape:pageopacity="0.0"
     inkscape:pagecheckerboard="0"
     inkscape:document-units="px"
     showgrid="false"
     inkscape:zoom="26.625"
     inkscape:cx="7.9812207"
     inkscape:cy="8"
     inkscape:window-width="1366"
     inkscape:window-height="680"
     inkscape:window-x="0"
     inkscape:window-y="0"
     inkscape:window-maximized="1"
     inkscape:current-layer="layer1" />
  <defs
     id="defs2" />
  <g
     inkscape:label="Capa 1"
     inkscape:groupmode="layer"
     id="layer1">
    <path
       id="rect1298"
       style="stroke-width:0.953463;paint-order:fill markers stroke"
       d="M 3.0000003,4 C 1.338,4 0,5.338 0,7 v 4 c 0,1.662 1.338,3 3.0000003,3 V 13 C 1.892,13 1,12.108 1,11 V 7 C 1,5.892 1.892,5 3.0000003,5 H 13 c 1.108,0 2,0.892 2,2 v 2.0000004 h 1 V 7 C 16,5.338 14.662,4 13,4 Z" />
    <rect
       style="opacity:0.5;stroke-width:0.816497;paint-order:fill markers stroke"
       id="rect1741"
       width="4"
       height="1"
       x="5.0000005"
       y="13" />
    <rect
       style="opacity:0.5;stroke-width:0.816497;paint-order:fill markers stroke"
       id="rect1741-5"
       width="4"
       height="1"
       x="5.0000005"
       y="11" />
    <rect
       style="opacity:0.2;stroke-width:0.816497;paint-order:fill markers stroke"
       id="rect1741-5-5"
       width="4"
       height="1"
       x="6.0000005"
       y="7"
       ry="0.5" />
    <path
       id="rect1765"
       style="paint-order:fill markers stroke"
       d="m 5.0000003,0 c -1.108,0 -2,0.892 -2,2 v 3 h 1 V 2 c 0,-0.554 0.446,-1 1,-1 H 11 c 0.554,0 1,0.446 1,1 v 3 h 1 V 2 C 13,0.892 12.108,0 11,0 Z" />
    <rect
       style="paint-order:fill markers stroke"
       id="rect2311"
       width="1"
       height="1"
       x="3.0000005"
       y="6"
       ry="0.5" />
    <path
       id="rect2565"
       style="paint-order:fill markers stroke"
       d="m 5.0000003,9.0000004 c -1.108,0 -2,0.892 -2,1.9999996 v 3 c 0,1.108 0.892,2 2,2 h 4 v -1 h -4 c -0.554,0 -1,-0.446 -1,-1 v -3 c 0,-0.554 0.446,-1 1,-1 H 10 V 9.0000004 Z"
       sodipodi:nodetypes="ssssccssssccs" />
    <path
       id="rect3772"
       style="stroke-width:1.25;paint-order:fill markers stroke"
       d="m 12.5,10 c -1.385,0 -2.5,1.115 -2.5,2.5 0,1.385 1.115,2.5 2.5,2.5 0.434364,0 0.842081,-0.109461 1.197266,-0.302734 L 15,16 16,15 14.697266,13.697266 C 14.890538,13.342081 15,12.934364 15,12.5 15,11.115 13.885,10 12.5,10 Z m 0,1 c 0.05194,0 0.103749,0.0027 0.154297,0.0078 0.05055,0.0051 0.09953,0.01348 0.148437,0.02344 0.04891,0.01 0.0975,0.02059 0.144532,0.03516 0.04703,0.01457 0.09182,0.03186 0.136718,0.05078 0.08979,0.03785 0.176084,0.08486 0.25586,0.138671 0.03989,0.0269 0.07822,0.05542 0.115234,0.08594 0.07403,0.06104 0.142084,0.129099 0.203125,0.203125 0.03052,0.03701 0.05903,0.07535 0.08594,0.115234 0.05381,0.07978 0.10082,0.166071 0.138671,0.25586 0.01893,0.04489 0.03622,0.08969 0.05078,0.136718 0.01457,0.04703 0.0252,0.09562 0.03516,0.144532 0.01,0.04891 0.01834,0.09789 0.02344,0.148437 0.0051,0.05055 0.0078,0.102366 0.0078,0.154303 0,0.02597 -6.62e-4,0.05249 -0.002,0.07813 -1.33e-4,0.0026 1.46e-4,0.0052 0,0.0078 -6.94e-4,0.0125 -0.0029,0.02469 -0.0039,0.03711 -0.0013,0.01576 -0.0021,0.03126 -0.0039,0.04687 -0.0022,0.01989 -0.0048,0.03895 -0.0078,0.05859 -0.0013,0.0084 -0.0025,0.01705 -0.0039,0.02539 -0.0028,0.01632 -0.0065,0.03269 -0.0098,0.04883 -0.004,0.01953 -0.007,0.03935 -0.01172,0.05859 -0.0011,0.0046 -0.0027,0.0091 -0.0039,0.01367 -0.0035,0.01374 -0.0078,0.02744 -0.01172,0.04102 -0.0147,0.05131 -0.03093,0.101525 -0.05078,0.15039 -5.46e-4,0.0013 -0.0014,0.0026 -0.002,0.0039 -7.93e-4,0.0019 -0.0012,0.0039 -0.002,0.0059 -0.0096,0.02314 -0.02059,0.04584 -0.03125,0.06836 -0.147829,0.31221 -0.398728,0.563109 -0.710938,0.710938 -0.01123,0.0053 -0.02378,0.01058 -0.03516,0.01563 -0.01302,0.0058 -0.02585,0.01217 -0.03906,0.01758 -0.0014,5.6e-4 -0.0025,0.0014 -0.0039,0.002 -0.04887,0.01985 -0.09908,0.03608 -0.15039,0.05078 -0.01352,0.0039 -0.02734,0.0082 -0.04102,0.01172 -0.0046,0.0012 -0.0091,0.0028 -0.01367,0.0039 -0.01924,0.0047 -0.03907,0.0077 -0.05859,0.01172 -0.01622,0.0033 -0.03242,0.007 -0.04883,0.0098 -0.0084,0.0014 -0.01693,0.0026 -0.02539,0.0039 -0.01929,0.0029 -0.03907,0.0056 -0.05859,0.0078 -6.52e-4,7.3e-5 -0.0013,-7.2e-5 -0.002,0 -0.01498,0.0017 -0.02982,0.0027 -0.04492,0.0039 -0.04026,0.0032 -0.08158,0.0058 -0.122872,0.0058 -0.05194,0 -0.103749,-0.0027 -0.154297,-0.0078 -0.05055,-0.0051 -0.09953,-0.01348 -0.148437,-0.02344 -0.04891,-0.01 -0.0975,-0.02059 -0.144532,-0.03516 -0.04703,-0.01457 -0.09182,-0.03186 -0.136718,-0.05078 -0.08979,-0.03785 -0.176084,-0.08486 -0.25586,-0.138671 -0.03989,-0.0269 -0.07822,-0.05542 -0.115234,-0.08594 -0.07403,-0.06104 -0.142084,-0.129099 -0.203125,-0.203125 -0.03052,-0.03701 -0.05903,-0.07535 -0.08594,-0.115234 -0.05381,-0.07978 -0.10082,-0.166071 -0.138671,-0.25586 -0.01893,-0.04489 -0.03622,-0.08969 -0.05078,-0.136718 -0.01457,-0.04703 -0.0252,-0.09562 -0.03516,-0.144532 -0.01,-0.04891 -0.01834,-0.09789 -0.02344,-0.148437 C 11.0027,12.603771 11,12.551955 11,12.500018 c 0,-0.05194 0.0027,-0.103749 0.0078,-0.154297 0.0051,-0.05055 0.01348,-0.09953 0.02344,-0.148437 0.01,-0.04891 0.02059,-0.0975 0.03516,-0.144532 0.01457,-0.04703 0.03186,-0.09182 0.05078,-0.136718 0.03785,-0.08979 0.08486,-0.176084 0.138671,-0.25586 0.0269,-0.03989 0.05542,-0.07822 0.08594,-0.115234 0.06104,-0.07403 0.129099,-0.142084 0.203125,-0.203125 0.03701,-0.03052 0.07535,-0.05903 0.115234,-0.08594 0.07978,-0.05381 0.166071,-0.10082 0.25586,-0.138671 0.04489,-0.01893 0.08969,-0.03622 0.136718,-0.05078 0.04703,-0.01457 0.09562,-0.0252 0.144532,-0.03516 0.04891,-0.01 0.09789,-0.01834 0.148437,-0.02344 0.05055,-0.0051 0.102366,-0.0078 0.154303,-0.0078 z" />
  </g>
</svg>
