<?xml version="1.0" encoding="UTF-8" standalone="no"?>
<!-- Created with Inkscape (http://www.inkscape.org/) -->

<svg
   width="16"
   height="16"
   viewBox="0 0 16 16"
   version="1.1"
   id="svg5"
   inkscape:version="1.1.1 (3bf5ae0d25, 2021-09-20, custom)"
   sodipodi:docname="document-page-setup-symbolic.svg"
   xmlns:inkscape="http://www.inkscape.org/namespaces/inkscape"
   xmlns:sodipodi="http://sodipodi.sourceforge.net/DTD/sodipodi-0.dtd"
   xmlns="http://www.w3.org/2000/svg"
   xmlns:svg="http://www.w3.org/2000/svg">
  <sodipodi:namedview
     id="namedview7"
     pagecolor="#ffffff"
     bordercolor="#666666"
     borderopacity="1.0"
     inkscape:pageshadow="2"
     inkscape:pageopacity="0.0"
     inkscape:pagecheckerboard="0"
     inkscape:document-units="px"
     showgrid="false"
     inkscape:zoom="6.65625"
     inkscape:cx="8.0375587"
     inkscape:cy="7.9624413"
     inkscape:window-width="1366"
     inkscape:window-height="680"
     inkscape:window-x="0"
     inkscape:window-y="0"
     inkscape:window-maximized="1"
     inkscape:current-layer="layer1" />
  <defs
     id="defs2" />
  <g
     inkscape:label="Capa 1"
     inkscape:groupmode="layer"
     id="layer1">
    <path
       id="rect1111"
       style="paint-order:fill markers stroke"
       d="M 4,0 C 2.338,0 1,1.338 1,3 v 10 c 0,1.662 1.338,3 3,3 H 6 V 15 H 4 C 2.892,15 2,14.108 2,13 V 3 C 2,1.892 2.892,1 4,1 h 8 c 1.108,0 2,0.892 2,2 v 3 h 1 V 3 C 15,1.338 13.662,0 12,0 Z" />
    <path
       id="rect2308-3"
       style="fill-opacity:1;stroke:none;paint-order:fill markers stroke"
       d="M 16,7 15,8 8,15 7,16 H 8.4140625 13 15 16 V 15 Z M 15,9.4140625 V 15 H 9.4140625 Z" />
  </g>
</svg>
