<?xml version="1.0" encoding="UTF-8" standalone="no"?>
<!-- Created with Inkscape (http://www.inkscape.org/) -->

<svg
   width="16"
   height="16"
   viewBox="0 0 16 16"
   version="1.1"
   id="svg5"
   inkscape:version="1.1.1 (3bf5ae0d25, 2021-09-20, custom)"
   sodipodi:docname="document-open-recent-symbolic.svg"
   xmlns:inkscape="http://www.inkscape.org/namespaces/inkscape"
   xmlns:sodipodi="http://sodipodi.sourceforge.net/DTD/sodipodi-0.dtd"
   xmlns="http://www.w3.org/2000/svg"
   xmlns:svg="http://www.w3.org/2000/svg">
  <sodipodi:namedview
     id="namedview7"
     pagecolor="#ffffff"
     bordercolor="#666666"
     borderopacity="1.0"
     inkscape:pageshadow="2"
     inkscape:pageopacity="0.0"
     inkscape:pagecheckerboard="0"
     inkscape:document-units="px"
     showgrid="false"
     inkscape:zoom="3.328125"
     inkscape:cx="7.9624413"
     inkscape:cy="8.112676"
     inkscape:window-width="1366"
     inkscape:window-height="680"
     inkscape:window-x="0"
     inkscape:window-y="0"
     inkscape:window-maximized="1"
     inkscape:current-layer="layer1">
    <inkscape:grid
       type="xygrid"
       id="grid824" />
  </sodipodi:namedview>
  <defs
     id="defs2" />
  <g
     inkscape:label="Capa 1"
     inkscape:groupmode="layer"
     id="layer1">
    <path
       id="rect848"
       style="paint-order:fill markers stroke"
       d="M 8 0 C 3.568 0 0 3.568 0 8 C 0 12.432 3.568 16 8 16 C 12.432 16 16 12.432 16 8 C 16 3.568 12.432 0 8 0 z M 8 1 C 11.878 1 15 4.122 15 8 C 15 11.878 11.878 15 8 15 C 4.122 15 1 11.878 1 8 C 1 4.122 4.122 1 8 1 z " />
    <path
       id="rect1678"
       style="stroke-width:0.894427"
       d="m 7,4 v 4 1 h 1 3 V 8 H 8 V 4 Z" />
  </g>
</svg>
