<?xml version="1.0" encoding="UTF-8" standalone="no"?>
<!-- Created with Inkscape (http://www.inkscape.org/) -->

<svg
   width="16"
   height="16"
   viewBox="0 0 16 16"
   version="1.1"
   id="svg5"
   inkscape:version="1.1.1 (3bf5ae0d25, 2021-09-20, custom)"
   sodipodi:docname="document-print-symbolic.svg"
   xmlns:inkscape="http://www.inkscape.org/namespaces/inkscape"
   xmlns:sodipodi="http://sodipodi.sourceforge.net/DTD/sodipodi-0.dtd"
   xmlns="http://www.w3.org/2000/svg"
   xmlns:svg="http://www.w3.org/2000/svg">
  <sodipodi:namedview
     id="namedview7"
     pagecolor="#ffffff"
     bordercolor="#666666"
     borderopacity="1.0"
     inkscape:pageshadow="2"
     inkscape:pageopacity="0.0"
     inkscape:pagecheckerboard="0"
     inkscape:document-units="px"
     showgrid="false"
     inkscape:zoom="26.625"
     inkscape:cx="7.9812207"
     inkscape:cy="8"
     inkscape:window-width="1366"
     inkscape:window-height="680"
     inkscape:window-x="0"
     inkscape:window-y="0"
     inkscape:window-maximized="1"
     inkscape:current-layer="layer1" />
  <defs
     id="defs2" />
  <g
     inkscape:label="Capa 1"
     inkscape:groupmode="layer"
     id="layer1">
    <path
       id="rect1298"
       style="stroke-width:0.953463;paint-order:fill markers stroke"
       d="M 3,4 C 1.338,4 0,5.338 0,7 v 4 c 0,1.662 1.338,3 3,3 V 13 C 1.892,13 1,12.108 1,11 V 7 C 1,5.892 1.892,5 3,5 h 10 c 1.108,0 2,0.892 2,2 v 4 c 0,1.108 -0.892,2 -2,2 v 1 c 1.662,0 3,-1.338 3,-3 V 7 C 16,5.338 14.662,4 13,4 Z" />
    <rect
       style="opacity:0.5;paint-order:fill markers stroke"
       id="rect1741"
       width="6"
       height="1"
       x="5"
       y="13" />
    <rect
       style="opacity:0.5;paint-order:fill markers stroke"
       id="rect1741-5"
       width="6"
       height="1"
       x="5"
       y="11" />
    <rect
       style="opacity:0.2;stroke-width:0.816497;paint-order:fill markers stroke"
       id="rect1741-5-5"
       width="4"
       height="1"
       x="6"
       y="7"
       ry="0.5" />
    <path
       id="rect1765"
       style="paint-order:fill markers stroke"
       d="M 5,0 C 3.892,0 3,0.892 3,2 V 5 H 4 V 2 C 4,1.446 4.446,1 5,1 h 6 c 0.554,0 1,0.446 1,1 v 3 h 1 V 2 C 13,0.892 12.108,0 11,0 Z" />
    <rect
       style="paint-order:fill markers stroke"
       id="rect2311"
       width="1"
       height="1"
       x="3"
       y="6"
       ry="0.5" />
    <path
       id="rect2565"
       style="paint-order:fill markers stroke"
       d="M 5,9 C 3.892,9 3,9.892 3,11 v 3 c 0,1.108 0.892,2 2,2 h 6 c 1.108,0 2,-0.892 2,-2 V 11 C 13,9.892 12.108,9 11,9 Z m 0,1 h 6 c 0.554,0 1,0.446 1,1 v 3 c 0,0.554 -0.446,1 -1,1 H 5 C 4.446,15 4,14.554 4,14 v -3 c 0,-0.554 0.446,-1 1,-1 z" />
  </g>
</svg>
