<?xml version="1.0" encoding="UTF-8" standalone="no"?>
<!-- Created with Inkscape (http://www.inkscape.org/) -->

<svg
   width="16"
   height="16"
   viewBox="0 0 16 16"
   version="1.1"
   id="svg5"
   inkscape:version="1.1.1 (3bf5ae0d25, 2021-09-20, custom)"
   sodipodi:docname="edit-paste-symbolic.svg"
   xmlns:inkscape="http://www.inkscape.org/namespaces/inkscape"
   xmlns:sodipodi="http://sodipodi.sourceforge.net/DTD/sodipodi-0.dtd"
   xmlns="http://www.w3.org/2000/svg"
   xmlns:svg="http://www.w3.org/2000/svg">
  <sodipodi:namedview
     id="namedview7"
     pagecolor="#ffffff"
     bordercolor="#666666"
     borderopacity="1.0"
     inkscape:pageshadow="2"
     inkscape:pageopacity="0.0"
     inkscape:pagecheckerboard="0"
     inkscape:document-units="px"
     showgrid="false"
     inkscape:zoom="26.625"
     inkscape:cx="7.9812207"
     inkscape:cy="8"
     inkscape:window-width="1366"
     inkscape:window-height="680"
     inkscape:window-x="0"
     inkscape:window-y="0"
     inkscape:window-maximized="1"
     inkscape:current-layer="layer1" />
  <defs
     id="defs2" />
  <g
     inkscape:label="Capa 1"
     inkscape:groupmode="layer"
     id="layer1">
    <path
       id="rect1250"
       style="paint-order:fill markers stroke"
       d="M 4,1 C 2.338,1 1,2.338 1,4 v 9 c 0,1.662 1.338,3 3,3 H 8 V 15 H 4 C 2.892,15 2,14.108 2,13 V 4 C 2,2.892 2.892,2 4,2 h 8 c 1.108,0 2,0.892 2,2 v 2 h 1 V 4 C 15,2.338 13.662,1 12,1 Z" />
    <path
       id="rect1500"
       style="stroke-width:1.5492;paint-order:fill markers stroke"
       d="M 8,0 C 7.446,0 7,0.446 7,1 H 5 v 2 h 6 V 1 H 9 C 9,0.446 8.554,0 8,0 Z" />
    <path
       id="rect2082"
       style="stroke-width:1.14564;paint-order:fill markers stroke"
       d="M 11,7 C 9.892,7 9,7.892 9,9.0000001 V 14 c 0,1.108 0.892,2 2,2 h 3 c 1.108,0 2,-0.892 2,-2 V 9.0000001 C 16,7.892 15.108,7 14,7 Z m 0,1 h 3 c 0.554,0 1,0.446 1,1.0000001 V 14 c 0,0.554 -0.446,1 -1,1 h -3 c -0.554,0 -1,-0.446 -1,-1 V 9.0000001 C 10,8.446 10.446,8 11,8 Z" />
    <rect
       style="opacity:0.2;paint-order:fill markers stroke"
       id="rect2595"
       width="3"
       height="1"
       x="10.999999"
       y="10" />
    <rect
       style="opacity:0.2;paint-order:fill markers stroke"
       id="rect2595-5"
       width="3"
       height="1"
       x="10.999999"
       y="12" />
  </g>
</svg>
