<?xml version="1.0" encoding="UTF-8" standalone="no"?>
<!-- Created with Inkscape (http://www.inkscape.org/) -->

<svg
   width="16"
   height="16"
   viewBox="0 0 16 16"
   version="1.1"
   id="svg5"
   inkscape:version="1.1.1 (3bf5ae0d25, 2021-09-20, custom)"
   sodipodi:docname="edit-find-symbolic.svg"
   xmlns:inkscape="http://www.inkscape.org/namespaces/inkscape"
   xmlns:sodipodi="http://sodipodi.sourceforge.net/DTD/sodipodi-0.dtd"
   xmlns="http://www.w3.org/2000/svg"
   xmlns:svg="http://www.w3.org/2000/svg">
  <sodipodi:namedview
     id="namedview7"
     pagecolor="#ffffff"
     bordercolor="#666666"
     borderopacity="1.0"
     inkscape:pageshadow="2"
     inkscape:pageopacity="0.0"
     inkscape:pagecheckerboard="0"
     inkscape:document-units="px"
     showgrid="false"
     inkscape:zoom="26.625"
     inkscape:cx="7.9812207"
     inkscape:cy="8"
     inkscape:window-width="1366"
     inkscape:window-height="680"
     inkscape:window-x="0"
     inkscape:window-y="0"
     inkscape:window-maximized="1"
     inkscape:current-layer="layer1" />
  <defs
     id="defs2" />
  <g
     inkscape:label="Capa 1"
     inkscape:groupmode="layer"
     id="layer1">
    <path
       id="rect847"
       style="paint-order:fill markers stroke"
       d="M 7,1 C 3.676,1 1,3.676 1,7 c 0,3.324 2.676,6 6,6 1.4812117,0 2.8325344,-0.532719 3.876953,-1.416016 l 3.769531,3.769532 0.707032,-0.707032 -3.769532,-3.769531 C 12.467281,9.8325344 13,8.4812117 13,7 13,3.676 10.324,1 7,1 Z m 0,1 c 2.77,0 5,2.23 5,5 0,2.77 -2.23,5 -5,5 C 4.23,12 2,9.77 2,7 2,4.23 4.23,2 7,2 Z" />
  </g>
</svg>
