<?xml version="1.0" encoding="UTF-8" standalone="no"?>
<!-- Created with Inkscape (http://www.inkscape.org/) -->

<svg
   width="16"
   height="16"
   viewBox="0 0 16 16"
   version="1.1"
   id="svg5"
   inkscape:version="1.1.1 (3bf5ae0d25, 2021-09-20, custom)"
   sodipodi:docname="edit-find-replace-symbolic.svg.svg"
   xmlns:inkscape="http://www.inkscape.org/namespaces/inkscape"
   xmlns:sodipodi="http://sodipodi.sourceforge.net/DTD/sodipodi-0.dtd"
   xmlns="http://www.w3.org/2000/svg"
   xmlns:svg="http://www.w3.org/2000/svg">
  <sodipodi:namedview
     id="namedview7"
     pagecolor="#ffffff"
     bordercolor="#666666"
     borderopacity="1.0"
     inkscape:pageshadow="2"
     inkscape:pageopacity="0.0"
     inkscape:pagecheckerboard="0"
     inkscape:document-units="px"
     showgrid="false"
     inkscape:zoom="6.65625"
     inkscape:cx="7.9624413"
     inkscape:cy="7.9624413"
     inkscape:window-width="1366"
     inkscape:window-height="692"
     inkscape:window-x="0"
     inkscape:window-y="40"
     inkscape:window-maximized="1"
     inkscape:current-layer="layer1">
    <inkscape:grid
       type="xygrid"
       id="grid830" />
  </sodipodi:namedview>
  <defs
     id="defs2" />
  <g
     inkscape:label="Capa 1"
     inkscape:groupmode="layer"
     id="layer1">
    <path
       id="rect847"
       style="paint-order:fill markers stroke"
       d="M 7 1 C 3.676 1 1 3.676 1 7 L 2 7 C 2 4.23 4.23 2 7 2 C 7.3428044 2 7.6769396 2.0345051 8 2.0996094 L 8 1.0839844 C 7.6747808 1.0298321 7.3410533 1 7 1 z M 11.583984 9 C 11.081374 10.15579 10.154965 11.078824 9 11.582031 L 9 12.658203 C 9.6930727 12.414088 10.32783 12.048395 10.876953 11.583984 L 14.646484 15.353516 L 15.353516 14.646484 L 11.583984 10.876953 C 12.048395 10.32783 12.414088 9.6930727 12.658203 9 L 11.583984 9 z " />
    <path
       style="color:#000000;fill:#000000;-inkscape-stroke:none"
       d="M 11.718752,0.3046875 3.707033,7.7832036 V 7.9999996 12 h 3.707031 l 8,-8 z M 11.695312,1.6953125 14,4 6.999999,11 H 4.707031 V 8.2167966 Z"
       id="path2483" />
  </g>
</svg>
