<?xml version="1.0" encoding="UTF-8" standalone="no"?>
<!-- Created with Inkscape (http://www.inkscape.org/) -->

<svg
   width="16"
   height="16"
   viewBox="0 0 16 16"
   version="1.1"
   id="svg5"
   inkscape:version="1.1.1 (3bf5ae0d25, 2021-09-20, custom)"
   sodipodi:docname="edit-symbolic.svg"
   xmlns:inkscape="http://www.inkscape.org/namespaces/inkscape"
   xmlns:sodipodi="http://sodipodi.sourceforge.net/DTD/sodipodi-0.dtd"
   xmlns="http://www.w3.org/2000/svg"
   xmlns:svg="http://www.w3.org/2000/svg">
  <sodipodi:namedview
     id="namedview7"
     pagecolor="#ffffff"
     bordercolor="#666666"
     borderopacity="1.0"
     inkscape:pageshadow="2"
     inkscape:pageopacity="0.0"
     inkscape:pagecheckerboard="0"
     inkscape:document-units="px"
     showgrid="false"
     inkscape:zoom="24.660349"
     inkscape:cx="7.9885325"
     inkscape:cy="7.9885325"
     inkscape:window-width="1366"
     inkscape:window-height="692"
     inkscape:window-x="0"
     inkscape:window-y="40"
     inkscape:window-maximized="1"
     inkscape:current-layer="layer1" />
  <defs
     id="defs2" />
  <g
     inkscape:label="Capa 1"
     inkscape:groupmode="layer"
     id="layer1">
    <path
       id="rect930"
       style="stroke-linecap:round;stroke-linejoin:round"
       d="M 3.0000001,0 C 1.338,0 0,1.338 0,3 v 10 c 0,1.662 1.338,3 3.0000001,3 H 13 c 1.662,0 3,-1.338 3,-3 V 9 h -1 v 4 c 0,1.108 -0.892,2 -2,2 H 3.0000001 C 1.892,15 1,14.108 1,13 V 3 C 1,1.892 1.8919999,1 3.0000001,1 H 7 V 0 Z" />
    <path
       style="color:#000000;fill:#000000;-inkscape-stroke:none"
       d="M 12.011719,0.3046875 4,7.7832031 V 8 12 H 7.7070312 L 15.707031,4 Z M 11.988281,1.6953125 14.292969,4 7.2929687,11 H 5 V 8.2167969 Z"
       id="path2483" />
  </g>
</svg>
