<?xml version="1.0" encoding="UTF-8" standalone="no"?>
<svg
   width="16"
   height="16"
   viewBox="0 0 16 16"
   version="1.1"
   id="svg5"
   inkscape:version="1.1.1 (1:1.1+202109281949+c3084ef5ed)"
   sodipodi:docname="edit-copy-symbolic.svg"
   xmlns:inkscape="http://www.inkscape.org/namespaces/inkscape"
   xmlns:sodipodi="http://sodipodi.sourceforge.net/DTD/sodipodi-0.dtd"
   xmlns="http://www.w3.org/2000/svg"
   xmlns:svg="http://www.w3.org/2000/svg"
   xmlns:rdf="http://www.w3.org/1999/02/22-rdf-syntax-ns#"
   xmlns:cc="http://creativecommons.org/ns#"
   xmlns:dc="http://purl.org/dc/elements/1.1/">
  <metadata
     id="metadata9">
    <rdf:RDF>
      <cc:Work
         rdf:about="">
        <dc:format>image/svg+xml</dc:format>
        <dc:type
           rdf:resource="http://purl.org/dc/dcmitype/StillImage" />
      </cc:Work>
    </rdf:RDF>
  </metadata>
  <sodipodi:namedview
     id="namedview7"
     pagecolor="#ffffff"
     bordercolor="#666666"
     borderopacity="1.0"
     inkscape:pageshadow="2"
     inkscape:pageopacity="0.0"
     inkscape:pagecheckerboard="0"
     inkscape:document-units="px"
     showgrid="false"
     inkscape:zoom="24.439378"
     inkscape:cx="6.3217648"
     inkscape:cy="7.8970913"
     inkscape:window-width="1366"
     inkscape:window-height="706"
     inkscape:window-x="0"
     inkscape:window-y="30"
     inkscape:window-maximized="1"
     inkscape:current-layer="layer1"
     inkscape:document-rotation="0"
     inkscape:snap-bbox="true">
    <inkscape:grid
       type="xygrid"
       id="grid928" />
  </sodipodi:namedview>
  <defs
     id="defs2" />
  <g
     inkscape:label="Capa 1"
     inkscape:groupmode="layer"
     id="layer1">
    <path
       id="rect847"
       d="M 4,0 C 2.338,0 1,1.338 1,3 v 6 c 0,1.662 1.338,3 3,3 h 5 c 1.662,0 3,-1.338 3,-3 V 3 C 12,1.338 10.662,0 9,0 Z m 0,1 h 5 c 1.108,0 2,0.892 2,2 v 6 c 0,1.108 -0.892,2 -2,2 H 4 C 2.892,11 2,10.108 2,9 V 3 C 2,1.892 2.892,1 4,1 Z" />
    <path
       id="rect847-6"
       d="M 13 4.1738281 L 13 5.2675781 C 13.598077 5.6125543 14 6.2572244 14 7 L 14 13 C 14 14.108 13.108 15 12 15 L 7 15 C 5.892 15 5 14.108 5 13 L 4 13 C 4 14.662 5.338 16 7 16 L 12 16 C 13.662 16 15 14.662 15 13 L 15 7 C 15 5.6895172 14.16665 4.5843366 13 4.1738281 z " />
  </g>
</svg>
