<?xml version="1.0" encoding="UTF-8" standalone="no"?>
<!-- Created with Inkscape (http://www.inkscape.org/) -->

<svg
   width="16"
   height="16"
   viewBox="0 0 16 16"
   version="1.1"
   id="svg5"
   inkscape:version="1.1.1 (3bf5ae0d25, 2021-09-20, custom)"
   sodipodi:docname="edit-select-all-layers-symbolic.svg"
   xmlns:inkscape="http://www.inkscape.org/namespaces/inkscape"
   xmlns:sodipodi="http://sodipodi.sourceforge.net/DTD/sodipodi-0.dtd"
   xmlns="http://www.w3.org/2000/svg"
   xmlns:svg="http://www.w3.org/2000/svg">
  <sodipodi:namedview
     id="namedview7"
     pagecolor="#ffffff"
     bordercolor="#666666"
     borderopacity="1.0"
     inkscape:pageshadow="2"
     inkscape:pageopacity="0.0"
     inkscape:pagecheckerboard="0"
     inkscape:document-units="px"
     showgrid="false"
     inkscape:zoom="9.413359"
     inkscape:cx="8.0205163"
     inkscape:cy="7.9674003"
     inkscape:window-width="1366"
     inkscape:window-height="680"
     inkscape:window-x="0"
     inkscape:window-y="0"
     inkscape:window-maximized="1"
     inkscape:current-layer="layer1" />
  <defs
     id="defs2" />
  <g
     inkscape:label="Capa 1"
     inkscape:groupmode="layer"
     id="layer1">
    <path
       id="rect929"
       style="paint-order:fill markers stroke"
       d="M 2.921875,1.4432271e-4 C 1.2960542,0.04105981 0,1.364113 0,3.0001443 v 1 h 1 v -1 c 0,-1.108 0.892,-2 2,-2 H 4 V 1.4432271e-4 H 3 c -0.025969,0 -0.052318,-6.4945221e-4 -0.078125,0 z m 2.078125,0 V 1.0001443 H 7 V 1.4432271e-4 Z m 3,0 V 1.0001443 h 2 V 1.4432271e-4 Z m 3,0 V 1.0001443 h 2 c 1.108,0 2,0.892 2,2 v 1 h 1 v -1 C 16,1.3381443 14.662,1.4432271e-4 13,1.4432271e-4 Z M 0,5.0001443 v 2 h 1 v -2 z m 15,0 v 2 h 1 v -2 z m -15,3 V 10.000144 H 1 V 8.0001443 Z m 15,0 v 1.9999997 h 1 V 8.0001443 Z M 0,11.000144 v 2 c 0,1.662 1.338,3 3,3 h 1 v -1 H 3 c -1.108,0 -2,-0.892 -2,-2 v -2 z m 15,0 v 2 c 0,1.108 -0.892,2 -2,2 h -2 v 1 h 2 c 1.662,0 3,-1.338 3,-3 v -2 z m -10,4 v 1 h 2 v -1 z m 3,0 v 1 h 2 v -1 z" />
    <path
       style="stroke:none;stroke-width:1px;stroke-linecap:butt;stroke-linejoin:miter;stroke-opacity:1"
       d="m 3,6.0001443 3,-2 h 7 l -3,2 z"
       id="path1244"
       sodipodi:nodetypes="ccccc" />
    <path
       style="stroke:none;stroke-width:1px;stroke-linecap:butt;stroke-linejoin:miter;stroke-opacity:1"
       d="m 3,9.0001443 3,-2 h 7 l -3,2 z"
       id="path1244-5"
       sodipodi:nodetypes="ccccc" />
    <path
       style="stroke:none;stroke-width:1px;stroke-linecap:butt;stroke-linejoin:miter;stroke-opacity:1"
       d="m 3,12.000144 3,-2 h 7 l -3,2 z"
       id="path1244-5-3"
       sodipodi:nodetypes="ccccc" />
  </g>
</svg>
