<?xml version="1.0" encoding="UTF-8" standalone="no"?>
<svg
   width="16"
   height="16"
   viewBox="0 0 16 16"
   version="1.1"
   id="svg5"
   inkscape:version="1.1.1 (3bf5ae0d25, 2021-09-20, custom)"
   sodipodi:docname="edit-delete-symbolic.svg"
   xmlns:inkscape="http://www.inkscape.org/namespaces/inkscape"
   xmlns:sodipodi="http://sodipodi.sourceforge.net/DTD/sodipodi-0.dtd"
   xmlns="http://www.w3.org/2000/svg"
   xmlns:svg="http://www.w3.org/2000/svg"
   xmlns:rdf="http://www.w3.org/1999/02/22-rdf-syntax-ns#"
   xmlns:cc="http://creativecommons.org/ns#"
   xmlns:dc="http://purl.org/dc/elements/1.1/">
  <metadata
     id="metadata11">
    <rdf:RDF>
      <cc:Work
         rdf:about="">
        <dc:format>image/svg+xml</dc:format>
        <dc:type
           rdf:resource="http://purl.org/dc/dcmitype/StillImage" />
      </cc:Work>
    </rdf:RDF>
  </metadata>
  <sodipodi:namedview
     id="namedview7"
     pagecolor="#ffffff"
     bordercolor="#666666"
     borderopacity="1.0"
     inkscape:pageshadow="2"
     inkscape:pageopacity="0.0"
     inkscape:pagecheckerboard="0"
     inkscape:document-units="px"
     showgrid="false"
     inkscape:zoom="8.6743775"
     inkscape:cx="6.1675895"
     inkscape:cy="14.871384"
     inkscape:window-width="1366"
     inkscape:window-height="680"
     inkscape:window-x="0"
     inkscape:window-y="0"
     inkscape:window-maximized="1"
     inkscape:current-layer="layer1"
     inkscape:document-rotation="0"
     inkscape:snap-smooth-nodes="true"
     inkscape:snap-intersection-paths="true">
    <inkscape:grid
       type="xygrid"
       id="grid824" />
  </sodipodi:namedview>
  <defs
     id="defs2" />
  <g
     inkscape:label="Capa 1"
     inkscape:groupmode="layer"
     id="layer1">
    <path
       id="rect951-3"
       style="fill-rule:evenodd;stroke-width:1.52753"
       d="M 7 0 C 5.892 0 5 0.892 5 2 L 5 3 L 1.4941406 3 C 1.2204884 3 1 3.2204884 1 3.4941406 L 1 3.5058594 C 1 3.7795116 1.2204884 4 1.4941406 4 L 5 4 L 6 4 L 10 4 L 11 4 L 14.505859 4 C 14.779512 4 15 3.7795116 15 3.5058594 L 15 3.4941406 C 15 3.2204884 14.779512 3 14.505859 3 L 11 3 L 11 2 C 11 0.892 10.108 0 9 0 L 7 0 z M 7 1 L 9 1 C 9.554 1 10 1.446 10 2 L 10 3 L 6 3 L 6 2 C 6 1.446 6.446 1 7 1 z " />
    <path
       id="rect2060"
       style="paint-order:fill markers stroke"
       d="m 3,5 1,8 c 0.2061457,1.649166 1.338,3 3,3 h 2 c 1.662,0 2.793854,-1.350834 3,-3 l 1,-8 h -1 l -1,8 c -0.13743,1.099444 -0.892,2 -2,2 H 7 C 5.892,15 5.1374305,14.099444 5,13 L 4,5 Z"
       sodipodi:nodetypes="cssssccsssscc" />
  </g>
</svg>
