<?xml version="1.0" encoding="UTF-8" standalone="no"?>
<!-- Created with Inkscape (http://www.inkscape.org/) -->

<svg
   width="16"
   height="16"
   viewBox="0 0 16 16"
   version="1.1"
   id="svg5"
   inkscape:version="1.1.1 (3bf5ae0d25, 2021-09-20, custom)"
   sodipodi:docname="error-correct-symbolic.svg"
   xmlns:inkscape="http://www.inkscape.org/namespaces/inkscape"
   xmlns:sodipodi="http://sodipodi.sourceforge.net/DTD/sodipodi-0.dtd"
   xmlns="http://www.w3.org/2000/svg"
   xmlns:svg="http://www.w3.org/2000/svg">
  <sodipodi:namedview
     id="namedview7"
     pagecolor="#ffffff"
     bordercolor="#666666"
     borderopacity="1.0"
     inkscape:pageshadow="2"
     inkscape:pageopacity="0.0"
     inkscape:pagecheckerboard="0"
     inkscape:document-units="px"
     showgrid="false"
     inkscape:zoom="9.413359"
     inkscape:cx="8.0205163"
     inkscape:cy="7.9674003"
     inkscape:window-width="1366"
     inkscape:window-height="680"
     inkscape:window-x="0"
     inkscape:window-y="0"
     inkscape:window-maximized="1"
     inkscape:current-layer="layer1" />
  <defs
     id="defs2" />
  <g
     inkscape:label="Capa 1"
     inkscape:groupmode="layer"
     id="layer1">
    <path
       id="rect1888"
       style="stroke:none"
       d="M 1,12 H 3 V 10 9 6 C 3,3.23 5.23,1 7.9999998,1 10.77,1 13,3.23 13,6 V 8 H 12 V 7 6 C 12,3.784 10.216,2 7.9999998,2 5.784,2 4,3.784 4,6 v 1 2 1 2 H 5.9999998 L 3.5,15 Z m 11,1 h 0.0059 C 12.0039,13 12.002,13.01 12,13.01 Z" />
    <path
       style="color:#000000;fill:#000000;stroke-width:1.01548;-inkscape-stroke:none"
       d="M 13.262085,10 9.4563188,13.6029 7.7379148,11.9761 6.9999998,12.6746 9.4563188,15 14,10.6986 Z"
       id="path1187" />
  </g>
</svg>
