<?xml version="1.0" encoding="UTF-8" standalone="no"?>
<!-- Created with Inkscape (http://www.inkscape.org/) -->

<svg
   width="16"
   height="16"
   viewBox="0 0 16 16"
   version="1.1"
   id="svg5"
   inkscape:version="1.1.1 (3bf5ae0d25, 2021-09-20, custom)"
   sodipodi:docname="format-text-direction-symbolic-rtl.svg"
   xmlns:inkscape="http://www.inkscape.org/namespaces/inkscape"
   xmlns:sodipodi="http://sodipodi.sourceforge.net/DTD/sodipodi-0.dtd"
   xmlns="http://www.w3.org/2000/svg"
   xmlns:svg="http://www.w3.org/2000/svg">
  <sodipodi:namedview
     id="namedview7"
     pagecolor="#ffffff"
     bordercolor="#666666"
     borderopacity="1.0"
     inkscape:pageshadow="2"
     inkscape:pageopacity="0.0"
     inkscape:pagecheckerboard="0"
     inkscape:document-units="px"
     showgrid="false"
     inkscape:zoom="18.826718"
     inkscape:cx="7.7814943"
     inkscape:cy="8.0205164"
     inkscape:window-width="1366"
     inkscape:window-height="680"
     inkscape:window-x="0"
     inkscape:window-y="0"
     inkscape:window-maximized="1"
     inkscape:current-layer="layer1" />
  <defs
     id="defs2" />
  <g
     inkscape:label="Capa 1"
     inkscape:groupmode="layer"
     id="layer1">
    <path
       id="rect1436"
       style="paint-order:fill markers stroke"
       d="m 9,0 c 1.662,0 3,1.338 3,3 V 8.0000003 10 h -1 v -0.9999997 -1 V 6 H 5 v 2.0000003 1 V 10 H 4 V 8.0000003 3 C 4,1.338 5.338,0 7,0 Z M 9,1 H 7 C 5.892,1 5,1.892 5,3 v 1 1 h 6 V 4 3 C 11,1.892 10.108,1 9,1 Z" />
    <path
       id="path4232"
       style="stroke:none;stroke-width:1px;stroke-linecap:butt;stroke-linejoin:miter;stroke-opacity:1"
       d="m 4,11 v 2 h 3 8 v 1 H 7 4 v 2 L 1,13.5 Z" />
  </g>
</svg>
