<?xml version="1.0" encoding="UTF-8" standalone="no"?>
<!-- Created with Inkscape (http://www.inkscape.org/) -->

<svg
   width="16"
   height="16"
   viewBox="0 0 16 16"
   version="1.1"
   id="svg5"
   inkscape:version="1.1.1 (3bf5ae0d25, 2021-09-20, custom)"
   sodipodi:docname="format-text-italic-symbolic.svg"
   xmlns:inkscape="http://www.inkscape.org/namespaces/inkscape"
   xmlns:sodipodi="http://sodipodi.sourceforge.net/DTD/sodipodi-0.dtd"
   xmlns="http://www.w3.org/2000/svg"
   xmlns:svg="http://www.w3.org/2000/svg">
  <sodipodi:namedview
     id="namedview7"
     pagecolor="#ffffff"
     bordercolor="#666666"
     borderopacity="1.0"
     inkscape:pageshadow="2"
     inkscape:pageopacity="0.0"
     inkscape:pagecheckerboard="0"
     inkscape:document-units="px"
     showgrid="false"
     inkscape:zoom="9.413359"
     inkscape:cx="7.9142843"
     inkscape:cy="7.9674003"
     inkscape:window-width="1366"
     inkscape:window-height="680"
     inkscape:window-x="0"
     inkscape:window-y="0"
     inkscape:window-maximized="1"
     inkscape:current-layer="layer1">
    <inkscape:grid
       type="xygrid"
       id="grid822" />
  </sodipodi:namedview>
  <defs
     id="defs2" />
  <g
     inkscape:label="Capa 1"
     inkscape:groupmode="layer"
     id="layer1">
    <path
       id="rect1436"
       style="paint-order:fill markers stroke"
       d="M 9,0 C 7.338,0 5.6655,1.338 5.25,3 L 4,8 2.75,13 2,16 H 3 L 3.1914063,15.234375 3.75,13 l 1,-4 h 6 l -1,4 L 9.1914063,15.234375 9,16 h 1 L 12,8 13.25,3 C 13.6655,1.338 12.662,0 11,0 Z M 8.75,1 h 2 c 1.108,0 1.777,0.892 1.5,2 L 12,4 11,8 H 5 L 6,4 6.25,3 C 6.527,1.892 7.642,1 8.75,1 Z" />
  </g>
</svg>
