<?xml version="1.0" encoding="UTF-8" standalone="no"?>
<!-- Created with Inkscape (http://www.inkscape.org/) -->

<svg
   width="16"
   height="16"
   viewBox="0 0 16 16"
   version="1.1"
   id="svg5"
   inkscape:version="1.1.1 (3bf5ae0d25, 2021-09-20, custom)"
   sodipodi:docname="format-text-strikethrough-symbolic.svg"
   xmlns:inkscape="http://www.inkscape.org/namespaces/inkscape"
   xmlns:sodipodi="http://sodipodi.sourceforge.net/DTD/sodipodi-0.dtd"
   xmlns="http://www.w3.org/2000/svg"
   xmlns:svg="http://www.w3.org/2000/svg">
  <sodipodi:namedview
     id="namedview7"
     pagecolor="#ffffff"
     bordercolor="#666666"
     borderopacity="1.0"
     inkscape:pageshadow="2"
     inkscape:pageopacity="0.0"
     inkscape:pagecheckerboard="0"
     inkscape:document-units="px"
     showgrid="false"
     inkscape:zoom="6.65625"
     inkscape:cx="8.0375587"
     inkscape:cy="7.9624413"
     inkscape:window-width="1366"
     inkscape:window-height="680"
     inkscape:window-x="0"
     inkscape:window-y="0"
     inkscape:window-maximized="1"
     inkscape:current-layer="layer1">
    <inkscape:grid
       type="xygrid"
       id="grid822" />
  </sodipodi:namedview>
  <defs
     id="defs2" />
  <g
     inkscape:label="Capa 1"
     inkscape:groupmode="layer"
     id="layer1">
    <path
       id="rect1436"
       style="paint-order:fill markers stroke"
       d="M 7 0 C 5.338 0 4 1.338 4 3 L 4 7 L 5 7 L 5 4 L 5 3 C 5 1.892 5.892 1 7 1 L 9 1 C 10.108 1 11 1.892 11 3 L 11 4 L 11 7 L 12 7 L 12 3 C 12 1.338 10.662 0 9 0 L 7 0 z M 4 10 L 4 13 L 4 16 L 5 16 L 5 15.234375 L 5 13 L 5 10 L 4 10 z M 11 10 L 11 13 L 11 15.234375 L 11 16 L 12 16 L 12 10 L 11 10 z " />
    <rect
       style="fill:#000000;paint-order:fill markers stroke"
       id="rect884"
       width="16"
       height="1"
       x="0"
       y="8"
       ry="0" />
  </g>
</svg>
