<?xml version="1.0" encoding="UTF-8" standalone="no"?>
<!-- Created with Inkscape (http://www.inkscape.org/) -->

<svg
   width="16"
   height="16"
   viewBox="0 0 16 16"
   version="1.1"
   id="svg5"
   inkscape:version="1.1.1 (3bf5ae0d25, 2021-09-20, custom)"
   sodipodi:docname="insert-image-symbolic.svg"
   xmlns:inkscape="http://www.inkscape.org/namespaces/inkscape"
   xmlns:sodipodi="http://sodipodi.sourceforge.net/DTD/sodipodi-0.dtd"
   xmlns="http://www.w3.org/2000/svg"
   xmlns:svg="http://www.w3.org/2000/svg">
  <sodipodi:namedview
     id="namedview7"
     pagecolor="#ffffff"
     bordercolor="#666666"
     borderopacity="1.0"
     inkscape:pageshadow="2"
     inkscape:pageopacity="0.0"
     inkscape:pagecheckerboard="0"
     inkscape:document-units="px"
     showgrid="false"
     inkscape:zoom="26.625"
     inkscape:cx="7.9812207"
     inkscape:cy="8"
     inkscape:window-width="1366"
     inkscape:window-height="680"
     inkscape:window-x="0"
     inkscape:window-y="0"
     inkscape:window-maximized="1"
     inkscape:current-layer="layer1" />
  <defs
     id="defs2" />
  <g
     inkscape:label="Capa 1"
     inkscape:groupmode="layer"
     id="layer1">
    <rect
       style="stroke:none;stroke-width:1"
       id="rect2085"
       width="2"
       height="2"
       x="10"
       y="2"
       ry="1" />
    <path
       id="rect930"
       style="fill:#000000;paint-order:fill markers stroke"
       d="M 4,0 C 2.338,0 1,1.338 1,3 v 4 c 0,1.662 1.338,3 3,3 h 8 c 1.662,0 3,-1.338 3,-3 V 3 C 15,1.338 13.662,0 12,0 Z m 0,1 h 8 c 1.108,0 2,0.892 2,2 v 4 c 0,0.554 -0.222484,1.0545156 -0.583984,1.4160156 L 11,6 9.1113281,7.8886719 6,4 2.5214844,8.3476562 C 2.1977275,7.9925392 2,7.5206299 2,7 V 3 C 2,1.892 2.892,1 4,1 Z" />
    <path
       style="color:#000000;fill:#000000;-inkscape-stroke:none"
       d="M 4.3203125,11.617188 3.6796875,12.382813 8,16.005859 12.320313,12.382813 11.679688,11.617188 8,14.701172 Z"
       id="path1863" />
  </g>
</svg>
