<?xml version="1.0" encoding="UTF-8" standalone="no"?>
<!-- Created with Inkscape (http://www.inkscape.org/) -->

<svg
   width="16"
   height="16"
   viewBox="0 0 16 16"
   version="1.1"
   id="svg5"
   sodipodi:docname="mail-message-new-symbolic.svg"
   inkscape:version="1.1.1 (3bf5ae0d25, 2021-09-20, custom)"
   xmlns:inkscape="http://www.inkscape.org/namespaces/inkscape"
   xmlns:sodipodi="http://sodipodi.sourceforge.net/DTD/sodipodi-0.dtd"
   xmlns="http://www.w3.org/2000/svg"
   xmlns:svg="http://www.w3.org/2000/svg">
  <sodipodi:namedview
     id="namedview7"
     pagecolor="#ffffff"
     bordercolor="#666666"
     borderopacity="1.0"
     inkscape:pageshadow="2"
     inkscape:pageopacity="0.0"
     inkscape:pagecheckerboard="0"
     inkscape:document-units="px"
     showgrid="false"
     inkscape:zoom="6.1650873"
     inkscape:cx="7.9479816"
     inkscape:cy="7.9479816"
     inkscape:window-width="1366"
     inkscape:window-height="692"
     inkscape:window-x="0"
     inkscape:window-y="40"
     inkscape:window-maximized="1"
     inkscape:current-layer="layer1">
    <inkscape:grid
       type="xygrid"
       id="grid824" />
  </sodipodi:namedview>
  <defs
     id="defs2" />
  <g
     inkscape:label="Capa 1"
     inkscape:groupmode="layer"
     id="layer1">
    <path
       id="rect870"
       style="stroke-width:2;stroke-linecap:round;stroke-linejoin:round"
       d="M 0 2 L 0 4 L 0 8 L 0 11 C 0 12.662 1.338 14 3 14 L 10 14 L 10 13 L 3 13 C 1.892 13 1 12.108 1 11 L 1 8 L 1 4 L 1 3.6582031 L 8 9.6582031 L 15 3.6582031 L 15 4 L 15 8 L 15 10 L 16 10 L 16 8 L 16 4 L 16 2 L 0 2 z M 1.7675781 3 L 14.232422 3 L 8 8.3417969 L 1.7675781 3 z " />
    <path
       id="rect881"
       d="m 13,11 v 2 h -2 v 1 h 2 v 2 h 1 v -2 h 2 v -1 h -2 v -2 z" />
  </g>
</svg>
