<?xml version="1.0" encoding="UTF-8" standalone="no"?>
<!-- Created with Inkscape (http://www.inkscape.org/) -->

<svg
   width="16"
   height="16"
   viewBox="0 0 16 16"
   version="1.1"
   id="svg5"
   inkscape:version="1.1.1 (3bf5ae0d25, 2021-09-20, custom)"
   sodipodi:docname="mail-reply-all-symbolic.svg"
   xmlns:inkscape="http://www.inkscape.org/namespaces/inkscape"
   xmlns:sodipodi="http://sodipodi.sourceforge.net/DTD/sodipodi-0.dtd"
   xmlns="http://www.w3.org/2000/svg"
   xmlns:svg="http://www.w3.org/2000/svg">
  <sodipodi:namedview
     id="namedview7"
     pagecolor="#ffffff"
     bordercolor="#666666"
     borderopacity="1.0"
     inkscape:pageshadow="2"
     inkscape:pageopacity="0.0"
     inkscape:pagecheckerboard="0"
     inkscape:document-units="px"
     showgrid="false"
     inkscape:zoom="9.413359"
     inkscape:cx="7.9674003"
     inkscape:cy="7.4362403"
     inkscape:window-width="1366"
     inkscape:window-height="692"
     inkscape:window-x="0"
     inkscape:window-y="40"
     inkscape:window-maximized="1"
     inkscape:current-layer="layer1">
    <inkscape:grid
       type="xygrid"
       id="grid823" />
  </sodipodi:namedview>
  <defs
     id="defs2" />
  <g
     inkscape:label="Capa 1"
     inkscape:groupmode="layer"
     id="layer1">
    <rect
       style="stroke:none;stroke-width:0.816493"
       id="rect1417"
       width="2"
       height="2"
       x="-15"
       y="13"
       ry="1"
       transform="scale(-1,1)" />
    <path
       id="rect1888"
       style="stroke:none"
       d="M 4 1 L 1 3.5 L 4 6 L 4 4 L 4 3 L 4 1 z M 8 1 L 5 3.5 L 8 6 L 8 4 L 9 4 L 10 4 C 12.216 4 14 5.7839999 14 8 L 14 12 L 15 12 L 15 8 C 15 5.2300009 12.77 3 10 3 L 9 3 L 8 3 L 8 1 z M 2.9921875 12 C 2.9947875 12.002 2.9974 12.003818 3 12.005859 L 3 12 L 2.9921875 12 z " />
  </g>
</svg>
