<?xml version="1.0" encoding="UTF-8" standalone="no"?>
<svg
   width="16"
   height="16"
   viewBox="0 0 16 16"
   version="1.1"
   id="svg5"
   inkscape:version="1.1.1 (3bf5ae0d25, 2021-09-20, custom)"
   sodipodi:docname="media-view-subtitles-symbolic.svg"
   xmlns:inkscape="http://www.inkscape.org/namespaces/inkscape"
   xmlns:sodipodi="http://sodipodi.sourceforge.net/DTD/sodipodi-0.dtd"
   xmlns="http://www.w3.org/2000/svg"
   xmlns:svg="http://www.w3.org/2000/svg"
   xmlns:rdf="http://www.w3.org/1999/02/22-rdf-syntax-ns#"
   xmlns:cc="http://creativecommons.org/ns#"
   xmlns:dc="http://purl.org/dc/elements/1.1/">
  <metadata
     id="metadata9">
    <rdf:RDF>
      <cc:Work
         rdf:about="">
        <dc:format>image/svg+xml</dc:format>
        <dc:type
           rdf:resource="http://purl.org/dc/dcmitype/StillImage" />
      </cc:Work>
    </rdf:RDF>
  </metadata>
  <sodipodi:namedview
     id="namedview7"
     pagecolor="#ffffff"
     bordercolor="#666666"
     borderopacity="1.0"
     inkscape:pageshadow="2"
     inkscape:pageopacity="0.0"
     inkscape:pagecheckerboard="0"
     inkscape:document-units="px"
     showgrid="false"
     inkscape:zoom="5.7518458"
     inkscape:cx="8.3451472"
     inkscape:cy="10.431434"
     inkscape:window-width="1366"
     inkscape:window-height="692"
     inkscape:window-x="0"
     inkscape:window-y="40"
     inkscape:window-maximized="1"
     inkscape:current-layer="layer1"
     inkscape:document-rotation="0">
    <inkscape:grid
       type="xygrid"
       id="grid928" />
  </sodipodi:namedview>
  <defs
     id="defs2" />
  <g
     inkscape:label="Capa 1"
     inkscape:groupmode="layer"
     id="layer1">
    <path
       id="rect846"
       style="stroke-width:2;stroke-linecap:round;stroke-linejoin:round"
       d="M 3 2 C 1.338 2 0 3.338 0 5 L 0 11 C 0 12.662 1.338 14 3 14 L 13 14 C 14.662 14 16 12.662 16 11 L 16 5 C 16 3.338 14.662 2 13 2 L 3 2 z M 3 3 L 13 3 C 14.108 3 15 3.892 15 5 L 15 11 C 15 12.108 14.108 13 13 13 L 3 13 C 1.892 13 1 12.108 1 11 L 1 5 C 1 3.892 1.892 3 3 3 z " />
    <rect
       style="stroke-width:1.78885;stroke-linecap:round;stroke-linejoin:round"
       id="rect1176"
       width="8"
       height="1"
       x="3"
       y="5" />
    <rect
       style="stroke-width:0.632455;stroke-linecap:round;stroke-linejoin:round"
       id="rect1176-6-5"
       width="1"
       height="1"
       x="12"
       y="5" />
    <rect
       style="stroke-width:1.41421;stroke-linecap:round;stroke-linejoin:round"
       id="rect1176-6"
       width="5"
       height="1"
       x="3"
       y="7" />
    <rect
       style="stroke-width:1.26491;stroke-linecap:round;stroke-linejoin:round"
       id="rect1176-6-3"
       width="4"
       height="1"
       x="9"
       y="7" />
    <rect
       style="stroke-width:0.894427;stroke-linecap:round;stroke-linejoin:round"
       id="rect1176-6-7"
       width="2"
       height="1"
       x="3"
       y="9" />
    <rect
       style="stroke-width:1.41421;stroke-linecap:round;stroke-linejoin:round"
       id="rect1176-6-7-5"
       width="5"
       height="1"
       x="6"
       y="9" />
  </g>
</svg>
