<?xml version="1.0" encoding="UTF-8" standalone="no"?>
<svg
   width="16"
   height="16"
   viewBox="0 0 16 16"
   version="1.1"
   id="svg5"
   inkscape:version="1.1.1 (3bf5ae0d25, 2021-09-20, custom)"
   sodipodi:docname="object-locked-symbolic.svg"
   xmlns:inkscape="http://www.inkscape.org/namespaces/inkscape"
   xmlns:sodipodi="http://sodipodi.sourceforge.net/DTD/sodipodi-0.dtd"
   xmlns="http://www.w3.org/2000/svg"
   xmlns:svg="http://www.w3.org/2000/svg"
   xmlns:rdf="http://www.w3.org/1999/02/22-rdf-syntax-ns#"
   xmlns:cc="http://creativecommons.org/ns#"
   xmlns:dc="http://purl.org/dc/elements/1.1/">
  <metadata
     id="metadata9">
    <rdf:RDF>
      <cc:Work
         rdf:about="">
        <dc:format>image/svg+xml</dc:format>
        <dc:type
           rdf:resource="http://purl.org/dc/dcmitype/StillImage" />
      </cc:Work>
    </rdf:RDF>
  </metadata>
  <sodipodi:namedview
     id="namedview7"
     pagecolor="#ffffff"
     bordercolor="#666666"
     borderopacity="1.0"
     inkscape:pageshadow="2"
     inkscape:pageopacity="0.0"
     inkscape:pagecheckerboard="0"
     inkscape:document-units="px"
     showgrid="false"
     inkscape:zoom="8.640625"
     inkscape:cx="8.8535263"
     inkscape:cy="9.4900543"
     inkscape:window-width="1366"
     inkscape:window-height="680"
     inkscape:window-x="0"
     inkscape:window-y="0"
     inkscape:window-maximized="1"
     inkscape:current-layer="layer1"
     inkscape:document-rotation="0">
    <inkscape:grid
       type="xygrid"
       id="grid928" />
  </sodipodi:namedview>
  <defs
     id="defs2" />
  <g
     inkscape:label="Capa 1"
     inkscape:groupmode="layer"
     id="layer1">
    <path
       id="rect846"
       style="fill:#000000;paint-order:fill markers stroke"
       d="M 4 5 C 2.338 5 1 6.338 1 8 L 1 13 C 1 14.662 2.338 16 4 16 L 12 16 C 13.662 16 15 14.662 15 13 L 15 8 C 15 6.338 13.662 5 12 5 L 4 5 z M 4 6 L 12 6 C 13.108 6 14 6.892 14 8 L 14 13 C 14 14.108 13.108 15 12 15 L 4 15 C 2.892 15 2 14.108 2 13 L 2 8 C 2 6.892 2.892 6 4 6 z " />
    <path
       id="rect1715"
       style="fill:#000000;paint-order:fill markers stroke"
       d="M 7 0 C 5.338 0 4 1.338 4 3 L 4 5 C 4 5.3510705 4.0600767 5.6874002 4.1699219 6 L 5.2675781 6 C 5.0979526 5.7059242 5 5.3652244 5 5 L 5 3 C 5 1.892 5.892 1 7 1 L 9 1 C 10.108 1 11 1.892 11 3 L 11 5 C 11 5.3652244 10.902047 5.7059242 10.732422 6 L 11.830078 6 C 11.939923 5.6874002 12 5.3510705 12 5 L 12 3 C 12 1.338 10.662 0 9 0 L 7 0 z " />
  </g>
</svg>
