<?xml version="1.0" encoding="UTF-8" standalone="no"?>
<!-- Created with Inkscape (http://www.inkscape.org/) -->

<svg
   width="16"
   height="16"
   viewBox="0 0 16 16"
   version="1.1"
   id="svg5"
   inkscape:version="1.1.1 (3bf5ae0d25, 2021-09-20, custom)"
   sodipodi:docname="edit-clear-rtl-symbolic.svg"
   xmlns:inkscape="http://www.inkscape.org/namespaces/inkscape"
   xmlns:sodipodi="http://sodipodi.sourceforge.net/DTD/sodipodi-0.dtd"
   xmlns="http://www.w3.org/2000/svg"
   xmlns:svg="http://www.w3.org/2000/svg">
  <sodipodi:namedview
     id="namedview7"
     pagecolor="#ffffff"
     bordercolor="#666666"
     borderopacity="1.0"
     inkscape:pageshadow="2"
     inkscape:pageopacity="0.0"
     inkscape:pagecheckerboard="0"
     inkscape:document-units="px"
     showgrid="false"
     inkscape:zoom="4.7066795"
     inkscape:cx="7.9674003"
     inkscape:cy="8.0736323"
     inkscape:window-width="1366"
     inkscape:window-height="680"
     inkscape:window-x="0"
     inkscape:window-y="0"
     inkscape:window-maximized="1"
     inkscape:current-layer="layer1" />
  <defs
     id="defs2" />
  <g
     inkscape:label="Capa 1"
     inkscape:groupmode="layer"
     id="layer1">
    <path
       id="path1131"
       style="color:#000000;fill:#000000;-inkscape-stroke:none"
       d="M 5.3535156,4.6464844 4.6464844,5.3535156 7.2929688,8 4.6464844,10.646484 5.3535156,11.353516 8,8.7070312 10.646484,11.353516 11.353516,10.646484 8.7070312,8 11.353516,5.3535156 10.646484,4.6464844 8,7.2929688 Z" />
    <path
       id="rect1036"
       style="paint-order:fill markers stroke"
       d="M 8,0 C 3.568,0 0,3.568 0,8 c 0,4.432 3.568,8 8,8 4.432,0 8,-3.568 8,-8 C 16,3.568 12.432,0 8,0 Z m 0,1 c 3.878,0 7,3.122 7,7 0,3.878 -3.122,7 -7,7 C 4.122,15 1,11.878 1,8 1,4.122 4.122,1 8,1 Z" />
  </g>
</svg>
