<?xml version="1.0" encoding="UTF-8" standalone="no"?>
<svg
   width="16"
   height="16"
   viewBox="0 0 16 16"
   version="1.1"
   id="svg5"
   inkscape:version="1.1.1 (3bf5ae0d25, 2021-09-20, custom)"
   sodipodi:docname="sidebar-tree-symbolic.svg"
   xmlns:inkscape="http://www.inkscape.org/namespaces/inkscape"
   xmlns:sodipodi="http://sodipodi.sourceforge.net/DTD/sodipodi-0.dtd"
   xmlns="http://www.w3.org/2000/svg"
   xmlns:svg="http://www.w3.org/2000/svg"
   xmlns:rdf="http://www.w3.org/1999/02/22-rdf-syntax-ns#"
   xmlns:cc="http://creativecommons.org/ns#"
   xmlns:dc="http://purl.org/dc/elements/1.1/">
  <metadata
     id="metadata9">
    <rdf:RDF>
      <cc:Work
         rdf:about="">
        <dc:format>image/svg+xml</dc:format>
        <dc:type
           rdf:resource="http://purl.org/dc/dcmitype/StillImage" />
      </cc:Work>
    </rdf:RDF>
  </metadata>
  <sodipodi:namedview
     id="namedview7"
     pagecolor="#ffffff"
     bordercolor="#666666"
     borderopacity="1.0"
     inkscape:pageshadow="2"
     inkscape:pageopacity="0.0"
     inkscape:pagecheckerboard="0"
     inkscape:document-units="px"
     showgrid="false"
     inkscape:zoom="24.439378"
     inkscape:cx="5.72846"
     inkscape:cy="8.019844"
     inkscape:window-width="1366"
     inkscape:window-height="692"
     inkscape:window-x="0"
     inkscape:window-y="40"
     inkscape:window-maximized="1"
     inkscape:current-layer="layer1"
     inkscape:document-rotation="0">
    <inkscape:grid
       type="xygrid"
       id="grid928" />
  </sodipodi:namedview>
  <defs
     id="defs2" />
  <g
     inkscape:label="Capa 1"
     inkscape:groupmode="layer"
     id="layer1">
    <path
       id="rect930"
       style="stroke-width:2.61862;stroke-linecap:round;stroke-linejoin:round"
       d="M 3.5 1 C 2.669 1 2 1.669 2 2.5 C 2 3.1557109 2.4160168 3.7111153 3 3.9160156 L 3 5 L 3 6 L 3 8 L 3 9 L 3 12 L 3 13 L 3 15 L 4 15 L 4 13 L 9.0839844 13 C 9.2888847 13.583983 9.8442891 14 10.5 14 C 11.331 14 12 13.331 12 12.5 C 12 11.669 11.331 11 10.5 11 C 9.8442891 11 9.2888847 11.416017 9.0839844 12 L 4 12 L 4 9 L 7.0839844 9 C 7.2888847 9.5839832 7.8442891 10 8.5 10 C 9.331 10 10 9.331 10 8.5 C 10 7.669 9.331 7 8.5 7 C 7.8442891 7 7.2888847 7.4160168 7.0839844 8 L 4 8 L 4 6 L 11.083984 6 C 11.288885 6.5839832 11.844289 7 12.5 7 C 13.331 7 14 6.331 14 5.5 C 14 4.669 13.331 4 12.5 4 C 11.844289 4 11.288885 4.4160168 11.083984 5 L 4 5 L 4 3.9160156 C 4.5839832 3.7111153 5 3.1557109 5 2.5 C 5 1.669 4.331 1 3.5 1 z M 3.4746094 2 C 3.4831594 1.9995696 3.491343 2 3.5 2 C 3.777 2 4 2.223 4 2.5 C 4 2.777 3.777 3 3.5 3 C 3.223 3 3 2.777 3 2.5 C 3 2.2316562 3.2096954 2.0133421 3.4746094 2 z M 12.474609 5 C 12.483109 4.9995696 12.49134 5 12.5 5 C 12.777 5 13 5.223 13 5.5 C 13 5.777 12.777 6 12.5 6 C 12.223 6 12 5.777 12 5.5 C 12 5.2316562 12.209695 5.0133421 12.474609 5 z M 8.4746094 8 C 8.4831094 7.9995696 8.49134 8 8.5 8 C 8.777 8 9 8.223 9 8.5 C 9 8.777 8.777 9 8.5 9 C 8.223 9 8 8.777 8 8.5 C 8 8.2316562 8.2096954 8.0133421 8.4746094 8 z M 10.474609 12 C 10.483109 11.99957 10.49134 12 10.5 12 C 10.777 12 11 12.223 11 12.5 C 11 12.777 10.777 13 10.5 13 C 10.223 13 10 12.777 10 12.5 C 10 12.231656 10.209695 12.013342 10.474609 12 z " />
  </g>
</svg>
