<?xml version="1.0" encoding="UTF-8" standalone="no"?>
<svg
   width="16"
   height="16"
   viewBox="0 0 16 16"
   version="1.1"
   id="svg5"
   inkscape:version="1.1.1 (3bf5ae0d25, 2021-09-20, custom)"
   sodipodi:docname="system-log-out-symbolic.svg"
   xmlns:inkscape="http://www.inkscape.org/namespaces/inkscape"
   xmlns:sodipodi="http://sodipodi.sourceforge.net/DTD/sodipodi-0.dtd"
   xmlns="http://www.w3.org/2000/svg"
   xmlns:svg="http://www.w3.org/2000/svg"
   xmlns:rdf="http://www.w3.org/1999/02/22-rdf-syntax-ns#"
   xmlns:cc="http://creativecommons.org/ns#"
   xmlns:dc="http://purl.org/dc/elements/1.1/">
  <metadata
     id="metadata11">
    <rdf:RDF>
      <cc:Work
         rdf:about="">
        <dc:format>image/svg+xml</dc:format>
        <dc:type
           rdf:resource="http://purl.org/dc/dcmitype/StillImage" />
      </cc:Work>
    </rdf:RDF>
  </metadata>
  <sodipodi:namedview
     id="namedview7"
     pagecolor="#ffffff"
     bordercolor="#666666"
     borderopacity="1.0"
     inkscape:pageshadow="2"
     inkscape:pageopacity="0.0"
     inkscape:pagecheckerboard="0"
     inkscape:document-units="px"
     showgrid="false"
     inkscape:zoom="22.936776"
     inkscape:cx="8.8504156"
     inkscape:cy="7.8476591"
     inkscape:window-width="1366"
     inkscape:window-height="692"
     inkscape:window-x="0"
     inkscape:window-y="40"
     inkscape:window-maximized="1"
     inkscape:current-layer="layer1"
     inkscape:document-rotation="0"
     showguides="false"
     inkscape:lockguides="false">
    <inkscape:grid
       type="xygrid"
       id="grid824" />
  </sodipodi:namedview>
  <defs
     id="defs2" />
  <g
     inkscape:label="Capa 1"
     inkscape:groupmode="layer"
     id="layer1">
    <path
       id="rect847"
       style="stroke-width:2;stroke-linecap:round;stroke-linejoin:round"
       d="M 3,0 C 1.338,0 0,1.338 0,3 v 10 c 0,1.662 1.338,3 3,3 h 8 c 1.662,0 3,-1.338 3,-3 v -2 h -1 v 2 c 0,1.108 -0.892,2 -2,2 H 3 C 1.892,15 1,14.108 1,13 V 3 C 1,1.892 1.892,1 3,1 h 8 c 1.108,0 2,0.892 2,2 v 1 h 1 V 3 C 14,1.338 12.662,0 11,0 Z"
       sodipodi:nodetypes="ssssssccssssssssccsss" />
    <g
       id="g1348"
       transform="matrix(0,1,1,0,5,-4)">
      <path
         id="rect1888"
         style="stroke:none"
         d="M 9,8 11.5,11 14,8 H 12 11 Z" />
    </g>
    <path
       id="rect1871"
       style="stroke-width:2;stroke-linecap:round;stroke-linejoin:round"
       d="m 5,7 h 9 V 8 H 5 Z" />
  </g>
</svg>
