<?xml version="1.0" encoding="UTF-8" standalone="no"?>
<!-- Created with Inkscape (http://www.inkscape.org/) -->

<svg
   width="16"
   height="16"
   viewBox="0 0 16 16"
   version="1.1"
   id="svg5"
   sodipodi:docname="system-switch-user-symbolic.svg"
   inkscape:version="1.1.1 (3bf5ae0d25, 2021-09-20, custom)"
   xmlns:inkscape="http://www.inkscape.org/namespaces/inkscape"
   xmlns:sodipodi="http://sodipodi.sourceforge.net/DTD/sodipodi-0.dtd"
   xmlns="http://www.w3.org/2000/svg"
   xmlns:svg="http://www.w3.org/2000/svg">
  <sodipodi:namedview
     id="namedview7"
     pagecolor="#ffffff"
     bordercolor="#666666"
     borderopacity="1.0"
     inkscape:pageshadow="2"
     inkscape:pageopacity="0.0"
     inkscape:pagecheckerboard="0"
     inkscape:document-units="px"
     showgrid="false"
     inkscape:zoom="8.71875"
     inkscape:cx="8.0286738"
     inkscape:cy="11.698925"
     inkscape:window-width="1366"
     inkscape:window-height="692"
     inkscape:window-x="0"
     inkscape:window-y="40"
     inkscape:window-maximized="1"
     inkscape:current-layer="layer1">
    <inkscape:grid
       type="xygrid"
       id="grid824" />
  </sodipodi:namedview>
  <defs
     id="defs2" />
  <g
     inkscape:label="Capa 1"
     inkscape:groupmode="layer"
     id="layer1">
    <path
       id="rect848"
       style="fill:#000000;stroke-width:1.34164;stroke-linecap:round;stroke-linejoin:round"
       d="M 8 1 C 6.338 1 5 2.338 5 4 C 5 5.662 6.338 7 8 7 C 9.662 7 11 5.662 11 4 C 11 2.338 9.662 1 8 1 z M 8 2 C 9.108 2 10 2.892 10 4 C 10 5.108 9.108 6 8 6 C 6.892 6 6 5.108 6 4 C 6 2.892 6.892 2 8 2 z " />
    <path
       id="rect848-3"
       style="fill:#000000;stroke-width:3.1305;stroke-linecap:round;stroke-linejoin:round"
       d="M 8 8 C 4.122 8 1 11.122 1 15 L 4 15 L 4 14 L 2.0839844 14 C 2.5576152 11.155543 5.0170533 9 8 9 L 11.615234 9 C 10.561048 8.3653849 9.3251055 8 8 8 z " />
    <path
       style="stroke:none;stroke-width:1px;stroke-linecap:butt;stroke-linejoin:miter;stroke-opacity:1"
       d="m 9,11.000001 v 2 h 3 v 1 H 9 v 2 l -3,-2.5 z"
       id="path4232"
       sodipodi:nodetypes="cccccccc" />
    <path
       style="stroke:none;stroke-width:1px;stroke-linecap:butt;stroke-linejoin:miter;stroke-opacity:1"
       d="m 13,9 v 2.000001 H 9.9999998 v 1 H 13 v 2 l 3,-2.5 z"
       id="path4232-3"
       sodipodi:nodetypes="cccccccc" />
  </g>
</svg>
