<?xml version="1.0" encoding="UTF-8" standalone="no"?>
<svg
   width="16"
   height="16"
   viewBox="0 0 16 16"
   version="1.1"
   id="svg5"
   inkscape:version="1.1.1 (3bf5ae0d25, 2021-09-20, custom)"
   sodipodi:docname="system-reboot-symbolic.svg"
   xmlns:inkscape="http://www.inkscape.org/namespaces/inkscape"
   xmlns:sodipodi="http://sodipodi.sourceforge.net/DTD/sodipodi-0.dtd"
   xmlns="http://www.w3.org/2000/svg"
   xmlns:svg="http://www.w3.org/2000/svg"
   xmlns:rdf="http://www.w3.org/1999/02/22-rdf-syntax-ns#"
   xmlns:cc="http://creativecommons.org/ns#"
   xmlns:dc="http://purl.org/dc/elements/1.1/">
  <metadata
     id="metadata9">
    <rdf:RDF>
      <cc:Work
         rdf:about="">
        <dc:format>image/svg+xml</dc:format>
        <dc:type
           rdf:resource="http://purl.org/dc/dcmitype/StillImage" />
      </cc:Work>
    </rdf:RDF>
  </metadata>
  <sodipodi:namedview
     id="namedview7"
     pagecolor="#ffffff"
     bordercolor="#666666"
     borderopacity="1.0"
     inkscape:pageshadow="2"
     inkscape:pageopacity="0.0"
     inkscape:pagecheckerboard="0"
     inkscape:document-units="px"
     showgrid="false"
     inkscape:zoom="17.28125"
     inkscape:cx="6.596745"
     inkscape:cy="5.4394213"
     inkscape:window-width="1366"
     inkscape:window-height="692"
     inkscape:window-x="0"
     inkscape:window-y="40"
     inkscape:window-maximized="1"
     inkscape:current-layer="layer1"
     inkscape:document-rotation="0">
    <inkscape:grid
       type="xygrid"
       id="grid928" />
  </sodipodi:namedview>
  <defs
     id="defs2" />
  <g
     inkscape:label="Capa 1"
     inkscape:groupmode="layer"
     id="layer1">
    <rect
       style="fill-opacity:1;stroke-width:0.547723;stroke-linecap:round;stroke-linejoin:round"
       id="rect1304-6"
       height="6"
       x="-8"
       y="-10"
       ry="0"
       transform="scale(-1)"
       width="1" />
    <path
       id="rect847"
       style="stroke-width:2;stroke-linecap:round;stroke-linejoin:round"
       d="M 4 0.86132812 C 1.6180217 2.11506 0 4.6111328 0 7.5 C 0 11.655 3.345 15 7.5 15 C 11.655 15 15 11.655 15 7.5 C 15 4.6111328 13.381978 2.11506 11 0.86132812 L 11 2.0175781 C 12.805832 3.1698886 14 5.1900991 14 7.5 C 14 11.101 11.101 14 7.5 14 C 3.899 14 1 11.101 1 7.5 C 1 5.1900991 2.1941679 3.1698886 4 2.0175781 L 4 0.86132812 z " />
    <g
       id="g1348"
       transform="matrix(1,0,0,-1,-4,11)">
      <path
         id="rect1888"
         style="stroke:none"
         d="M 9,8 11.5,11 14,8 H 12 11 Z" />
    </g>
  </g>
</svg>
