<?xml version="1.0" encoding="UTF-8" standalone="no"?>
<svg
   width="16"
   height="16"
   viewBox="0 0 16 16"
   version="1.1"
   id="svg5"
   inkscape:version="1.1.1 (3bf5ae0d25, 2021-09-20, custom)"
   sodipodi:docname="tools-check-spelling-symbolic.svg"
   xmlns:inkscape="http://www.inkscape.org/namespaces/inkscape"
   xmlns:sodipodi="http://sodipodi.sourceforge.net/DTD/sodipodi-0.dtd"
   xmlns="http://www.w3.org/2000/svg"
   xmlns:svg="http://www.w3.org/2000/svg"
   xmlns:rdf="http://www.w3.org/1999/02/22-rdf-syntax-ns#"
   xmlns:cc="http://creativecommons.org/ns#"
   xmlns:dc="http://purl.org/dc/elements/1.1/">
  <metadata
     id="metadata11">
    <rdf:RDF>
      <cc:Work
         rdf:about="">
        <dc:format>image/svg+xml</dc:format>
        <dc:type
           rdf:resource="http://purl.org/dc/dcmitype/StillImage" />
      </cc:Work>
    </rdf:RDF>
  </metadata>
  <sodipodi:namedview
     id="namedview7"
     pagecolor="#ffffff"
     bordercolor="#666666"
     borderopacity="1.0"
     inkscape:pageshadow="2"
     inkscape:pageopacity="0.0"
     inkscape:pagecheckerboard="0"
     inkscape:document-units="px"
     showgrid="false"
     inkscape:zoom="8.8776832"
     inkscape:cx="9.3492861"
     inkscape:cy="9.4619281"
     inkscape:window-width="1366"
     inkscape:window-height="692"
     inkscape:window-x="0"
     inkscape:window-y="40"
     inkscape:window-maximized="1"
     inkscape:current-layer="layer1"
     inkscape:document-rotation="0"
     showguides="false">
    <inkscape:grid
       type="xygrid"
       id="grid824" />
  </sodipodi:namedview>
  <defs
     id="defs2" />
  <g
     inkscape:label="Capa 1"
     inkscape:groupmode="layer"
     id="layer1">
    <path
       id="rect848"
       style="stroke-width:2;stroke-linecap:round;stroke-linejoin:round"
       d="M 4,0 C 2.338,0 1,1.338 1,3 v 6 3 H 2 V 11.234375 9 7 H 7 V 9 11.234375 12 H 8 V 9 7 3 C 8,1.338 6.662,0 5,0 Z M 4,1 H 5 C 6.108,1 7,1.892 7,3 V 5.5 6 H 2 V 5.5 3 C 2,1.892 2.892,1 4,1 Z" />
    <path
       id="rect1558"
       style="stroke-width:2;stroke-linecap:round;stroke-linejoin:round"
       d="m 9,0 v 9 3 h 1 V 11.240234 C 10.529974,11.713337 11.230408,12 12,12 13.662,12 15,10.662 15,9 15,7.338 13.662,6 12,6 11.230408,6 10.529974,6.2866626 10,6.7597656 V 0 Z m 3,7 c 1.108,0 2,0.892 2,2 0,1.108 -0.892,2 -2,2 -1.108,0 -2,-0.892 -2,-2 0,-1.108 0.892,-2 2,-2 z" />
    <path
       style="color:#000000;fill:#000000;-inkscape-stroke:none"
       d="m 5.0351562,12.423828 -4.25781245,2.128906 0.44531245,0.894532 3.7421875,-1.871094 3,2 4.0000003,-2 2.757812,1.839844 0.554688,-0.832032 -3.242188,-2.160156 -3.9999997,2 z"
       id="path2301" />
  </g>
</svg>
