<?xml version="1.0" encoding="UTF-8" standalone="no"?>
<svg
   width="16"
   height="16"
   viewBox="0 0 16 16"
   version="1.1"
   id="svg5"
   inkscape:version="1.1.1 (3bf5ae0d25, 2021-09-20, custom)"
   sodipodi:docname="view-restore-symbolic.svg"
   xmlns:inkscape="http://www.inkscape.org/namespaces/inkscape"
   xmlns:sodipodi="http://sodipodi.sourceforge.net/DTD/sodipodi-0.dtd"
   xmlns="http://www.w3.org/2000/svg"
   xmlns:svg="http://www.w3.org/2000/svg"
   xmlns:rdf="http://www.w3.org/1999/02/22-rdf-syntax-ns#"
   xmlns:cc="http://creativecommons.org/ns#"
   xmlns:dc="http://purl.org/dc/elements/1.1/">
  <metadata
     id="metadata9">
    <rdf:RDF>
      <cc:Work
         rdf:about="">
        <dc:format>image/svg+xml</dc:format>
        <dc:type
           rdf:resource="http://purl.org/dc/dcmitype/StillImage" />
      </cc:Work>
    </rdf:RDF>
  </metadata>
  <sodipodi:namedview
     id="namedview7"
     pagecolor="#ffffff"
     bordercolor="#666666"
     borderopacity="1.0"
     inkscape:pageshadow="2"
     inkscape:pageopacity="0.0"
     inkscape:pagecheckerboard="0"
     inkscape:document-units="px"
     showgrid="false"
     inkscape:zoom="24.439378"
     inkscape:cx="8.879113"
     inkscape:cy="9.4928766"
     inkscape:window-width="1366"
     inkscape:window-height="692"
     inkscape:window-x="0"
     inkscape:window-y="40"
     inkscape:window-maximized="1"
     inkscape:current-layer="layer1"
     inkscape:document-rotation="0">
    <inkscape:grid
       type="xygrid"
       id="grid928" />
  </sodipodi:namedview>
  <defs
     id="defs2" />
  <g
     inkscape:label="Capa 1"
     inkscape:groupmode="layer"
     id="layer1">
    <path
       id="rect1013"
       style="opacity:1;stroke-width:2;stroke-linecap:round;stroke-linejoin:round"
       d="M 2.921875 0 C 1.2960542 0.040915489 0 1.3639687 0 3 L 0 5 L 1 5 L 1 3 C 1 1.892 1.892 1 3 1 L 5 1 L 5 0 L 3 0 C 2.9740312 0 2.9476817 -0.00064945221 2.921875 0 z M 6 0 L 6 1 L 10 1 L 10 0 L 6 0 z M 0 6 L 0 10 L 1 10 L 1 6 L 0 6 z M 15 6 L 15 10 L 16 10 L 16 6 L 15 6 z M 15 11 L 15 13 C 15 14.108 14.108 15 13 15 L 11 15 L 11 16 L 13 16 C 14.662 16 16 14.662 16 13 L 16 11 L 15 11 z M 6 15 L 6 16 L 10 16 L 10 15 L 6 15 z " />
    <path
       id="rect2356"
       style="opacity:1;stroke-width:2;stroke-linecap:round;stroke-linejoin:round"
       d="M 16,5 V 4 H 12 V 0 h -1 v 4 1 h 1 z" />
    <path
       id="rect2356-2"
       style="stroke-width:2;stroke-linecap:round;stroke-linejoin:round"
       d="m 0,11 v 1 h 4 v 4 H 5 V 12 11 H 4 Z" />
    <path
       id="rect929"
       style="stroke-width:0.676123;stroke-linecap:round;stroke-linejoin:round"
       d="M 7 6 C 6.446 6 6 6.446 6 7 L 6 9 C 6 9.554 6.446 10 7 10 L 9 10 C 9.554 10 10 9.554 10 9 L 10 7 C 10 6.446 9.554 6 9 6 L 7 6 z M 7 7 L 9 7 L 9 9 L 7 9 L 7 7 z " />
  </g>
</svg>
