<?xml version="1.0" encoding="UTF-8" standalone="no"?>
<svg
   width="16"
   height="16"
   viewBox="0 0 16 16"
   version="1.1"
   id="svg5"
   inkscape:version="1.1.1 (3bf5ae0d25, 2021-09-20, custom)"
   sodipodi:docname="view-paged-symbolic.svg"
   xmlns:inkscape="http://www.inkscape.org/namespaces/inkscape"
   xmlns:sodipodi="http://sodipodi.sourceforge.net/DTD/sodipodi-0.dtd"
   xmlns="http://www.w3.org/2000/svg"
   xmlns:svg="http://www.w3.org/2000/svg"
   xmlns:rdf="http://www.w3.org/1999/02/22-rdf-syntax-ns#"
   xmlns:cc="http://creativecommons.org/ns#"
   xmlns:dc="http://purl.org/dc/elements/1.1/">
  <metadata
     id="metadata9">
    <rdf:RDF>
      <cc:Work
         rdf:about="">
        <dc:format>image/svg+xml</dc:format>
        <dc:type
           rdf:resource="http://purl.org/dc/dcmitype/StillImage" />
      </cc:Work>
    </rdf:RDF>
  </metadata>
  <sodipodi:namedview
     id="namedview7"
     pagecolor="#ffffff"
     bordercolor="#666666"
     borderopacity="1.0"
     inkscape:pageshadow="2"
     inkscape:pageopacity="0.0"
     inkscape:pagecheckerboard="0"
     inkscape:document-units="px"
     showgrid="false"
     inkscape:zoom="24.439378"
     inkscape:cx="7.5697508"
     inkscape:cy="8.9609482"
     inkscape:window-width="1366"
     inkscape:window-height="692"
     inkscape:window-x="0"
     inkscape:window-y="40"
     inkscape:window-maximized="1"
     inkscape:current-layer="layer1"
     inkscape:document-rotation="0">
    <inkscape:grid
       type="xygrid"
       id="grid928" />
  </sodipodi:namedview>
  <defs
     id="defs2">
    <inkscape:path-effect
       effect="fillet_chamfer"
       id="path-effect1417"
       is_visible="true"
       lpeversion="1"
       satellites_param="F,0,1,1,0,0.89442719,0,1 @ F,0,0,1,0,0.89442719,0,1 @ F,0,1,1,0,0.89442719,0,1"
       unit="px"
       method="auto"
       mode="F"
       radius="0"
       chamfer_steps="1"
       flexible="false"
       use_knot_distance="true"
       apply_no_radius="true"
       apply_with_radius="true"
       only_selected="false"
       hide_knots="false" />
  </defs>
  <g
     inkscape:label="Capa 1"
     inkscape:groupmode="layer"
     id="layer1"
     style="display:inline">
    <path
       id="rect851-6"
       style="display:inline;stroke-linecap:round;stroke-linejoin:round"
       d="M 14 3.1738281 L 14 4.2675781 C 14.598077 4.6125543 15 5.2572244 15 6 L 15 13 C 15 14.108 14.108 15 13 15 L 6 15 C 5.2572244 15 4.6125543 14.598077 4.2675781 14 L 3.1738281 14 C 3.5843366 15.16665 4.6895172 16 6 16 L 13 16 C 14.662 16 16 14.662 16 13 L 16 6 C 16 4.6895172 15.16665 3.5843366 14 3.1738281 z " />
    <rect
       style="opacity:0.5;stroke-width:0.999997"
       id="rect1602"
       width="7"
       height="1"
       x="3"
       y="4" />
    <rect
       style="opacity:0.5;stroke-width:0.999997"
       id="rect1602-7"
       width="7"
       height="1"
       x="3"
       y="6" />
    <rect
       style="opacity:0.5;stroke-width:0.999997"
       id="rect1602-7-3"
       width="7"
       height="1"
       x="3"
       y="8" />
    <path
       id="rect851"
       style="stroke-linecap:round;stroke-linejoin:round"
       d="M 3,0 C 1.338,0 0,1.338 0,3 v 7 c 0,1.662 1.338,3 3,3 h 7 c 1.662,0 3,-1.338 3,-3 V 3 C 13,1.338 11.662,0 10,0 Z m 0,1 h 7 c 1.108,0 2,0.892 2,2 v 7 c 0,1.108 -0.892,2 -2,2 H 3 C 1.892,12 1,11.108 1,10 V 3 C 1,1.892 1.892,1 3,1 Z" />
  </g>
</svg>
