<?xml version="1.0" encoding="UTF-8" standalone="no"?>
<svg
   width="16"
   height="16"
   viewBox="0 0 16 16"
   version="1.1"
   id="svg5"
   inkscape:version="1.1.1 (3bf5ae0d25, 2021-09-20, custom)"
   sodipodi:docname="view-grid-symbolic.svg"
   xmlns:inkscape="http://www.inkscape.org/namespaces/inkscape"
   xmlns:sodipodi="http://sodipodi.sourceforge.net/DTD/sodipodi-0.dtd"
   xmlns="http://www.w3.org/2000/svg"
   xmlns:svg="http://www.w3.org/2000/svg"
   xmlns:rdf="http://www.w3.org/1999/02/22-rdf-syntax-ns#"
   xmlns:cc="http://creativecommons.org/ns#"
   xmlns:dc="http://purl.org/dc/elements/1.1/">
  <metadata
     id="metadata9">
    <rdf:RDF>
      <cc:Work
         rdf:about="">
        <dc:format>image/svg+xml</dc:format>
        <dc:type
           rdf:resource="http://purl.org/dc/dcmitype/StillImage" />
      </cc:Work>
    </rdf:RDF>
  </metadata>
  <sodipodi:namedview
     id="namedview7"
     pagecolor="#ffffff"
     bordercolor="#666666"
     borderopacity="1.0"
     inkscape:pageshadow="2"
     inkscape:pageopacity="0.0"
     inkscape:pagecheckerboard="0"
     inkscape:document-units="px"
     showgrid="false"
     inkscape:zoom="24.439378"
     inkscape:cx="10.147558"
     inkscape:cy="9.7792996"
     inkscape:window-width="1366"
     inkscape:window-height="692"
     inkscape:window-x="0"
     inkscape:window-y="40"
     inkscape:window-maximized="1"
     inkscape:current-layer="layer1"
     inkscape:document-rotation="0">
    <inkscape:grid
       type="xygrid"
       id="grid928" />
  </sodipodi:namedview>
  <defs
     id="defs2" />
  <g
     inkscape:label="Capa 1"
     inkscape:groupmode="layer"
     id="layer1">
    <path
       id="rect1456-5-5-2-2"
       style="stroke-width:1.76776;stroke-linecap:round;stroke-linejoin:round"
       d="M 2 2 L 2 7 L 7 7 L 7 2 L 2 2 z M 3 3 L 6 3 L 6 6 L 3 6 L 3 3 z " />
    <path
       id="rect1456-5-5-2-2-5"
       style="stroke-width:1.76776;stroke-linecap:round;stroke-linejoin:round"
       d="M 2 9 L 2 14 L 7 14 L 7 9 L 2 9 z M 3 10 L 6 10 L 6 13 L 3 13 L 3 10 z " />
    <path
       id="rect1456-5-5-2-2-2"
       style="stroke-width:1.76776;stroke-linecap:round;stroke-linejoin:round"
       d="M 9 2 L 9 7 L 14 7 L 14 2 L 9 2 z M 10 3 L 13 3 L 13 6 L 10 6 L 10 3 z " />
    <path
       id="rect1456-5-5-2-2-9"
       style="stroke-width:1.76776;stroke-linecap:round;stroke-linejoin:round"
       d="M 9 9 L 9 14 L 14 14 L 14 9 L 9 9 z M 10 10 L 13 10 L 13 13 L 10 13 L 10 10 z " />
  </g>
</svg>
