<?xml version="1.0" encoding="UTF-8" standalone="no"?>
<!-- Created with Inkscape (http://www.inkscape.org/) -->

<svg
   width="16"
   height="16"
   viewBox="0 0 16 16"
   version="1.1"
   id="svg5"
   inkscape:version="1.1.1 (3bf5ae0d25, 2021-09-20, custom)"
   sodipodi:docname="window-maximize-symbolic.svg"
   xmlns:inkscape="http://www.inkscape.org/namespaces/inkscape"
   xmlns:sodipodi="http://sodipodi.sourceforge.net/DTD/sodipodi-0.dtd"
   xmlns="http://www.w3.org/2000/svg"
   xmlns:svg="http://www.w3.org/2000/svg">
  <sodipodi:namedview
     id="namedview7"
     pagecolor="#ffffff"
     bordercolor="#666666"
     borderopacity="1.0"
     inkscape:pageshadow="2"
     inkscape:pageopacity="0.0"
     inkscape:pagecheckerboard="0"
     inkscape:document-units="px"
     showgrid="false"
     inkscape:zoom="24.439378"
     inkscape:cx="7.8970913"
     inkscape:cy="7.9789264"
     inkscape:window-width="1366"
     inkscape:window-height="692"
     inkscape:window-x="0"
     inkscape:window-y="40"
     inkscape:window-maximized="1"
     inkscape:current-layer="layer2">
    <inkscape:grid
       type="xygrid"
       id="grid824" />
  </sodipodi:namedview>
  <defs
     id="defs2" />
  <g
     inkscape:label="Base"
     inkscape:groupmode="layer"
     id="layer1" />
  <g
     inkscape:groupmode="layer"
     id="layer2"
     inkscape:label="ícono">
    <path
       id="rect927"
       d="M 4 1 C 2.338 1 1 2.338 1 4 L 1 12 C 1 13.662 2.338 15 4 15 L 12 15 C 13.662 15 15 13.662 15 12 L 15 4 C 15 2.338 13.662 1 12 1 L 4 1 z M 4 2 L 12 2 C 13.108 2 14 2.892 14 4 L 14 12 C 14 13.108 13.108 14 12 14 L 4 14 C 2.892 14 2 13.108 2 12 L 2 4 C 2 2.892 2.892 2 4 2 z " />
  </g>
</svg>
