<?xml version="1.0" encoding="UTF-8" standalone="no"?>
<!-- Created with Inkscape (http://www.inkscape.org/) -->

<svg
   width="16"
   height="16"
   viewBox="0 0 16 16"
   version="1.1"
   id="svg5"
   inkscape:version="1.1.1 (3bf5ae0d25, 2021-09-20, custom)"
   sodipodi:docname="window-restore-symbolic.svg"
   xmlns:inkscape="http://www.inkscape.org/namespaces/inkscape"
   xmlns:sodipodi="http://sodipodi.sourceforge.net/DTD/sodipodi-0.dtd"
   xmlns="http://www.w3.org/2000/svg"
   xmlns:svg="http://www.w3.org/2000/svg">
  <sodipodi:namedview
     id="namedview7"
     pagecolor="#ffffff"
     bordercolor="#666666"
     borderopacity="1.0"
     inkscape:pageshadow="2"
     inkscape:pageopacity="0.0"
     inkscape:pagecheckerboard="0"
     inkscape:document-units="px"
     showgrid="false"
     inkscape:zoom="6.1098445"
     inkscape:cx="7.8561737"
     inkscape:cy="8.8381955"
     inkscape:window-width="1366"
     inkscape:window-height="692"
     inkscape:window-x="0"
     inkscape:window-y="40"
     inkscape:window-maximized="1"
     inkscape:current-layer="layer1">
    <inkscape:grid
       type="xygrid"
       id="grid824" />
  </sodipodi:namedview>
  <defs
     id="defs2" />
  <g
     inkscape:label="Base"
     inkscape:groupmode="layer"
     id="layer1">
    <path
       id="rect927"
       style="stroke-width:1.04881"
       d="M 4 4 C 2.338 4 1 5.338 1 7 L 1 12 C 1 13.662 2.338 15 4 15 L 9 15 C 10.662 15 12 13.662 12 12 L 12 7 C 12 5.338 10.662 4 9 4 L 4 4 z M 4 5 L 9 5 C 10.108 5 11 5.892 11 7 L 11 12 C 11 13.108 10.108 14 9 14 L 4 14 C 2.892 14 2 13.108 2 12 L 2 7 C 2 5.892 2.892 5 4 5 z " />
    <path
       id="rect927-6"
       style="stroke-width:1.04881"
       d="M 7 1 C 5.6895172 1 4.5843366 1.8333496 4.1738281 3 L 5.2675781 3 C 5.6125543 2.4019229 6.2572244 2 7 2 L 12 2 C 13.108 2 14 2.892 14 4 L 14 9 C 14 9.7427756 13.598077 10.387446 13 10.732422 L 13 11.826172 C 14.16665 11.415663 15 10.310483 15 9 L 15 4 C 15 2.338 13.662 1 12 1 L 7 1 z " />
  </g>
  <g
     inkscape:groupmode="layer"
     id="layer2"
     inkscape:label="ícono" />
</svg>
